<svg width="21" height="21" viewBox="0 0 21 21" fill="none" xmlns="http://www.w3.org/2000/svg">
<path d="M18.1564 4.29287L18.1683 4.27408L13.8506 0.692894L12.7914 2.41054L15.0225 4.26082C14.5545 4.60478 14.2073 5.11095 14.0261 5.71367C13.8448 6.31638 13.8379 6.98781 14.0061 7.64085C14.2579 8.63452 14.9563 9.49334 15.794 9.97525C16.7346 10.5169 17.5055 10.4682 18.1647 10.193L18.8723 17.026C18.8929 17.209 18.8725 17.3895 18.813 17.5511C18.7534 17.7127 18.6567 17.8503 18.5315 17.9514C18.4063 18.0526 18.2566 18.1141 18.0959 18.1305C17.9353 18.1469 17.7687 18.1175 17.6113 18.0451C17.488 17.9888 17.373 17.9073 17.2727 17.8052C17.1709 17.7029 17.0859 17.5813 17.0226 17.4476C16.9593 17.3139 16.9189 17.1706 16.9038 17.026L16.6927 14.8154C16.6477 14.3803 16.5264 13.9493 16.3356 13.5473C16.1449 13.1453 15.8886 12.7803 15.5815 12.4732C15.2745 12.1646 14.9228 11.9198 14.5464 11.7527C14.17 11.5856 13.7763 11.4996 13.3879 11.4995L12.4032 11.4995L11.4684 2.65702C11.3395 1.43787 10.3513 0.446411 9.26515 0.446411L2.37186 0.446411C1.28567 0.446411 0.507159 1.43787 0.636045 2.65702L2.27196 18.1313C2.40084 19.3505 3.38898 20.3419 4.47517 20.3419L11.3685 20.3419C12.4546 20.3419 13.2332 19.3505 13.1043 18.1313L12.6369 13.7101L13.6216 13.7101C13.7556 13.7101 13.8877 13.7399 14.0158 13.7963C14.2623 13.9115 14.4714 14.1219 14.601 14.3854C14.6664 14.5215 14.708 14.6677 14.7232 14.8154L14.9333 17.026C14.9807 17.4748 15.1045 17.9091 15.3022 18.317C15.4928 18.7138 15.744 19.0686 16.0445 19.3681C16.3507 19.6782 16.7023 19.924 17.079 20.0912C17.4556 20.2584 17.8497 20.3437 18.2381 20.3419C18.6379 20.3419 19.0148 20.2557 19.3607 20.0811C19.6958 19.9153 19.9875 19.6754 20.2223 19.3726C20.4655 19.0653 20.6455 18.6996 20.7519 18.2968C20.8582 17.894 20.8888 17.4621 20.8418 17.026L19.8138 7.07825C19.7541 6.52296 19.5711 5.97686 19.2815 5.49015C18.9919 5.00344 18.605 4.59173 18.1564 4.29287ZM2.60556 2.65702L9.49885 2.65702L9.96724 7.07825L3.07296 7.07825L2.60556 2.65702ZM4.24147 18.1313L3.30666 9.28886L10.2009 9.28886L11.1367 18.1313L4.24147 18.1313ZM16.9764 8.18355C16.7152 8.18355 16.4524 8.0671 16.2458 7.85981C16.0393 7.65253 15.9058 7.37139 15.8748 7.07825C15.8438 6.7851 15.9178 6.50396 16.0806 6.29668C16.2434 6.08939 16.4815 5.97294 16.7427 5.97294C17.0039 5.97294 17.2667 6.08939 17.4733 6.29668C17.6798 6.50396 17.8133 6.7851 17.8443 7.07825C17.8753 7.37139 17.8013 7.65253 17.6385 7.85981C17.4757 8.0671 17.2376 8.18355 16.9764 8.18355Z" fill="white"/>
</svg>
