<svg width="29" height="31" viewBox="0 0 29 31" fill="none" xmlns="http://www.w3.org/2000/svg">
<g clip-path="url(#clip0)">
<path d="M21.9317 8.48471L22.2784 12.0143L21.1729 12.0143L18.1883 8.49197L14.6371 8.49197L14.4917 7.11669L17.95 7.11669L17.763 5.34808L9.36439 5.34808L9.55136 7.11669L13.0096 7.11669L13.155 8.49197L9.3613 8.49197L7.90489 10.8804L4.44249 10.8804L4.9488 15.6696L3.5452 15.6696L3.18037 12.2187L1.69827 12.2187L2.62895 21.0221L4.11105 21.0221L3.73217 17.4382L5.13577 17.4382L5.66701 22.4632L9.15173 22.4632L11.1389 24.6775L19.8951 24.6713L22.1612 21.178L23.2468 21.178L23.6675 24.9074L28.2232 24.9074L26.4918 8.52946L21.9317 8.48471ZM26.5541 23.1388L24.9502 23.1388L24.5295 19.4094L21.3144 19.4094L19.0479 22.9032L11.5902 22.9084L9.6034 20.6947L6.96215 20.6947L6.11157 12.649L8.77521 12.649L10.2316 10.2606L17.7078 10.2606L20.6923 13.7829L23.9342 13.7829L23.589 10.2678L25.1951 10.2836L26.5541 23.1388Z" fill="white"/>
</g>
<defs>
<clipPath id="clip0">
<rect width="25.18" height="30.215" fill="white" transform="matrix(1.00014 -3.10432e-08 0.105147 0.994597 0.417236 0.101868)"/>
</clipPath>
</defs>
</svg>
