<svg width="15" height="15" viewBox="0 0 15 15" fill="none" xmlns="http://www.w3.org/2000/svg">
<g clip-path="url(#clip0)">
<path d="M13.0671 10.0436H1.95634C1.57462 10.0436 1.26514 10.3525 1.26514 10.7334V11.3377C1.26514 11.4876 1.38703 11.6093 1.53724 11.6093H13.4862C13.6364 11.6093 13.7583 11.4876 13.7583 11.3377V10.7334C13.7583 10.3525 13.4489 10.0436 13.0671 10.0436Z" fill="#FC4E51"/>
<path d="M13.067 10.0436H11.322C11.7037 10.0436 12.0131 10.3525 12.0131 10.7334V11.6092H13.4861C13.6364 11.6092 13.7582 11.4876 13.7582 11.3376V10.7334C13.7582 10.3525 13.4487 10.0436 13.067 10.0436Z" fill="#EA3942"/>
<path d="M13.0671 6.88398H1.95634C1.57462 6.88398 1.26514 6.57521 1.26514 6.19424V5.31842H13.7583V6.19424C13.7583 6.57521 13.4489 6.88398 13.0671 6.88398Z" fill="#FC4E51"/>
<path d="M12.0131 5.31842V6.19424C12.0131 6.57521 11.7037 6.88398 11.322 6.88398H13.067C13.4487 6.88398 13.7582 6.57521 13.7582 6.19424V5.31842H12.0131Z" fill="#EA3942"/>
<path d="M13.0671 9.4327H1.95634C1.57462 9.4327 1.26514 9.12382 1.26514 8.74285V7.43524H13.7583V8.74285C13.7583 9.12382 13.4489 9.4327 13.0671 9.4327Z" fill="#912C2C"/>
<path d="M12.0131 7.43524V8.74285C12.0131 9.12382 11.7037 9.4327 11.322 9.4327H13.067C13.4487 9.4327 13.7582 9.12382 13.7582 8.74285V7.43524H12.0131Z" fill="#7C1E1E"/>
<path d="M13.9146 11.4701H1.10908C0.796508 11.4701 0.543213 11.723 0.543213 12.0349C0.543213 13.6563 1.86025 14.9707 3.48482 14.9707H11.5389C13.1635 14.9707 14.4805 13.6563 14.4805 12.0349C14.4805 11.723 14.2272 11.4701 13.9146 11.4701Z" fill="#EFA335"/>
<path d="M13.9144 11.4701H12.7352V12.0349C12.7352 13.6563 11.4183 14.9707 9.7937 14.9707H11.5387C13.1632 14.9707 14.4803 13.6563 14.4803 12.0349C14.4803 11.723 14.227 11.4701 13.9144 11.4701Z" fill="#FD8F31"/>
<path d="M13.6191 6.73131C13.9839 6.73131 14.2914 7.02954 14.2916 7.40399C14.292 7.93877 13.6729 8.22167 12.9536 8.1181C12.2819 8.02128 12.2734 7.71698 11.5932 7.71698C10.9129 7.71698 10.9129 8.1181 10.2326 8.1181C9.5524 8.1181 9.5524 7.71698 8.87209 7.71698C8.1919 7.71698 8.1919 8.1181 7.51171 8.1181C6.8314 8.1181 6.8314 7.71698 6.15121 7.71698C5.4709 7.71698 5.4709 8.1181 4.79071 8.1181C4.1104 8.1181 4.1104 7.71698 3.43021 7.71698C2.74991 7.71698 2.74142 8.02128 2.06971 8.1181C1.35042 8.22178 0.731346 7.93877 0.73169 7.40399C0.732034 7.02954 1.03945 6.73131 1.4042 6.73131H13.6191Z" fill="#A0E557"/>
<path d="M13.7864 9.1165H1.25135C0.979252 9.1165 0.745106 9.32513 0.732264 9.59647C0.718619 9.886 0.949898 10.1252 1.23702 10.1252H7.22505C7.5351 10.1252 7.84149 10.1902 8.12471 10.316L9.98687 11.143C10.4513 11.3492 10.9854 11.3285 11.4323 11.0868L12.7181 10.3917C13.0418 10.2167 13.404 10.1252 13.7721 10.1252C14.0442 10.1252 14.2783 9.91644 14.2912 9.64522C14.3048 9.35557 14.0735 9.1165 13.7864 9.1165Z" fill="#FCCF3F"/>
<path d="M7.51185 -0.0292969C1.02366 -0.0268936 0.543213 4.24497 0.543213 4.8499C0.543213 5.16175 0.796508 5.41455 1.10908 5.41455H13.9146C14.2272 5.41455 14.4805 5.16175 14.4805 4.8499C14.4805 4.24497 14.0001 -0.0268936 7.51185 -0.0292969Z" fill="#EFA335"/>
<path d="M14.48 4.81683C14.48 4.81614 14.48 4.81545 14.48 4.81477C14.4797 4.80321 14.4792 4.79085 14.4787 4.77758C14.4787 4.77654 14.4785 4.77552 14.4785 4.7746C14.4779 4.76121 14.4771 4.74702 14.4761 4.73214C14.4761 4.73111 14.476 4.7302 14.4759 4.72917C14.4749 4.71372 14.4737 4.69758 14.4722 4.68041C14.4722 4.67984 14.4721 4.67927 14.4721 4.6787C14.466 4.60694 14.4561 4.521 14.4405 4.42326C14.241 3.1683 13.1233 -0.0272369 7.51185 -0.0292969C7.20799 -0.0291824 6.91743 -0.0196838 6.63937 -0.00171657C10.886 0.273629 12.1919 2.54254 12.5794 3.90187C12.7049 4.3427 12.3699 4.78044 11.9107 4.78044H1.10908C0.870122 4.78044 0.666134 4.63235 0.583231 4.42326C0.552042 4.6193 0.543213 4.76819 0.543213 4.8499C0.543213 5.16175 0.796508 5.41467 1.10908 5.41467H13.9146C14.2272 5.41467 14.4805 5.16175 14.4805 4.8499C14.4805 4.83983 14.4804 4.82873 14.48 4.81683Z" fill="#FD8F31"/>
<path d="M14.2853 7.31244C14.2397 6.98216 13.9536 6.73131 13.6193 6.73131H12.5403V8.00904C12.6489 8.05345 12.7787 8.09281 12.9538 8.1181C13.6305 8.21561 14.2185 7.9707 14.2853 7.496V7.31244Z" fill="#93CC4A"/>
<path d="M14.2853 9.54005C14.2465 9.29995 14.0379 9.1165 13.7865 9.1165H12.5403V10.488L12.7181 10.3917C13.0418 10.2169 13.4041 10.1252 13.7721 10.1252C14.0255 10.1252 14.2459 9.94402 14.2853 9.70004V9.54005Z" fill="#EFC03C"/>
</g>
<defs>
<clipPath id="clip0">
<rect width="15" height="15" fill="white"/>
</clipPath>
</defs>
</svg>
