<svg width="15" height="15" viewBox="0 0 15 15" fill="none" xmlns="http://www.w3.org/2000/svg">
<path d="M6.54904 0.927054C6.84839 0.00574303 8.1518 0.00573993 8.45115 0.927051L9.49827 4.14975C9.63215 4.56177 10.0161 4.84073 10.4493 4.84073H13.8379C14.8066 4.84073 15.2094 6.08035 14.4257 6.64975L11.6843 8.64148C11.3338 8.89613 11.1871 9.3475 11.321 9.75952L12.3681 12.9822C12.6675 13.9035 11.613 14.6697 10.8293 14.1003L8.08788 12.1085C7.7374 11.8539 7.2628 11.8539 6.91231 12.1085L4.17092 14.1002C3.38721 14.6697 2.33273 13.9035 2.63208 12.9822L3.6792 9.75952C3.81307 9.3475 3.66641 8.89613 3.31593 8.64149L0.574539 6.64975C-0.209175 6.08035 0.193598 4.84073 1.16232 4.84073H4.55087C4.98409 4.84073 5.36805 4.56177 5.50192 4.14975L6.54904 0.927054Z" fill="#FFCD1E"/>
</svg>
