<svg xmlns="http://www.w3.org/2000/svg" height="480" width="512" viewBox="0 0 512 480"><path d="M497 0h-482c-8.284 0-15 6.714-15 15v15c0 16.567 13.431 30 30 30h30v90h30v-90h151v90h30v-90h151v90h30v-90h30c16.569 0 30-13.433 30-30v-15c0-8.286-6.716-15-15-15z" fill="#fff"/><path d="M458.679 332.519l53.321-35.546v-23.947l-36.68 24.454c-7.018 4.653-16.28 2.632-20.8-4.16-4.6-6.899-2.739-16.201 4.16-20.801l53.278-35.519c-.112-11.852-4.746-23-13.141-31.395l-12.422-12.422c-8.497-8.495-19.805-13.183-31.817-13.183h-35.156c-12.012 0-23.32 4.688-31.816 13.184l-12.422 12.422c-8.395 8.395-13.03 19.543-13.141 31.395l53.278 35.519c6.899 4.6 8.76 13.901 4.16 20.801-4.521 6.793-13.786 8.809-20.801 4.16l-36.68-24.454v23.947l53.32 35.546c6.899 4.6 8.76 13.901 4.16 20.801-4.521 6.793-13.786 8.809-20.801 4.16l-36.679-24.454v23.947l53.32 35.546c6.899 4.6 8.76 13.901 4.16 20.801-4.521 6.793-13.786 8.809-20.801 4.16l-36.679-24.454v41.973c0 24.814 20.186 45 45 45h60c24.814 0 45-20.186 45-45v-41.973l-36.68 24.454c-7.018 4.653-16.28 2.631-20.801-4.16-4.6-6.899-2.739-16.201 4.16-20.801l53.321-35.547v-23.947l-36.68 24.454c-7.018 4.653-16.28 2.631-20.801-4.16-4.6-6.899-2.739-16.201 4.16-20.801z" fill="#fff"/><path d="M277.679 332.52l53.321-35.547v-23.947l-36.68 24.454c-7.018 4.653-16.28 2.631-20.801-4.16-4.6-6.899-2.739-16.201 4.16-20.801l53.278-35.519c-.112-11.852-4.746-23-13.141-31.395l-12.422-12.422c-8.496-8.495-19.804-13.183-31.816-13.183h-35.156c-12.012 0-23.32 4.688-31.816 13.184l-12.422 12.422c-8.395 8.395-13.03 19.543-13.141 31.395l53.278 35.519c6.899 4.6 8.76 13.901 4.16 20.801-4.521 6.793-13.786 8.809-20.801 4.16l-36.68-24.454v23.947l53.32 35.546c6.899 4.6 8.76 13.901 4.16 20.801-4.52 6.793-13.786 8.809-20.8 4.159l-36.68-24.453v41.973c0 24.814 20.186 45 45 45h60c24.814 0 45-20.186 45-45v-41.973l-36.68 24.454c-7.018 4.653-16.28 2.631-20.801-4.16-4.6-6.899-2.739-16.201 4.16-20.801z" fill="#fff"/><path d="M96.679 332.52l53.321-35.547v-23.947l-36.68 24.454c-7.018 4.653-16.28 2.631-20.801-4.16-4.6-6.899-2.739-16.201 4.16-20.801l53.278-35.519c-.112-11.852-4.746-23-13.141-31.395l-12.422-12.422c-8.496-8.495-19.804-13.183-31.816-13.183h-35.156c-12.012 0-23.32 4.688-31.816 13.184l-12.422 12.422c-8.395 8.395-13.03 19.543-13.141 31.395l53.277 35.519c6.899 4.6 8.76 13.901 4.16 20.801-4.521 6.793-13.786 8.809-20.801 4.16l-36.679-24.454v23.947l53.32 35.546c6.899 4.6 8.76 13.901 4.16 20.801-4.521 6.793-13.786 8.809-20.801 4.16l-36.679-24.454v41.973c0 24.814 20.186 45 45 45h60c24.814 0 45-20.186 45-45v-41.973l-36.68 24.454c-7.018 4.653-16.28 2.631-20.801-4.16-4.6-6.899-2.739-16.201 4.16-20.801z" fill="#fff"/></svg>