<svg xmlns="http://www.w3.org/2000/svg" height="512" width="512" viewBox="0 0 512 512"><path d="M255.897 0h-.513c-10.422.021-18.828 8.553-18.828 18.975v39.087c0 10.538 8.588 18.97 19.124 18.97h.218c98.899 0 179.072 80.173 179.072 179.071l-.001.526c-.031 10.547 8.419 19.148 18.967 19.148h39.087c10.422 0 18.943-8.405 18.977-18.826l.001-.848c0-141.44-114.661-256.101-256.103-256.101z" fill="#fff"/><path d="M236.595 188.297c-48.032 0-87.109 39.077-87.109 87.109 0 48.031 39.077 87.108 87.109 87.108s87.109-39.077 87.109-87.108c0-48.032-39.077-87.109-87.109-87.109zm0 132.749c-25.166 0-45.64-20.474-45.64-45.64s20.474-45.641 45.64-45.641 45.64 20.474 45.64 45.641c0 25.167-20.474 45.64-45.64 45.64z" fill="#fff"/><path d="M419.293 291.409c-9.284-9.312-14.375-21.695-14.336-34.876l.001-.431c0-82.192-66.868-149.059-149.06-149.059h-.218c-27.093 0-49.136-21.973-49.136-48.982v-17.351c-116.323 14.811-206.544 114.415-206.544 234.696 0 130.459 106.136 236.594 236.595 236.594 120.166 0 219.692-90.05 234.65-206.211h-17.31c-13.095 0-25.398-5.107-34.643-14.38zm-182.698 101.116c-64.581 0-117.121-52.54-117.121-117.12 0-64.581 52.54-117.121 117.121-117.121 64.581 0 117.121 52.54 117.121 117.121 0 64.58-52.54 117.12-117.121 117.12z" fill="#fff"/><path d="M236.595 259.776c-8.617 0-15.628 7.011-15.628 15.629 0 8.618 7.011 15.628 15.628 15.628s15.628-7.011 15.628-15.628-7.011-15.629-15.628-15.629z" fill="#fff"/></svg>