<svg xmlns="http://www.w3.org/2000/svg" height="240" width="190" viewBox="0 0 190 240"><path d="M184.957 6.083c-3.596-3.922-8.555-6.083-13.965-6.083h-14.867c-10.957 0-21.413 8.933-23.307 19.914l-.938 5.431c-.943 5.465.326 10.641 3.573 14.575 3.247 3.934 8.037 6.1 13.49 6.1h19.204c2.665 0 5.242-.541 7.636-1.503l-2.041 17.744c-1.965-.84-4.121-1.288-6.388-1.288h-21.911c-9.387 0-18.607 7.602-20.554 16.944l-19.372 92.936-91.402-6.683c-4.939-.36-9.063 1.344-11.619 4.688-2.395 3.133-3.095 7.336-1.972 11.835l10.627 42.576c2.302 9.224 11.785 16.73 21.138 16.73h116.80000000000001c9.477 0 18.002-7.803 19.001-17.394l14.994-143.84c.085-.822.095-1.632.068-2.435l5.132-44.604c.725-1.921 1.185-3.963 1.329-6.081l.34-4.965c.377-5.491-1.397-10.675-4.993-14.598z" fill="#fff"/></svg>