<svg xmlns="http://www.w3.org/2000/svg" viewBox="0 0 415 415" height="415" width="415"><path d="M207.5 0c-114.597 0-207.5 92.903-207.5 207.5 0 114.598 92.903 207.5 207.5 207.5 114.598 0 207.5-92.902 207.5-207.5.001-114.597-92.901-207.501-207.5-207.501zm-127.295 301.948c-17.001-24.147-27.332-56.288-28.287-84.908h88.801c-3.234 28.62-33.333 69.959-60.514 84.908zm127.295 61.373c-29.985 0-57.919-8.529-81.636-23.241 11.953-16.686 26.397-49.904 85.623-49.904 57.241 0 71.17 23.021 85.623 44.611-25.329 17.945-56.192 28.534-89.611 28.534zm-25.043-141.511c0-15.151 12.278-27.428 27.428-27.428 15.151 0 27.428 12.278 27.428 27.428s-12.278 27.428-27.428 27.428-27.428-12.277-27.428-27.428zm154.236 77.2c-42.588-17.115-48.092-53.349-51.088-81.97h77.476c-.915 28.62-10.57 58.386-26.388 81.97zm-278.889-129.671c18.661-66.782 78.546-112.889 149.696-112.889 71.151 0 131.035 46.108 149.696 112.889z" fill="#fff"/></svg>