<svg width="78" height="41" viewBox="0 0 78 41" fill="none" xmlns="http://www.w3.org/2000/svg">
<g filter="url(#filter0_d)">
<path d="M18.24 5.44C18.768 5.44 19.128 5.592 19.32 5.896C19.528 6.184 19.536 6.568 19.344 7.048L13.872 20.224C13.392 21.408 12.504 22 11.208 22H8.76C7.32 22 6.504 21.288 6.312 19.864L4.56 6.928C4.496 6.448 4.576 6.08 4.8 5.824C5.04 5.568 5.4 5.44 5.88 5.44H7.68C8.592 5.44 9.08 5.896 9.144 6.808L9.888 16.504C9.888 16.52 9.904 17.12 9.936 18.304C9.936 18.496 10.024 18.592 10.2 18.592H10.296C10.44 18.592 10.536 18.504 10.584 18.328C10.744 17.752 10.928 17.16 11.136 16.552L14.736 6.568C14.992 5.816 15.52 5.44 16.32 5.44H18.24ZM24.5351 5.44C24.9991 5.44 25.3431 5.568 25.5671 5.824C25.7911 6.064 25.8711 6.416 25.8071 6.88L23.8631 20.728C23.7351 21.576 23.2471 22 22.3991 22H20.6471C20.1831 22 19.8391 21.872 19.6151 21.616C19.3911 21.36 19.3111 21 19.3751 20.536L21.3431 6.688C21.4391 5.856 21.9191 5.44 22.7831 5.44H24.5351ZM28.0059 22C27.5419 22 27.1979 21.872 26.9739 21.616C26.7499 21.36 26.6699 21 26.7339 20.536L28.6059 7.288C28.7659 6.056 29.4699 5.44 30.7179 5.44H31.4859C32.5739 5.44 33.3499 5.928 33.8139 6.904L36.7659 13.672C37.1019 14.392 37.4059 15.272 37.6779 16.312C37.6939 16.392 37.7419 16.432 37.8219 16.432C37.9019 16.432 37.9419 16.384 37.9419 16.288C37.8939 15.408 37.9259 14.544 38.0379 13.696L39.0219 6.688C39.1339 5.856 39.6139 5.44 40.4619 5.44H41.9259C42.3899 5.44 42.7259 5.568 42.9339 5.824C43.1579 6.064 43.2379 6.416 43.1739 6.88L41.3019 20.152C41.1419 21.384 40.4379 22 39.1899 22H38.4219C37.3339 22 36.5579 21.504 36.0939 20.512L33.0699 13.48C32.8139 12.888 32.5579 12.048 32.3019 10.96C32.3019 10.896 32.2619 10.864 32.1819 10.864C32.1019 10.864 32.0619 10.904 32.0619 10.984C32.0779 11.96 32.0299 12.872 31.9179 13.72L30.9099 20.728C30.7979 21.576 30.3179 22 29.4699 22H28.0059ZM51.2771 8.872C50.8451 8.872 50.5331 8.952 50.3411 9.112C50.1491 9.272 50.0291 9.56 49.9811 9.976L49.7651 11.44C49.7331 11.776 49.8771 11.944 50.1971 11.944H54.4691C54.9331 11.944 55.2771 12.072 55.5011 12.328C55.7251 12.568 55.8051 12.92 55.7411 13.384L55.6931 13.72C55.5971 14.568 55.1171 14.992 54.2531 14.992H49.6931C49.4051 14.992 49.2531 15.128 49.2371 15.4L48.9491 17.512C48.8851 17.88 48.9251 18.152 49.0691 18.328C49.2291 18.488 49.5091 18.568 49.9091 18.568H54.4451C55.3731 18.568 55.8291 19.024 55.8131 19.936L55.7891 20.536C55.7891 20.824 55.7331 21.072 55.6211 21.28C55.5251 21.472 55.3811 21.624 55.1891 21.736C54.9971 21.848 54.7571 21.912 54.4691 21.928C53.3011 22.024 51.2211 22.072 48.2291 22.072C46.8211 22.072 45.7811 21.688 45.1091 20.92C44.4371 20.136 44.1891 19.104 44.3651 17.824L45.6131 8.848C45.6931 8.304 45.8451 7.824 46.0691 7.408C46.2931 6.976 46.5811 6.608 46.9331 6.304C47.3011 6 47.7331 5.768 48.2291 5.608C48.7411 5.448 49.3011 5.368 49.9091 5.368C52.9171 5.368 55.0691 5.416 56.3651 5.512C56.8131 5.544 57.1411 5.696 57.3491 5.968C57.5571 6.224 57.6211 6.584 57.5411 7.048L57.4451 7.624C57.3011 8.456 56.8131 8.872 55.9811 8.872H51.2771ZM66.4995 5.104C67.3955 5.104 68.1795 5.168 68.8515 5.296C69.5395 5.408 70.1635 5.608 70.7235 5.896C71.2835 6.168 71.7315 6.528 72.0675 6.976C72.4035 7.408 72.6755 7.952 72.8835 8.608C73.1075 9.264 73.2195 10.024 73.2195 10.888C73.2195 11.752 73.1555 12.752 73.0275 13.888C72.8035 15.568 72.4835 16.952 72.0675 18.04C71.6675 19.128 71.1235 19.992 70.4355 20.632C69.7635 21.272 68.9795 21.72 68.0835 21.976C67.2035 22.216 66.0995 22.336 64.7715 22.336C63.6515 22.336 62.6995 22.248 61.9155 22.072C61.1475 21.896 60.4755 21.6 59.8995 21.184C59.3235 20.768 58.8995 20.224 58.6275 19.552C58.3715 18.88 58.2035 18.048 58.1235 17.056C58.0435 16.064 58.1075 14.896 58.3155 13.552C58.5395 11.888 58.8515 10.52 59.2515 9.448C59.6515 8.376 60.1795 7.52 60.8355 6.88C61.5075 6.224 62.2915 5.768 63.1875 5.512C64.0835 5.24 65.1875 5.104 66.4995 5.104ZM66.4275 8.56C65.8835 8.56 65.4355 8.632 65.0835 8.776C64.7475 8.92 64.4435 9.2 64.1715 9.616C63.9155 10.032 63.6995 10.568 63.5235 11.224C63.3635 11.88 63.1955 12.768 63.0195 13.888C62.7955 15.2 62.7155 16.232 62.7795 16.984C62.8435 17.72 63.0275 18.224 63.3315 18.496C63.6515 18.752 64.1635 18.88 64.8675 18.88C65.6035 18.88 66.1715 18.728 66.5715 18.424C66.9875 18.12 67.3235 17.608 67.5795 16.888C67.8355 16.152 68.0755 15.04 68.2995 13.552C68.5235 12.224 68.5955 11.192 68.5155 10.456C68.4515 9.72 68.2595 9.224 67.9395 8.968C67.6355 8.696 67.1315 8.56 66.4275 8.56Z" fill="#FFCD1E"/>
</g>
<g filter="url(#filter1_d)">
<path d="M10.106 34C9.882 34 9.714 33.9393 9.602 33.818C9.49933 33.6873 9.462 33.5147 9.49 33.3L10.68 24.928C10.736 24.536 10.9553 24.3213 11.338 24.284C11.9353 24.2373 12.9293 24.214 14.32 24.214C15.5147 24.214 16.3873 24.438 16.938 24.886C17.498 25.3247 17.708 26.0807 17.568 27.154C17.484 27.8073 17.2833 28.3253 16.966 28.708C16.6487 29.0813 16.2007 29.3287 15.622 29.45C15.4913 29.4873 15.4867 29.534 15.608 29.59C16.1213 29.814 16.434 30.2947 16.546 31.032L16.952 33.3C16.98 33.524 16.9427 33.6967 16.84 33.818C16.7373 33.9393 16.5693 34 16.336 34H15.482C15.0713 34 14.838 33.7947 14.782 33.384L14.418 31.004C14.3807 30.7053 14.3013 30.5047 14.18 30.402C14.0587 30.29 13.8673 30.234 13.606 30.234C13.0927 30.234 12.6307 30.2293 12.22 30.22C12.08 30.22 12.0053 30.2853 11.996 30.416L11.576 33.384C11.52 33.7947 11.2867 34 10.876 34H10.106ZM12.472 28.582H13.76C14.32 28.582 14.7167 28.484 14.95 28.288C15.1927 28.092 15.356 27.714 15.44 27.154C15.5053 26.6687 15.454 26.3327 15.286 26.146C15.1273 25.95 14.7913 25.852 14.278 25.852C13.5873 25.852 13.102 25.8567 12.822 25.866C12.7007 25.866 12.626 25.9313 12.598 26.062L12.276 28.358C12.2573 28.5073 12.3227 28.582 12.472 28.582ZM22.2967 26.902C23.5754 26.902 24.4667 27.1913 24.9707 27.77C25.4747 28.3487 25.6334 29.3053 25.4467 30.64C25.2601 31.9373 24.8727 32.852 24.2847 33.384C23.6967 33.916 22.7774 34.182 21.5267 34.182C20.2574 34.182 19.3614 33.8973 18.8387 33.328C18.3254 32.7493 18.1621 31.7973 18.3487 30.472C18.5354 29.1653 18.9227 28.246 19.5107 27.714C20.0987 27.1727 21.0274 26.902 22.2967 26.902ZM22.2827 28.456C21.7134 28.456 21.3074 28.6007 21.0647 28.89C20.8221 29.1793 20.6354 29.7627 20.5047 30.64C20.3927 31.4333 20.4067 31.9653 20.5467 32.236C20.6867 32.4973 21.0274 32.628 21.5687 32.628C22.1287 32.628 22.5301 32.4833 22.7727 32.194C23.0154 31.8953 23.1974 31.3213 23.3187 30.472C23.4307 29.6693 23.4167 29.1327 23.2767 28.862C23.1367 28.5913 22.8054 28.456 22.2827 28.456ZM28.4558 34.168C27.8118 34.168 27.3218 33.9953 26.9858 33.65C26.6592 33.3047 26.5332 32.8287 26.6078 32.222L27.6578 24.802C27.7138 24.4007 27.9472 24.2 28.3578 24.2H29.0998C29.3238 24.2 29.4872 24.2607 29.5898 24.382C29.6925 24.5033 29.7298 24.6713 29.7018 24.886L28.7218 31.788C28.6845 32.04 28.7078 32.2173 28.7918 32.32C28.8758 32.4133 29.0485 32.46 29.3098 32.46H29.4638C29.8092 32.46 29.9912 32.6653 30.0098 33.076L30.0378 33.328C30.0658 33.7667 29.8885 34.014 29.5058 34.07C29.1605 34.1353 28.8105 34.168 28.4558 34.168ZM35.0952 26.902C35.7206 26.902 36.2386 26.958 36.6492 27.07C37.0692 27.1727 37.3866 27.3313 37.6012 27.546C37.8252 27.7607 37.9699 28.008 38.0352 28.288C38.1006 28.568 38.1052 28.8993 38.0492 29.282C37.9559 29.9353 37.6899 30.402 37.2512 30.682C36.8126 30.962 36.1359 31.1347 35.2212 31.2L33.4152 31.34C33.2379 31.3587 33.1679 31.4473 33.2052 31.606C33.2519 31.9607 33.3826 32.2033 33.5972 32.334C33.8119 32.4553 34.1339 32.516 34.5632 32.516C35.1326 32.516 35.7999 32.4833 36.5652 32.418C37.0039 32.39 37.2419 32.586 37.2792 33.006L37.2932 33.09C37.3399 33.5007 37.1766 33.7573 36.8032 33.86C36.1126 34.0653 35.2866 34.168 34.3252 34.168C33.0092 34.168 32.1039 33.86 31.6092 33.244C31.1146 32.628 30.9419 31.6807 31.0912 30.402C31.1752 29.7113 31.3106 29.142 31.4972 28.694C31.6839 28.2367 31.9452 27.8773 32.2812 27.616C32.6172 27.3547 33.0046 27.1727 33.4432 27.07C33.8912 26.958 34.4419 26.902 35.0952 26.902ZM36.0472 29.086C36.0752 28.7873 36.0146 28.6007 35.8652 28.526C35.7252 28.4513 35.4219 28.414 34.9552 28.414C34.4512 28.414 34.0872 28.512 33.8632 28.708C33.6486 28.8947 33.4806 29.2727 33.3592 29.842C33.3406 29.926 33.3499 29.9913 33.3872 30.038C33.4339 30.0847 33.4992 30.1033 33.5832 30.094L34.9132 29.982C35.1652 29.954 35.3612 29.9167 35.5012 29.87C35.6506 29.8233 35.7719 29.7393 35.8652 29.618C35.9586 29.4873 36.0192 29.31 36.0472 29.086ZM43.7552 24.214C45.0526 24.214 45.9439 24.4567 46.4292 24.942C46.9146 25.418 47.0732 26.2533 46.9052 27.448C46.8212 28.092 46.6952 28.61 46.5272 29.002C46.3686 29.394 46.1399 29.7067 45.8412 29.94C45.5426 30.164 45.1926 30.318 44.7912 30.402C44.3992 30.486 43.8952 30.528 43.2792 30.528C42.7659 30.528 42.2386 30.4953 41.6972 30.43C41.5479 30.4207 41.4639 30.4907 41.4452 30.64L41.0672 33.384C41.0019 33.7947 40.7686 34 40.3672 34H39.5552C39.3312 34 39.1632 33.9393 39.0512 33.818C38.9486 33.6873 38.9112 33.5147 38.9392 33.3L40.1292 24.928C40.1852 24.5267 40.3532 24.3167 40.6332 24.298C41.3146 24.242 42.3552 24.214 43.7552 24.214ZM44.8052 27.294C44.8892 26.7247 44.8472 26.342 44.6792 26.146C44.5206 25.95 44.1939 25.852 43.6992 25.852H42.3412C42.1919 25.852 42.1079 25.9267 42.0892 26.076L41.7252 28.624C41.7066 28.792 41.7812 28.876 41.9492 28.876H43.1392C43.5312 28.876 43.8299 28.834 44.0352 28.75C44.2499 28.666 44.4132 28.5167 44.5252 28.302C44.6466 28.078 44.7399 27.742 44.8052 27.294ZM49.3465 34.168C48.7025 34.168 48.2125 33.9953 47.8765 33.65C47.5498 33.3047 47.4238 32.8287 47.4985 32.222L48.5485 24.802C48.6045 24.4007 48.8378 24.2 49.2485 24.2H49.9905C50.2145 24.2 50.3778 24.2607 50.4805 24.382C50.5831 24.5033 50.6205 24.6713 50.5925 24.886L49.6125 31.788C49.5751 32.04 49.5985 32.2173 49.6825 32.32C49.7665 32.4133 49.9391 32.46 50.2005 32.46H50.3545C50.6998 32.46 50.8818 32.6653 50.9005 33.076L50.9285 33.328C50.9565 33.7667 50.7791 34.014 50.3965 34.07C50.0511 34.1353 49.7011 34.168 49.3465 34.168ZM53.9692 34.168C53.0919 34.1773 52.4992 33.888 52.1912 33.3C51.8925 32.712 51.8459 31.7507 52.0512 30.416C52.1352 29.8093 52.2519 29.296 52.4012 28.876C52.5599 28.456 52.7372 28.12 52.9332 27.868C53.1292 27.6067 53.3765 27.406 53.6752 27.266C53.9739 27.126 54.2772 27.0327 54.5852 26.986C54.8932 26.93 55.2712 26.902 55.7192 26.902C56.8392 26.902 57.8425 26.9953 58.7292 27.182C59.1399 27.266 59.3172 27.518 59.2612 27.938L58.4912 33.384C58.4259 33.7947 58.1925 34 57.7912 34H57.4412C57.0025 34 56.7879 33.7807 56.7972 33.342V33.118C56.7972 33.034 56.7785 32.978 56.7412 32.95C56.7039 32.922 56.6525 32.9407 56.5872 33.006C56.2419 33.3327 55.8592 33.608 55.4392 33.832C55.0285 34.0467 54.5385 34.1587 53.9692 34.168ZM54.6552 32.488C55.0099 32.4787 55.3412 32.3807 55.6492 32.194C55.9572 31.998 56.2792 31.718 56.6152 31.354C56.6805 31.27 56.7225 31.172 56.7412 31.06L57.0912 28.68C57.1099 28.5213 57.0352 28.4373 56.8672 28.428H56.0552C55.7005 28.428 55.4252 28.4467 55.2292 28.484C55.0425 28.5213 54.8699 28.6147 54.7112 28.764C54.5525 28.904 54.4312 29.1047 54.3472 29.366C54.2725 29.618 54.2025 29.9773 54.1372 30.444C54.0439 31.0133 54.0019 31.452 54.0112 31.76C54.0205 32.068 54.0719 32.2687 54.1652 32.362C54.2585 32.4553 54.4219 32.4973 54.6552 32.488ZM61.177 36.87C60.8037 36.926 60.5797 36.7347 60.505 36.296L60.477 36.142C60.4117 35.7593 60.561 35.5167 60.925 35.414C61.8023 35.1713 62.493 34.798 62.997 34.294C63.0717 34.2193 63.095 34.1493 63.067 34.084C63.039 34.028 62.9737 34 62.871 34H62.675C62.3203 34 62.0217 33.8787 61.779 33.636C61.5363 33.384 61.3823 33.062 61.317 32.67L60.407 27.798C60.379 27.574 60.4163 27.4013 60.519 27.28C60.6217 27.1587 60.785 27.098 61.009 27.098H61.891C62.3017 27.098 62.5257 27.3033 62.563 27.714L63.165 32.348C63.1743 32.516 63.2537 32.6 63.403 32.6C63.6643 32.6 63.837 32.572 63.921 32.516C64.005 32.46 64.0983 32.3107 64.201 32.068C64.789 30.6307 65.2323 29.1747 65.531 27.7C65.615 27.2987 65.8483 27.098 66.231 27.098H67.085C67.309 27.098 67.4723 27.1633 67.575 27.294C67.687 27.4153 67.715 27.588 67.659 27.812C67.4443 28.792 67.1597 29.7627 66.805 30.724C66.4597 31.676 66.0957 32.502 65.713 33.202C65.069 34.3873 64.3877 35.2553 63.669 35.806C62.9597 36.366 62.129 36.7207 61.177 36.87Z" fill="white"/>
</g>
<defs>
<filter id="filter0_d" x="0.538574" y="1.104" width="76.6808" height="25.232" filterUnits="userSpaceOnUse" color-interpolation-filters="sRGB">
<feFlood flood-opacity="0" result="BackgroundImageFix"/>
<feColorMatrix in="SourceAlpha" type="matrix" values="0 0 0 0 0 0 0 0 0 0 0 0 0 0 0 0 0 0 127 0"/>
<feOffset/>
<feGaussianBlur stdDeviation="2"/>
<feColorMatrix type="matrix" values="0 0 0 0 0 0 0 0 0 0 0 0 0 0 0 0 0 0 0.25 0"/>
<feBlend mode="normal" in2="BackgroundImageFix" result="effect1_dropShadow"/>
<feBlend mode="normal" in="SourceGraphic" in2="effect1_dropShadow" result="shape"/>
</filter>
<filter id="filter1_d" x="5.48096" y="20.2" width="66.206" height="20.6795" filterUnits="userSpaceOnUse" color-interpolation-filters="sRGB">
<feFlood flood-opacity="0" result="BackgroundImageFix"/>
<feColorMatrix in="SourceAlpha" type="matrix" values="0 0 0 0 0 0 0 0 0 0 0 0 0 0 0 0 0 0 127 0"/>
<feOffset/>
<feGaussianBlur stdDeviation="2"/>
<feColorMatrix type="matrix" values="0 0 0 0 0 0 0 0 0 0 0 0 0 0 0 0 0 0 0.25 0"/>
<feBlend mode="normal" in2="BackgroundImageFix" result="effect1_dropShadow"/>
<feBlend mode="normal" in="SourceGraphic" in2="effect1_dropShadow" result="shape"/>
</filter>
</defs>
</svg>
