<svg xmlns="http://www.w3.org/2000/svg" viewBox="0 0 600 600" height="600" width="600"><path d="M300 0c-165.686 0-300 134.313-300 300 0 165.686 134.313 300.001 300 300.001 165.686 0 300-134.314 300-300.001-.002-165.686-134.314-300-300-300zm28.677 326.398c-15.537 15.44-40.649 15.362-56.089-.177-15.441-15.537-15.361-40.649.177-56.09 9.345-9.284 22.146-12.914 34.227-10.989l103.617-70.078-70.731 103.174c1.852 12.098-1.857 24.877-11.202 34.161zm226.881-102.63c5.195 15.123 8.198 28.828 10.148 40.177.464 2.846.903 5.54 1.318 8.076.354 2.621.603 5.192.868 7.529l.693 6.528c.192 1.955.235 3.295.345 4.729.364 5.492.555 8.42.555 8.42l-60.999 1.544s.047-2.935.129-8.44c.006-1.315.076-3.051.037-4.466-.047-1.373-.096-2.874-.146-4.494-.049-1.636-.102-3.396-.156-5.272l-.519-6.37c-.787-8.975-2.225-19.9-5.353-32.154-3.057-12.258-7.637-25.892-14.389-40.088-6.712-14.21-15.858-28.807-27.293-42.987-5.805-7.004-12.077-14.021-19.138-20.556-3.42-3.396-7.187-6.468-10.903-9.705-1.889-1.577-3.879-3.045-5.829-4.594-1.939-1.561-3.935-3.066-6.015-4.476-16.301-11.758-34.959-21.579-55.105-28.663-10.062-3.597-20.551-6.236-31.207-8.412-5.357-.924-10.738-1.913-16.187-2.447-2.719-.336-5.443-.69-8.186-.815l-4.113-.283-2.058-.144-1.032-.073-.516-.037-.256-.018c.086-.009-.558-.006.128-.024-5.763-.037-12.045-.333-17.113-.021-5.269.049-10.788.564-16.288 1.031-10.934 1.257-21.836 3.011-32.434 5.788-21.215 5.446-41.44 13.899-59.58 24.727-2.309 1.29-4.539 2.685-6.718 4.144-2.187 1.443-4.418 2.816-6.55 4.301-4.204 3.057-8.476 5.977-12.408 9.244-8.082 6.281-15.416 13.156-22.289 20.127-13.573 14.111-24.88 29.078-33.584 43.978-8.747 14.885-15.145 29.526-19.742 42.889-4.671 13.36-7.377 25.484-9.15 35.533-.424 2.52-.827 4.906-1.207 7.152-.274 2.261-.531 4.381-.769 6.355-.492 3.947-.863 7.319-.982 10.062-.354 5.506-.546 8.436-.546 8.436s-.046-2.935-.128-8.442c-.104-2.762-.006-6.157.162-10.154.08-2.001.166-4.153.253-6.447l.628-7.291c.964-10.272 2.697-22.775 6.352-36.794 3.582-14.019 8.914-29.599 16.734-45.784 7.777-16.197 18.293-32.812 31.433-48.905 6.657-7.959 13.866-15.901 21.941-23.315 3.926-3.835 8.225-7.334 12.491-10.986 2.163-1.785 4.433-3.457 6.666-5.201 2.223-1.761 4.508-3.463 6.882-5.061 18.647-13.293 39.969-24.377 62.963-32.318 11.487-4.027 23.437-6.992 35.576-9.384 6.09-1.032 12.172-2.102 18.613-2.703 6.605-.854 12.075-.995 18.034-1.446l9.747-.132c3.128-.098 6.249.037 9.368.166 6.26.116 12.484.714 18.717 1.287 12.414 1.474 24.78 3.554 36.804 6.761 24.065 6.3 46.951 16.023 67.439 28.382 2.601 1.483 5.124 3.073 7.584 4.732 2.472 1.644 4.981 3.219 7.388 4.912 4.754 3.469 9.555 6.819 13.995 10.525 9.098 7.161 17.368 14.961 25.093 22.887 15.278 16.02 27.959 33.01 37.725 49.896 9.807 16.868 16.961 33.453 22.081 48.579z" fill="#fff"/></svg>