<svg xmlns="http://www.w3.org/2000/svg" viewBox="0 0 50 43" height="43" width="50"><path d="M7.323 36.68l12.225-12.068a4.271 4.216 0 0 0 1.041-4.243l3.784-3.735a16.691 16.477 0 0 0 3.457 2.166 1.777 1.754 0 0 1 .422-.692l6.337-6.256a1.717 1.695 0 0 1 .701-.409 18.409 18.173 0 0 0-8.567-8.408 1.78 1.757 0 0 1-.401.655l-6.337 6.256a1.797 1.774 0 0 1-.658.41 16.668 16.454 0 0 0 2.243 3.509l-3.785 3.735a4.272 4.217 0 0 0-4.304 1.031l-12.225 12.068a4.29 4.235 0 0 0 6.066 5.987z" fill="#fff"/><path d="M28.854 18.701a.965.953 0 0 0-.239.427 2.151 2.124 0 0 0 .691 1.926 2.377 2.346 0 0 0 1.603.734 1.091 1.077 0 0 0 .784-.288l1.96-1.935 2.418-2.387 1.96-1.935a1.171 1.156 0 0 0 .273-1.021 2.481 2.449 0 0 0-.725-1.332 2.377 2.346 0 0 0-1.603-.734 1.349 1.331 0 0 0-.354.048.948.936 0 0 0-.431.24z" fill="#fff"/><path d="M18.594 9.635a1.303 1.286 0 0 0 .401-.061.953.941 0 0 0 .383-.227l6.338-6.26a.955.943 0 0 0 .222-.38 2.112 2.085 0 0 0-.674-1.972 2.377 2.346 0 0 0-1.603-.734 1.091 1.077 0 0 0-.784.288l-2.159 2.132-2.019 1.992-2.157 2.137c-.523.517-.316 1.595.453 2.353a2.378 2.347 0 0 0 1.6.733z" fill="#fff"/><path d="M31.571 36.981c1.039-.099 2.154-.13 3.319-.13.501 0 1.002 0 1.522.008 1.073.009 2.204.009 3.28 0l1.522-.008c1.164 0 2.279.029 3.319.13v-2.447h-12.961z" fill="#fff"/><path d="M41.212 37.692c-.494 0-1.002 0-1.515.008-1.078.008-2.215.008-3.293 0l-1.515-.008c-1.208 0-2.318.024-3.319.117-3.302.308-5.373 1.408-5.511 5.191h23.987c-.141-3.784-2.212-4.883-5.511-5.191-1.004-.093-2.114-.117-3.324-.117z" fill="#fff"/></svg>