<svg xmlns="http://www.w3.org/2000/svg" viewBox="0 0 56 55" height="55" width="56"><path d="M43.777 34.24a2.808 2.82 0 0 0-.742.1l-.941.259-1.386-3.376a5.984 6.01 0 0 0-5.118-3.433h-15.208a5.984 6.01 0 0 0-5.118 3.433l-1.383 3.37-.918-.253a2.808 2.82 0 0 0-.742-.1 2.021 2.03 0 0 0-2.106 2.082 2.621 2.633 0 0 0 2.047 2.495 21.066 21.158 0 0 0-1.148 6.216v7.186a2.782 2.794 0 0 0 2.782 2.781h1.02a2.782 2.794 0 0 0 2.782-2.781v-1.344h20.782v1.344a2.782 2.794 0 0 0 2.782 2.781h1.019a2.782 2.794 0 0 0 2.782-2.781v-7.186a21.077 21.169 0 0 0-1.146-6.21 2.623 2.635 0 0 0 2.07-2.5 2.021 2.03 0 0 0-2.109-2.083zm-28.169 2.803l2.261-5.509a3.596 3.612 0 0 1 3.069-2.059h14.096a3.596 3.612 0 0 1 3.069 2.059l2.261 5.509a1.383 1.389 0 0 1-1.379 2.059h-21.997a1.383 1.389 0 0 1-1.38-2.059zm5.993 8.957a1.113 1.118 0 0 1-1.112 1.113h-4.613a1.113 1.118 0 0 1-1.112-1.113v-1.84a1.113 1.118 0 0 1 1.112-1.113h4.614a1.113 1.118 0 0 1 1.112 1.113zm19.556 0a1.113 1.118 0 0 1-1.112 1.113h-4.613a1.113 1.118 0 0 1-1.112-1.113v-1.84a1.113 1.118 0 0 1 1.112-1.115h4.613a1.113 1.118 0 0 1 1.112 1.113z" fill="#fff"/><path d="M54.767 15.337l-25.528-15.028a2.647 2.659 0 0 0-2.478 0l-25.528 15.028a2.683 2.695 0 0 0-1.232 2.161v35.828a1.668 1.676 0 0 0 1.666 1.674h2.868a1.668 1.676 0 0 0 1.666-1.675v-30.317a.556.559 0 0 1 .555-.558h42.487a.556.559 0 0 1 .555.558v30.317a1.668 1.676 0 0 0 1.666 1.675h2.869a1.668 1.676 0 0 0 1.666-1.674v-35.828a2.683 2.695 0 0 0-1.233-2.161z" fill="#fff"/></svg>