<svg xmlns="http://www.w3.org/2000/svg" viewBox="0 0 47 43" height="43" width="47"><ellipse ry="4.708" rx="4.726" cx="28.679" cy="8.804" fill="#fff"/><path d="M11.645 15.7a11.645 11.6 0 0 0-11.645 11.6h23.29a11.645 11.6 0 0 0-11.645-11.6z" fill="#fff"/><path d="M34.772 19.314a8.562 8.529 0 0 0-12.185-1.037 14.747 14.69 0 0 1 3.255 5.722 13.843 13.79 0 0 1 8.93-4.685z" fill="#fff"/><ellipse ry="6.4" rx="6.425" cx="11.645" cy="6.4" fill="#fff"/><path d="M36.35 21.79a10.646 10.605 0 1 0 10.65 10.605 10.658 10.617 0 0 0-10.65-10.605zm6.585 12.205h-4.979v4.96h-3.212v-4.96h-4.979v-3.2h4.979v-4.96h3.212v4.96h4.979z" fill="#fff"/></svg>