<?xml version="1.0" encoding="utf-8"?>
<!-- Generator: Adobe Illustrator 25.0.0, SVG Export Plug-In . SVG Version: 6.00 Build 0)  -->
<svg version="1.1" id="Ebene_1" xmlns="http://www.w3.org/2000/svg" xmlns:xlink="http://www.w3.org/1999/xlink" x="0px" y="0px"
	 viewBox="0 0 120 120" style="enable-background:new 0 0 120 120;" xml:space="preserve">
<style type="text/css">
	.st0{fill:#FFED0A;}
	.st1{fill:#0F0F0F;}
	.st2{fill:#9B9B9B;}
	.st3{fill:#1C3F00;}
	.st4{font-family:'ArialMT';}
	.st5{font-size:13.1198px;}
	.st6{letter-spacing:2;}
	.st7{letter-spacing:1;}
</style>
<g>
	<path id="b" class="st0" d="M28,0h64c15.5,0,28,12.5,28,28v64c0,15.5-12.5,28-28,28H28c-15.5,0-28-12.5-28-28V28
		C0,12.5,12.5,0,28,0z"/>
</g>
<path d="M86.3,106.4H33.7c-7.1,0-12.9-5.8-12.9-12.9V31.7c0-7.1,5.8-12.9,12.9-12.9h52.5c7.1,0,12.9,5.8,12.9,12.9v61.8
	C99.2,100.6,93.4,106.4,86.3,106.4z"/>
<path d="M31.5,29.8L31.5,29.8c-2,0-3.7-1.6-3.7-3.7v-10c0-2,1.6-3.7,3.7-3.7h0c2,0,3.7,1.6,3.7,3.7v10
	C35.2,28.1,33.6,29.8,31.5,29.8z"/>
<path class="st1" d="M83,47.4H35.5c-3.2,0-5.8-2.6-5.8-5.8V31.3c0-3.2,2.6-5.8,5.8-5.8H83c3.2,0,5.8,2.6,5.8,5.8v10.3
	C88.8,44.8,86.2,47.4,83,47.4z"/>
<path class="st2" d="M45,57.2c1,0,1.9,0.7,1.9,1.6S46,60.4,45,60.4c-1,0-1.9-0.7-1.9-1.6S43.9,57.2,45,57.2z M52.1,57.2
	c1,0,1.9,0.7,1.9,1.6s-0.8,1.6-1.9,1.6c-1,0-1.9-0.7-1.9-1.6S51.1,57.2,52.1,57.2z M59.2,57.2c1,0,1.9,0.7,1.9,1.6s-0.8,1.6-1.9,1.6
	c-1,0-1.9-0.7-1.9-1.6S58.2,57.2,59.2,57.2z M66.4,57.2c1,0,1.9,0.7,1.9,1.6s-0.8,1.6-1.9,1.6c-1,0-1.9-0.7-1.9-1.6
	S65.3,57.2,66.4,57.2z M73.5,57.2c1,0,1.9,0.7,1.9,1.6s-0.8,1.6-1.9,1.6s-1.9-0.7-1.9-1.6S72.5,57.2,73.5,57.2z M37.8,63.3
	c1,0,1.9,0.7,1.9,1.6c0,0.9-0.8,1.6-1.9,1.6S36,65.8,36,65C36,64.1,36.8,63.3,37.8,63.3z M45,63.3c1,0,1.9,0.7,1.9,1.6
	c0,0.9-0.8,1.6-1.9,1.6c-1,0-1.9-0.7-1.9-1.6C43.1,64.1,43.9,63.3,45,63.3z M52.1,63.3c1,0,1.9,0.7,1.9,1.6c0,0.9-0.8,1.6-1.9,1.6
	c-1,0-1.9-0.7-1.9-1.6C50.2,64.1,51.1,63.3,52.1,63.3z M59.2,63.3c1,0,1.9,0.7,1.9,1.6c0,0.9-0.8,1.6-1.9,1.6c-1,0-1.9-0.7-1.9-1.6
	C57.4,64.1,58.2,63.3,59.2,63.3z M66.4,63.3c1,0,1.9,0.7,1.9,1.6c0,0.9-0.8,1.6-1.9,1.6c-1,0-1.9-0.7-1.9-1.6
	C64.5,64.1,65.3,63.3,66.4,63.3z M73.5,63.3c1,0,1.9,0.7,1.9,1.6c0,0.9-0.8,1.6-1.9,1.6s-1.9-0.7-1.9-1.6
	C71.6,64.1,72.5,63.3,73.5,63.3z M80.7,63.3c1,0,1.9,0.7,1.9,1.6c0,0.9-0.8,1.6-1.9,1.6c-1,0-1.9-0.7-1.9-1.6
	C78.8,64.1,79.6,63.3,80.7,63.3z M37.8,69.5c1,0,1.9,0.7,1.9,1.6c0,0.9-0.8,1.6-1.9,1.6S36,72,36,71.1C36,70.2,36.8,69.5,37.8,69.5z
	 M45,69.5c1,0,1.9,0.7,1.9,1.6c0,0.9-0.8,1.6-1.9,1.6c-1,0-1.9-0.7-1.9-1.6C43.1,70.2,43.9,69.5,45,69.5z M52.1,69.5
	c1,0,1.9,0.7,1.9,1.6c0,0.9-0.8,1.6-1.9,1.6c-1,0-1.9-0.7-1.9-1.6C50.2,70.2,51.1,69.5,52.1,69.5z M59.2,69.5c1,0,1.9,0.7,1.9,1.6
	c0,0.9-0.8,1.6-1.9,1.6c-1,0-1.9-0.7-1.9-1.6C57.4,70.2,58.2,69.5,59.2,69.5z M66.4,69.5c1,0,1.9,0.7,1.9,1.6c0,0.9-0.8,1.6-1.9,1.6
	c-1,0-1.9-0.7-1.9-1.6C64.5,70.2,65.3,69.5,66.4,69.5z M73.5,69.5c1,0,1.9,0.7,1.9,1.6c0,0.9-0.8,1.6-1.9,1.6s-1.9-0.7-1.9-1.6
	C71.6,70.2,72.5,69.5,73.5,69.5z M80.7,69.5c1,0,1.9,0.7,1.9,1.6c0,0.9-0.8,1.6-1.9,1.6c-1,0-1.9-0.7-1.9-1.6
	C78.8,70.2,79.6,69.5,80.7,69.5z M37.8,75.6c1,0,1.9,0.7,1.9,1.6c0,0.9-0.8,1.6-1.9,1.6S36,78.1,36,77.2
	C36,76.3,36.8,75.6,37.8,75.6z M45,75.6c1,0,1.9,0.7,1.9,1.6c0,0.9-0.8,1.6-1.9,1.6c-1,0-1.9-0.7-1.9-1.6
	C43.1,76.3,43.9,75.6,45,75.6z M52.1,75.6c1,0,1.9,0.7,1.9,1.6c0,0.9-0.8,1.6-1.9,1.6c-1,0-1.9-0.7-1.9-1.6
	C50.2,76.3,51.1,75.6,52.1,75.6z M59.2,75.6c1,0,1.9,0.7,1.9,1.6c0,0.9-0.8,1.6-1.9,1.6c-1,0-1.9-0.7-1.9-1.6
	C57.4,76.3,58.2,75.6,59.2,75.6z M66.4,75.6c1,0,1.9,0.7,1.9,1.6c0,0.9-0.8,1.6-1.9,1.6c-1,0-1.9-0.7-1.9-1.6
	C64.5,76.3,65.3,75.6,66.4,75.6z M73.5,75.6c1,0,1.9,0.7,1.9,1.6c0,0.9-0.8,1.6-1.9,1.6s-1.9-0.7-1.9-1.6
	C71.6,76.3,72.5,75.6,73.5,75.6z M80.7,75.6c1,0,1.9,0.7,1.9,1.6c0,0.9-0.8,1.6-1.9,1.6c-1,0-1.9-0.7-1.9-1.6
	C78.8,76.3,79.6,75.6,80.7,75.6z M37.8,81.7c1,0,1.9,0.7,1.9,1.6c0,0.9-0.8,1.6-1.9,1.6S36,84.2,36,83.3
	C36,82.5,36.8,81.7,37.8,81.7z M45,81.7c1,0,1.9,0.7,1.9,1.6c0,0.9-0.8,1.6-1.9,1.6c-1,0-1.9-0.7-1.9-1.6
	C43.1,82.5,43.9,81.7,45,81.7z M52.1,81.7c1,0,1.9,0.7,1.9,1.6c0,0.9-0.8,1.6-1.9,1.6c-1,0-1.9-0.7-1.9-1.6
	C50.2,82.5,51.1,81.7,52.1,81.7z M59.2,81.7c1,0,1.9,0.7,1.9,1.6c0,0.9-0.8,1.6-1.9,1.6c-1,0-1.9-0.7-1.9-1.6
	C57.4,82.5,58.2,81.7,59.2,81.7z M66.4,81.7c1,0,1.9,0.7,1.9,1.6c0,0.9-0.8,1.6-1.9,1.6c-1,0-1.9-0.7-1.9-1.6
	C64.5,82.5,65.3,81.7,66.4,81.7z M73.5,81.7c1,0,1.9,0.7,1.9,1.6c0,0.9-0.8,1.6-1.9,1.6s-1.9-0.7-1.9-1.6
	C71.6,82.5,72.5,81.7,73.5,81.7z M80.7,81.7c1,0,1.9,0.7,1.9,1.6c0,0.9-0.8,1.6-1.9,1.6c-1,0-1.9-0.7-1.9-1.6
	C78.8,82.5,79.6,81.7,80.7,81.7z M45,87.9c1,0,1.9,0.7,1.9,1.6c0,0.9-0.8,1.6-1.9,1.6c-1,0-1.9-0.7-1.9-1.6
	C43.1,88.6,43.9,87.9,45,87.9z M52.1,87.9c1,0,1.9,0.7,1.9,1.6c0,0.9-0.8,1.6-1.9,1.6c-1,0-1.9-0.7-1.9-1.6
	C50.2,88.6,51.1,87.9,52.1,87.9z M59.2,87.9c1,0,1.9,0.7,1.9,1.6c0,0.9-0.8,1.6-1.9,1.6c-1,0-1.9-0.7-1.9-1.6
	C57.4,88.6,58.2,87.9,59.2,87.9z M66.4,87.9c1,0,1.9,0.7,1.9,1.6c0,0.9-0.8,1.6-1.9,1.6c-1,0-1.9-0.7-1.9-1.6
	C64.5,88.6,65.3,87.9,66.4,87.9z M73.5,87.9c1,0,1.9,0.7,1.9,1.6c0,0.9-0.8,1.6-1.9,1.6s-1.9-0.7-1.9-1.6
	C71.6,88.6,72.5,87.9,73.5,87.9z M52.1,94c1,0,1.9,0.7,1.9,1.6c0,0.9-0.8,1.6-1.9,1.6c-1,0-1.9-0.7-1.9-1.6
	C50.2,94.7,51.1,94,52.1,94z M59.2,94c1,0,1.9,0.7,1.9,1.6c0,0.9-0.8,1.6-1.9,1.6c-1,0-1.9-0.7-1.9-1.6C57.4,94.7,58.2,94,59.2,94z
	 M66.4,94c1,0,1.9,0.7,1.9,1.6c0,0.9-0.8,1.6-1.9,1.6c-1,0-1.9-0.7-1.9-1.6C64.5,94.7,65.3,94,66.4,94z"/>
<text transform="matrix(0.9988 0 0 1 42.2215 40.8895)" class="st3 st4 st5">0</text>
<text transform="matrix(0.9988 0 0 1 48.9935 40.8895)" class="st3 st4 st5 st6">1.</text>
<text transform="matrix(0.9988 0 0 1 59.3587 40.8895)" class="st3 st4 st5 st7">87</text>
</svg>
