<svg id="Ebene_1" data-name="Ebene 1" xmlns="http://www.w3.org/2000/svg" viewBox="0 0 56.69 56.69"><defs><style>.cls-1{fill:#8e8e93;}.cls-2{fill:#fff;}</style></defs><g id="General_Settings_Icon" data-name="General Settings Icon"><rect class="cls-1" x="0.69" y="0.69" width="55.32" height="55.32" rx="13.35"/><path class="cls-2" d="M49.33,29.31V27.39l-4.14-.7a15.85,15.85,0,0,0-.47-2.58L48.39,22l-.65-1.81L43.58,21a17.3,17.3,0,0,0-1.3-2.25L45,15.5,43.81,14l-3.68,2.19a16.32,16.32,0,0,0-2-1.64l1.5-4.05L38,9.56l-2.74,3.35a17.26,17.26,0,0,0-2.38-.86l0-4.35-1.88-.34-1.44,4.12c-.42,0-.84-.06-1.26-.06s-.85,0-1.26.06L25.64,7.36l-1.88.34,0,4.35a17.26,17.26,0,0,0-2.38.86L18.68,9.56l-1.65,1,1.5,4.05a17.13,17.13,0,0,0-2,1.64L12.89,14,11.66,15.5l2.75,3.24A17.3,17.3,0,0,0,13.11,21L9,20.21,8.3,22,12,24.11a18.33,18.33,0,0,0-.47,2.58l-4.14.7v1.92L11.5,30A18.07,18.07,0,0,0,12,32.58L8.3,34.67,9,36.48l4.16-.78A17.3,17.3,0,0,0,14.41,38L11.66,41.2l1.23,1.47,3.67-2.18a18.22,18.22,0,0,0,2,1.64l-1.5,4,1.65,1,2.74-3.35a16,16,0,0,0,2.38.86l0,4.36,1.88.33,1.45-4.12c.41,0,.83.07,1.26.07s.84,0,1.26-.07l1.44,4.12L32.93,49l0-4.36a16,16,0,0,0,2.38-.86L38,47.13l1.65-1-1.5-4a17.3,17.3,0,0,0,2-1.64l3.68,2.18L45,41.2,42.28,38a17.3,17.3,0,0,0,1.3-2.25l4.16.78.65-1.81-3.67-2.09A15.65,15.65,0,0,0,45.19,30ZM18.45,38a13.81,13.81,0,0,1,.36-19.65,1.93,1.93,0,0,1,3,.46l5.07,8.78a1.93,1.93,0,0,1-.07,2l-5.35,8.07A1.94,1.94,0,0,1,18.45,38Zm23.3-6.29a13.81,13.81,0,0,1-13.4,10.48,13.64,13.64,0,0,1-4.21-.66,1.93,1.93,0,0,1-1-2.9l6.17-9.32H39.86A2,2,0,0,1,41.75,31.7Zm-1.89-4.31H29L23.5,17.87A1.93,1.93,0,0,1,24.62,15a13.44,13.44,0,0,1,3.73-.52A13.81,13.81,0,0,1,41.75,25,2,2,0,0,1,39.86,27.39Z"/></g></svg>