<svg id="Ebene_1" data-name="Ebene 1" xmlns="http://www.w3.org/2000/svg" viewBox="0 0 56.69 56.69"><defs><style>.cls-1{fill:#e83659;}.cls-2,.cls-3{fill:#fff;}.cls-3{stroke:#fff;stroke-miterlimit:10;stroke-width:0.28px;}</style></defs><rect class="cls-1" x="0.56" y="0.56" width="55.56" height="55.56" rx="13.41"/><polygon class="cls-2" points="26.78 16.23 19.31 22.41 11.32 22.41 11.32 27.57 11.32 27.57 11.32 27.57 11.32 32.72 18.93 32.72 26.78 38.9 26.78 16.23"/><path class="cls-3" d="M41.72,12.3a.87.87,0,0,0-.17,1.25,22.8,22.8,0,0,1,0,28.47.87.87,0,0,0,.17,1.25h0A1,1,0,0,0,43,43.12a24.51,24.51,0,0,0,0-30.67,1,1,0,0,0-1.29-.16Z"/><path class="cls-3" d="M42.87,27.78a15.41,15.41,0,0,0-4.8-11.19,1,1,0,0,0-1.19-.06l0,0a.85.85,0,0,0-.1,1.32,13.71,13.71,0,0,1,0,19.83.85.85,0,0,0,.1,1.32l0,0A1,1,0,0,0,38.07,39,15.42,15.42,0,0,0,42.87,27.78Z"/><path class="cls-3" d="M32.32,20.47l0,0a.85.85,0,0,0-.15,1.26,9.25,9.25,0,0,1,0,12.07.85.85,0,0,0,.15,1.26l0,0A1,1,0,0,0,33.59,35a10.94,10.94,0,0,0,0-14.35A1,1,0,0,0,32.32,20.47Z"/></svg>