<svg id="Ebene_1" data-name="Ebene 1" xmlns="http://www.w3.org/2000/svg" viewBox="0 0 56.69 56.69"><defs><style>.cls-1{fill:#34aadd;}.cls-2{fill:#fff;}</style></defs><rect class="cls-1" x="0.69" y="0.69" width="55.32" height="55.32" rx="13.35"/><circle class="cls-1" cx="28.35" cy="28.35" r="2.86"/><path class="cls-2" d="M49.35,28.35a7.35,7.35,0,0,0-4.58-6.81,7.34,7.34,0,0,0-9.62-9.62,7.35,7.35,0,0,0-13.61,0,7.34,7.34,0,0,0-9.62,9.62,7.35,7.35,0,0,0,0,13.61,7.34,7.34,0,0,0,9.62,9.62,7.35,7.35,0,0,0,13.61,0,7.34,7.34,0,0,0,9.62-9.62A7.34,7.34,0,0,0,49.35,28.35ZM41.9,14.79A5.51,5.51,0,0,1,43,21.06,7.46,7.46,0,0,0,42,21H35.7V14.69a7.45,7.45,0,0,0-.07-.95A5.51,5.51,0,0,1,41.9,14.79ZM37.72,27.3l-5.17-.79,2.62-3.41h6.49Zm-2.49,6.3-2.68-3.15,5.17-1.05,3.94,4.2Zm-5.57,4.12.79-5.17,3.15,2.62v6.49ZM21.52,33.6H15L19,29.4l5.18.78Zm0-10.5,2.63,3.41L19,27.3,15,23.1ZM27,19l-.78,5.18L23.1,21.52V15ZM23.1,35.17l3.15-2.62L27,37.72,23.1,41.66Zm2.1-6.82a3.15,3.15,0,1,1,3.15,3.15A3.15,3.15,0,0,1,25.2,28.35Zm8.4-6.83-3.15,2.63L29.66,19,33.6,15ZM28.35,9.18a5.5,5.5,0,0,1,5.17,3.69c-.24.19-.49.4-.72.62L28.35,18h0l-4.46-4.46a8.42,8.42,0,0,0-.72-.62A5.51,5.51,0,0,1,28.35,9.18ZM14.79,14.79a5.51,5.51,0,0,1,6.27-1,7.46,7.46,0,0,0-.06.95V21H14.69a7.46,7.46,0,0,0-.95.06A5.51,5.51,0,0,1,14.79,14.79ZM9.18,28.35a5.51,5.51,0,0,1,3.69-5.18,8.42,8.42,0,0,0,.62.72L18,28.35h0L13.49,32.8a8.42,8.42,0,0,0-.62.72A5.5,5.5,0,0,1,9.18,28.35ZM14.79,41.9a5.51,5.51,0,0,1-1-6.27,7.45,7.45,0,0,0,.95.07H21V42a7.46,7.46,0,0,0,.06,1A5.51,5.51,0,0,1,14.79,41.9Zm13.56,5.61a5.51,5.51,0,0,1-5.18-3.69,7,7,0,0,0,.72-.62l4.46-4.46h0L32.8,43.2a8.17,8.17,0,0,0,.72.62A5.5,5.5,0,0,1,28.35,47.51ZM41.9,41.9A5.51,5.51,0,0,1,35.63,43a7.45,7.45,0,0,0,.07-1V35.7H42a7.45,7.45,0,0,0,1-.07A5.51,5.51,0,0,1,41.9,41.9Zm1.92-8.38a7,7,0,0,0-.62-.72l-4.46-4.45h0l4.46-4.46a7,7,0,0,0,.62-.72,5.47,5.47,0,0,1,0,10.35Z"/></svg>