<svg id="Ebene_3" data-name="Ebene 3" xmlns="http://www.w3.org/2000/svg" viewBox="0 0 703.87 951.71">
    <defs>
        <style>
            .cls-1 {
            fill: #fefefe;
            }

            .cls-2 {
            fill: #fe7501;
            }

            .cls-3 {
            fill: #ffffff;
            }
        </style>
    </defs>
    <g id="Layer_1" data-name="Layer 1">
        <path class="cls-1" d="M159.33,706.29c.12-50.22,17.28-94.25,47.54-133.26,20.21-26,42-50.84,63-76.31,23.7-28.83,44.35-59.53,57.66-94.72,9.59-25.37,13.51-51.75,14.62-78.67a83.48,83.48,0,0,1,.73-8.95c1-6.46,3.88-8.94,9.93-8.83,5.76.1,8.74,2.51,9.39,8.82,1.32,12.91,1.83,25.91,3.37,38.8,4.07,34,16.63,64.92,34.19,94.05,17.72,29.4,40,55.31,62.24,81.2,17.71,20.6,35.33,41.25,49.94,64.27,23.65,37.27,34.34,77.88,32.68,122-1.48,39.45-11.4,76.16-35.48,107.83-30.72,40.42-69.41,69.59-120.8,77.84-62.6,10-118.51-3.8-165.77-48.08-29.88-28-50.25-61.1-57.85-101.44C161.92,736.18,161.06,721.15,159.33,706.29Z" transform="translate(-0.47 -4.24)" />
        <path class="cls-2" d="M704.34,252.49V956H.48V252.49Zm-545,453.8c1.73,14.86,2.59,29.89,5.36,44.55,7.6,40.34,28,73.46,57.85,101.44,47.26,44.28,103.17,58.13,165.77,48.08,51.39-8.25,90.08-37.42,120.8-77.84,24.08-31.67,34-68.38,35.48-107.83,1.66-44.12-9-84.73-32.68-122-14.61-23-32.23-43.67-49.94-64.27-22.28-25.89-44.52-51.8-62.24-81.2-17.56-29.13-30.12-60.08-34.19-94.05-1.54-12.89-2.05-25.89-3.37-38.8-.65-6.31-3.63-8.72-9.39-8.82-6-.11-8.94,2.37-9.93,8.83a83.48,83.48,0,0,0-.73,8.95c-1.11,26.92-5,53.3-14.62,78.67-13.31,35.19-34,65.89-57.66,94.72-20.95,25.47-42.76,50.27-63,76.31C176.61,612,159.45,656.07,159.33,706.29Z" transform="translate(-0.47 -4.24)" />
    </g>
    <g id="Ebene_2" data-name="Ebene 2">
        <path class="cls-3" d="M.47,213V8.8a10,10,0,0,1,2-.45c37.64.13,75.3-.16,112.94.7C126.58,9.3,138,11.67,148.67,15c22,6.86,34.46,22.34,36.78,45.54a79.74,79.74,0,0,1-4,35.45c-6.7,18.57-20.35,29.05-39.4,33-2.12.43-4.26.78-7.12,1.29L181,213.31c-10.72,0-20.5.13-30.26-.15-1.29,0-2.94-1.85-3.72-3.23q-21.06-37.71-41.87-75.56c-1.63-3-3.34-4.23-6.88-4.2-22.8.18-45.61.09-69,.09V213Zm29-175.83v64.25c1.16.07,2,.16,2.79.16,27.31,0,54.62.12,81.93-.06A112.57,112.57,0,0,0,133,99.83c11.09-2,19.39-7.73,22.59-19.2C161,61.2,153,46.12,133.83,40c-4.24-1.36-8.75-2.62-13.14-2.66C90.4,37.06,60.1,37.17,29.44,37.17Z" transform="translate(-0.47 -4.24)" />
        <path class="cls-3" d="M671,8.5h28.7V213.31c-8.92,0-17.86.13-26.78-.14-1.43,0-3.08-1.73-4.14-3Q609.56,135.84,550.46,61.48c-.89-1.11-1.83-2.2-3.5-4.2V212.92H518.4V8.35c8.87,0,17.83-.15,26.77.14,1.4,0,3,1.81,4.08,3.15Q594.7,69.39,640,127.22L671,166.63Z" transform="translate(-0.47 -4.24)" />
        <path class="cls-3" d="M342.11,218c-49.83-.32-91.66-30.22-105.32-75.61C216.91,76.34,261.3,10.66,330,4.8c41.27-3.51,76.38,9.16,101.38,43C476.5,108.9,445.72,202.1,361.48,216,355.09,217.1,348.57,217.37,342.11,218Zm.15-185.27c-3.15.18-6.35.12-9.46.6a120.11,120.11,0,0,0-13.68,2.78c-39.83,11-65.2,51.68-56.48,90.39,9.82,43.54,55.14,71,99,60,34-8.52,59.62-37.91,61.44-70.46C425.58,71.07,388.55,32.93,342.26,32.74Z" transform="translate(-0.47 -4.24)" />
    </g>
</svg>
