<svg width="10" height="14" xmlns="http://www.w3.org/2000/svg">
 <metadata id="metadata12">image/svg+xml</metadata>

 <g>
  <title>background</title>
  <rect fill="none" id="canvas_background" height="402" width="582" y="-1" x="-1"/>
 </g>
 <g>
  <title>Layer 1</title>
  <path fill="#008df0" stroke-width="1.005828" id="path2" d="m9.944618,5.49062a0.62619,0.61904 0 0 1 -0.56853,0.34202l-2.49971,0l0,7.58354a0.60697,0.60004 0 0 1 -0.62518,0.58304l-2.50275,0a0.60697,0.60004 0 0 1 -0.62518,-0.58304l0,-7.58354l-2.49971,0a0.62822,0.62104 0 0 1 -0.56853,-0.34202a0.56347,0.55704 0 0 1 0.10116,-0.62504l4.37626,-4.66634a0.64744,0.64005 0 0 1 0.9398,0l4.37323,4.66734a0.56347,0.55704 0 0 1 0.09914,0.62404z"/>
 </g>
</svg>