<svg width="304" height="76" viewBox="0 0 304 76" fill="none" xmlns="http://www.w3.org/2000/svg">
<rect width="5.036" height="27.1935" rx="1" transform="matrix(0.991571 0.130633 -0.0256627 0.99981 1.39062 9.53137)" fill="url(#paint0_linear)"/>
<rect width="5.036" height="27.1935" rx="1" transform="matrix(0.991571 0.130633 -0.0256627 0.99981 8.88135 10.5168)" fill="url(#paint1_linear)"/>
<rect width="5.036" height="27.1935" rx="1" transform="matrix(0.991571 0.130633 -0.0256627 0.99981 16.3711 11.5037)" fill="url(#paint2_linear)"/>
<rect width="5.036" height="27.1935" rx="1" transform="matrix(0.991571 0.130633 -0.0256627 0.99981 23.8616 12.4905)" fill="url(#paint3_linear)"/>
<rect width="5.036" height="27.1935" rx="1" transform="matrix(0.991571 0.130633 -0.0256627 0.99981 31.3521 13.4773)" fill="url(#paint4_linear)"/>
<rect width="5.036" height="27.1935" rx="1" transform="matrix(0.991571 0.130633 -0.0256627 0.99981 38.8425 14.4641)" fill="url(#paint5_linear)"/>
<rect width="5.036" height="27.1935" rx="1" transform="matrix(0.991571 0.130633 -0.0256627 0.99981 46.3325 15.451)" fill="url(#paint6_linear)"/>
<rect width="5.036" height="27.1935" rx="1" transform="matrix(0.991571 0.130633 -0.0256627 0.99981 53.8232 16.4377)" fill="url(#paint7_linear)"/>
<rect width="5.036" height="27.1935" rx="1" transform="matrix(0.991571 0.130633 -0.0256627 0.99981 61.3135 17.4244)" fill="url(#paint8_linear)"/>
<rect width="5.036" height="27.1935" rx="1" transform="matrix(0.991571 0.130633 -0.0256627 0.99981 68.8037 18.4114)" fill="url(#paint9_linear)"/>
<rect width="5.036" height="27.1935" rx="1" transform="matrix(0.991571 0.130633 -0.0256627 0.99981 76.2937 19.3982)" fill="url(#paint10_linear)"/>
<rect width="5.036" height="27.1935" rx="1" transform="matrix(0.991571 0.130633 -0.0256627 0.99981 83.7844 20.3849)" fill="url(#paint11_linear)"/>
<rect width="5.036" height="27.1935" rx="1" transform="matrix(0.991571 0.130633 -0.0256627 0.99981 91.2747 21.3718)" fill="url(#paint12_linear)"/>
<rect width="5.036" height="27.1935" rx="1" transform="matrix(0.991571 0.130633 -0.0256627 0.99981 98.7651 22.3585)" fill="url(#paint13_linear)"/>
<rect width="5.036" height="27.1935" rx="1" transform="matrix(0.991571 0.130633 -0.0256627 0.99981 106.255 23.3453)" fill="url(#paint14_linear)"/>
<rect width="5.036" height="27.1935" rx="1" transform="matrix(0.991571 0.130633 -0.0256627 0.99981 113.746 24.332)" fill="url(#paint15_linear)"/>
<rect width="5.036" height="27.1935" rx="1" transform="matrix(0.991571 0.130633 -0.0256627 0.99981 121.236 25.3188)" fill="url(#paint16_linear)"/>
<rect width="5.036" height="27.1935" rx="1" transform="matrix(0.991571 0.130633 -0.0256627 0.99981 128.727 26.3057)" fill="url(#paint17_linear)"/>
<rect width="5.036" height="27.1935" rx="1" transform="matrix(0.991571 0.130633 -0.0256627 0.99981 136.217 27.2924)" fill="url(#paint18_linear)"/>
<rect width="5.036" height="27.1935" rx="1" transform="matrix(0.991571 0.130633 -0.0256627 0.99981 143.707 28.2792)" fill="url(#paint19_linear)"/>
<rect width="5.036" height="27.1935" rx="1" transform="matrix(0.991571 0.130633 -0.0256627 0.99981 151.198 29.266)" fill="url(#paint20_linear)"/>
<rect width="5.036" height="27.1935" rx="1" transform="matrix(0.991571 0.130633 -0.0256627 0.99981 158.698 30.0013)" fill="url(#paint21_linear)"/>
<rect width="5.036" height="27.1935" rx="1" transform="matrix(0.991571 0.130633 -0.0256627 0.99981 166.188 30.9869)" fill="url(#paint22_linear)"/>
<rect width="5.036" height="27.1935" rx="1" transform="matrix(0.991571 0.130633 -0.0256627 0.99981 173.678 31.9737)" fill="url(#paint23_linear)"/>
<rect width="5.036" height="27.1935" rx="1" transform="matrix(0.991571 0.130633 -0.0256627 0.99981 181.169 32.9605)" fill="url(#paint24_linear)"/>
<rect width="5.036" height="27.1935" rx="1" transform="matrix(0.991571 0.130633 -0.0256627 0.99981 188.659 33.9473)" fill="url(#paint25_linear)"/>
<rect width="5.036" height="27.1935" rx="1" transform="matrix(0.991571 0.130633 -0.0256627 0.99981 196.149 34.9341)" fill="url(#paint26_linear)"/>
<rect width="5.036" height="27.1935" rx="1" transform="matrix(0.991571 0.130633 -0.0256627 0.99981 203.639 35.9211)" fill="url(#paint27_linear)"/>
<rect width="5.036" height="27.1935" rx="1" transform="matrix(0.991571 0.130633 -0.0256627 0.99981 211.13 36.9077)" fill="url(#paint28_linear)"/>
<rect width="5.036" height="27.1935" rx="1" transform="matrix(0.991571 0.130633 -0.0256627 0.99981 218.62 37.8944)" fill="url(#paint29_linear)"/>
<rect width="5.036" height="27.1935" rx="1" transform="matrix(0.991571 0.130633 -0.0256627 0.99981 226.111 38.8813)" fill="url(#paint30_linear)"/>
<rect width="5.036" height="27.1935" rx="1" transform="matrix(0.991571 0.130633 -0.0256627 0.99981 233.601 39.8682)" fill="url(#paint31_linear)"/>
<rect width="5.036" height="27.1935" rx="1" transform="matrix(0.991571 0.130633 -0.0256627 0.99981 241.091 40.8549)" fill="url(#paint32_linear)"/>
<rect width="5.036" height="27.1935" rx="1" transform="matrix(0.991571 0.130633 -0.0256627 0.99981 248.582 41.8417)" fill="url(#paint33_linear)"/>
<rect width="5.036" height="27.1935" rx="1" transform="matrix(0.991571 0.130633 -0.0256627 0.99981 256.072 42.8286)" fill="url(#paint34_linear)"/>
<rect width="5.036" height="27.1935" rx="1" transform="matrix(0.991571 0.130633 -0.0256627 0.99981 263.562 43.8153)" fill="url(#paint35_linear)"/>
<rect width="5.036" height="27.1935" rx="1" transform="matrix(0.991571 0.130633 -0.0256627 0.99981 271.053 44.8021)" fill="url(#paint36_linear)"/>
<rect width="5.036" height="27.1935" rx="1" transform="matrix(0.991571 0.130633 -0.0256627 0.99981 278.543 45.7889)" fill="url(#paint37_linear)"/>
<rect width="5.036" height="27.1935" rx="1" transform="matrix(0.991571 0.130633 -0.0256627 0.99981 286.034 46.7757)" fill="url(#paint38_linear)"/>
<rect width="5.036" height="27.1935" rx="1" transform="matrix(0.991571 0.130633 -0.0256627 0.99981 293.523 47.7625)" fill="url(#paint39_linear)"/>
<path d="M1.5166 4.62128L295.972 43.4138" stroke="white" stroke-width="2"/>
<g filter="url(#filter0_d)">
<path d="M299.538 43.1C299.484 45.1855 298.043 46.6921 296.32 46.465C294.596 46.2379 293.242 44.3632 293.296 42.2777C293.349 40.1922 294.79 38.6856 296.514 38.9127C298.237 39.1398 299.591 41.0145 299.538 43.1Z" fill="#FFCD1E"/>
</g>
<defs>
<filter id="filter0_d" x="289.294" y="34.8901" width="14.245" height="15.5976" filterUnits="userSpaceOnUse" color-interpolation-filters="sRGB">
<feFlood flood-opacity="0" result="BackgroundImageFix"/>
<feColorMatrix in="SourceAlpha" type="matrix" values="0 0 0 0 0 0 0 0 0 0 0 0 0 0 0 0 0 0 127 0"/>
<feOffset/>
<feGaussianBlur stdDeviation="2"/>
<feColorMatrix type="matrix" values="0 0 0 0 1 0 0 0 0 0.805667 0 0 0 0 0.116667 0 0 0 1 0"/>
<feBlend mode="normal" in2="BackgroundImageFix" result="effect1_dropShadow"/>
<feBlend mode="normal" in="SourceGraphic" in2="effect1_dropShadow" result="shape"/>
</filter>
<linearGradient id="paint0_linear" x1="2.518" y1="0" x2="2.518" y2="27.1935" gradientUnits="userSpaceOnUse">
<stop stop-color="#FFCD1E"/>
<stop offset="1" stop-color="#FFCD1E"/>
</linearGradient>
<linearGradient id="paint1_linear" x1="2.518" y1="0" x2="2.518" y2="27.1935" gradientUnits="userSpaceOnUse">
<stop stop-color="#FFCD1E"/>
<stop offset="1" stop-color="#FFCD1E"/>
</linearGradient>
<linearGradient id="paint2_linear" x1="2.518" y1="0" x2="2.518" y2="27.1935" gradientUnits="userSpaceOnUse">
<stop stop-color="#FFCD1E"/>
<stop offset="1" stop-color="#FFCD1E"/>
</linearGradient>
<linearGradient id="paint3_linear" x1="2.518" y1="0" x2="2.518" y2="27.1935" gradientUnits="userSpaceOnUse">
<stop stop-color="#FFCD1E"/>
<stop offset="1" stop-color="#FFCD1E"/>
</linearGradient>
<linearGradient id="paint4_linear" x1="2.518" y1="0" x2="2.518" y2="27.1935" gradientUnits="userSpaceOnUse">
<stop stop-color="#FFCD1E"/>
<stop offset="1" stop-color="#FFCD1E"/>
</linearGradient>
<linearGradient id="paint5_linear" x1="2.518" y1="0" x2="2.518" y2="27.1935" gradientUnits="userSpaceOnUse">
<stop stop-color="#FFCD1E"/>
<stop offset="1" stop-color="#FFCD1E"/>
</linearGradient>
<linearGradient id="paint6_linear" x1="2.518" y1="0" x2="2.518" y2="27.1935" gradientUnits="userSpaceOnUse">
<stop stop-color="#FFCD1E"/>
<stop offset="1" stop-color="#FFCD1E"/>
</linearGradient>
<linearGradient id="paint7_linear" x1="2.518" y1="0" x2="2.518" y2="27.1935" gradientUnits="userSpaceOnUse">
<stop stop-color="#FFCD1E"/>
<stop offset="1" stop-color="#FFCD1E"/>
</linearGradient>
<linearGradient id="paint8_linear" x1="2.518" y1="0" x2="2.518" y2="27.1935" gradientUnits="userSpaceOnUse">
<stop stop-color="#FFCD1E"/>
<stop offset="1" stop-color="#FFCD1E"/>
</linearGradient>
<linearGradient id="paint9_linear" x1="2.518" y1="0" x2="2.518" y2="27.1935" gradientUnits="userSpaceOnUse">
<stop stop-color="#FFCD1E"/>
<stop offset="1" stop-color="#FFCD1E"/>
</linearGradient>
<linearGradient id="paint10_linear" x1="2.518" y1="0" x2="2.518" y2="27.1935" gradientUnits="userSpaceOnUse">
<stop stop-color="#FFCD1E"/>
<stop offset="1" stop-color="#FFCD1E"/>
</linearGradient>
<linearGradient id="paint11_linear" x1="2.518" y1="0" x2="2.518" y2="27.1935" gradientUnits="userSpaceOnUse">
<stop stop-color="#FFCD1E"/>
<stop offset="1" stop-color="#FFCD1E"/>
</linearGradient>
<linearGradient id="paint12_linear" x1="2.518" y1="0" x2="2.518" y2="27.1935" gradientUnits="userSpaceOnUse">
<stop stop-color="#FFCD1E"/>
<stop offset="1" stop-color="#FFCD1E"/>
</linearGradient>
<linearGradient id="paint13_linear" x1="2.518" y1="0" x2="2.518" y2="27.1935" gradientUnits="userSpaceOnUse">
<stop stop-color="#FFCD1E"/>
<stop offset="1" stop-color="#FFCD1E"/>
</linearGradient>
<linearGradient id="paint14_linear" x1="2.518" y1="0" x2="2.518" y2="27.1935" gradientUnits="userSpaceOnUse">
<stop stop-color="#FFCD1E"/>
<stop offset="1" stop-color="#FFCD1E"/>
</linearGradient>
<linearGradient id="paint15_linear" x1="2.518" y1="0" x2="2.518" y2="27.1935" gradientUnits="userSpaceOnUse">
<stop stop-color="#FFCD1E"/>
<stop offset="1" stop-color="#FFCD1E"/>
</linearGradient>
<linearGradient id="paint16_linear" x1="2.518" y1="0" x2="2.518" y2="27.1935" gradientUnits="userSpaceOnUse">
<stop stop-color="#FFCD1E"/>
<stop offset="1" stop-color="#FFCD1E"/>
</linearGradient>
<linearGradient id="paint17_linear" x1="2.518" y1="0" x2="2.518" y2="27.1935" gradientUnits="userSpaceOnUse">
<stop stop-color="#FFCD1E"/>
<stop offset="1" stop-color="#FFCD1E"/>
</linearGradient>
<linearGradient id="paint18_linear" x1="2.518" y1="0" x2="2.518" y2="27.1935" gradientUnits="userSpaceOnUse">
<stop stop-color="#FFCD1E"/>
<stop offset="1" stop-color="#FFCD1E"/>
</linearGradient>
<linearGradient id="paint19_linear" x1="2.518" y1="0" x2="2.518" y2="27.1935" gradientUnits="userSpaceOnUse">
<stop stop-color="#FFCD1E"/>
<stop offset="1" stop-color="#FFCD1E"/>
</linearGradient>
<linearGradient id="paint20_linear" x1="2.518" y1="0" x2="2.518" y2="27.1935" gradientUnits="userSpaceOnUse">
<stop stop-color="#FFCD1E"/>
<stop offset="1" stop-color="#FFCD1E"/>
</linearGradient>
<linearGradient id="paint21_linear" x1="2.518" y1="0" x2="2.518" y2="27.1935" gradientUnits="userSpaceOnUse">
<stop stop-color="#FFCD1E"/>
<stop offset="1" stop-color="#FFCD1E"/>
</linearGradient>
<linearGradient id="paint22_linear" x1="2.518" y1="0" x2="2.518" y2="27.1935" gradientUnits="userSpaceOnUse">
<stop stop-color="#FFCD1E"/>
<stop offset="1" stop-color="#FFCD1E"/>
</linearGradient>
<linearGradient id="paint23_linear" x1="2.518" y1="0" x2="2.518" y2="27.1935" gradientUnits="userSpaceOnUse">
<stop stop-color="#FFCD1E"/>
<stop offset="1" stop-color="#FFCD1E"/>
</linearGradient>
<linearGradient id="paint24_linear" x1="2.518" y1="0" x2="2.518" y2="27.1935" gradientUnits="userSpaceOnUse">
<stop stop-color="#FFCD1E"/>
<stop offset="1" stop-color="#FFCD1E"/>
</linearGradient>
<linearGradient id="paint25_linear" x1="2.518" y1="0" x2="2.518" y2="27.1935" gradientUnits="userSpaceOnUse">
<stop stop-color="#FFCD1E"/>
<stop offset="1" stop-color="#FFCD1E"/>
</linearGradient>
<linearGradient id="paint26_linear" x1="2.518" y1="0" x2="2.518" y2="27.1935" gradientUnits="userSpaceOnUse">
<stop stop-color="#FFCD1E"/>
<stop offset="1" stop-color="#FFCD1E"/>
</linearGradient>
<linearGradient id="paint27_linear" x1="2.518" y1="0" x2="2.518" y2="27.1935" gradientUnits="userSpaceOnUse">
<stop stop-color="#FFCD1E"/>
<stop offset="1" stop-color="#FFCD1E"/>
</linearGradient>
<linearGradient id="paint28_linear" x1="2.518" y1="0" x2="2.518" y2="27.1935" gradientUnits="userSpaceOnUse">
<stop stop-color="#FFCD1E"/>
<stop offset="1" stop-color="#FFCD1E"/>
</linearGradient>
<linearGradient id="paint29_linear" x1="2.518" y1="0" x2="2.518" y2="27.1935" gradientUnits="userSpaceOnUse">
<stop stop-color="#FFCD1E"/>
<stop offset="1" stop-color="#FFCD1E"/>
</linearGradient>
<linearGradient id="paint30_linear" x1="2.518" y1="0" x2="2.518" y2="27.1935" gradientUnits="userSpaceOnUse">
<stop stop-color="#FFCD1E"/>
<stop offset="1" stop-color="#FFCD1E"/>
</linearGradient>
<linearGradient id="paint31_linear" x1="2.518" y1="0" x2="2.518" y2="27.1935" gradientUnits="userSpaceOnUse">
<stop stop-color="#FFCD1E"/>
<stop offset="1" stop-color="#FFCD1E"/>
</linearGradient>
<linearGradient id="paint32_linear" x1="2.518" y1="0" x2="2.518" y2="27.1935" gradientUnits="userSpaceOnUse">
<stop stop-color="#FFCD1E"/>
<stop offset="1" stop-color="#FFCD1E"/>
</linearGradient>
<linearGradient id="paint33_linear" x1="2.518" y1="0" x2="2.518" y2="27.1935" gradientUnits="userSpaceOnUse">
<stop stop-color="#FFCD1E"/>
<stop offset="1" stop-color="#FFCD1E"/>
</linearGradient>
<linearGradient id="paint34_linear" x1="2.518" y1="0" x2="2.518" y2="27.1935" gradientUnits="userSpaceOnUse">
<stop stop-color="#FFCD1E"/>
<stop offset="1" stop-color="#FFCD1E"/>
</linearGradient>
<linearGradient id="paint35_linear" x1="2.518" y1="0" x2="2.518" y2="27.1935" gradientUnits="userSpaceOnUse">
<stop stop-color="#FFCD1E"/>
<stop offset="1" stop-color="#FFCD1E"/>
</linearGradient>
<linearGradient id="paint36_linear" x1="2.518" y1="0" x2="2.518" y2="27.1935" gradientUnits="userSpaceOnUse">
<stop stop-color="#FFCD1E"/>
<stop offset="1" stop-color="#FFCD1E"/>
</linearGradient>
<linearGradient id="paint37_linear" x1="2.518" y1="0" x2="2.518" y2="27.1935" gradientUnits="userSpaceOnUse">
<stop stop-color="#FFCD1E"/>
<stop offset="1" stop-color="#FFCD1E"/>
</linearGradient>
<linearGradient id="paint38_linear" x1="2.518" y1="0" x2="2.518" y2="27.1935" gradientUnits="userSpaceOnUse">
<stop stop-color="#FFCD1E"/>
<stop offset="1" stop-color="#FFCD1E"/>
</linearGradient>
<linearGradient id="paint39_linear" x1="2.518" y1="0" x2="2.518" y2="27.1935" gradientUnits="userSpaceOnUse">
<stop stop-color="#FFCD1E"/>
<stop offset="1" stop-color="#FFCD1E"/>
</linearGradient>
</defs>
</svg>
