<svg width="512" height="512" xmlns="http://www.w3.org/2000/svg">

 <g>
  <title>background</title>
  <rect fill="none" id="canvas_background" height="402" width="582" y="-1" x="-1"/>
 </g>
 <g>
  <title>Layer 1</title>
  <path id="svg_1" fill="#514d4d" d="m443,420.13281l0,76.80078c0,4.71094 -3.82031,8.53125 -8.53516,8.53125l-358.39843,0c-4.71094,0 -8.53125,-3.82031 -8.53125,-8.53125l0,-76.80078l375.46484,0zm0,0"/>
  <path id="svg_2" fill="#514d4d" d="m417.39844,420.13281l0,76.80078c0.28515,4.37891 -2.9961,8.17969 -7.3711,8.53125l-309.51953,0c-4.3789,-0.35156 -7.66015,-4.15234 -7.375,-8.53125l0,-76.80078l324.26563,0zm0,0"/>
  <path id="svg_3" fill="#514d4d" d="m443,172.66797l0,247.46484l-375.46484,0l0,-247.46484c0,-89.54688 72.58593,-162.13281 162.13281,-162.13281l51.19922,0c89.54297,0 162.13281,72.58593 162.13281,162.13281zm0,0"/>
  <path id="svg_4" fill="#514d4d" d="m417.39844,172.66797l0,247.46484l-324.26563,0l0,-247.46484c0,-89.51563 62.71875,-162.13281 140.02344,-162.13281l44.21875,0c77.30469,0 140.02344,72.61718 140.02344,162.13281zm0,0"/>
  <path id="svg_5" fill="#514d4d" d="m391.80078,198.26563l0,51.19921c0,28.27735 -22.92187,51.20313 -51.19922,51.20313l-25.60156,0c-2.10547,0 -4.19141,0.40625 -6.14453,1.19531c-4.46485,1.73047 -7.99219,5.26172 -9.72656,9.72656c-0.78907,1.95313 -1.19532,4.03907 -1.19532,6.14453l0,8.53125c0,14.14063 -11.46093,25.60157 -25.60156,25.60157l-34.13281,0c-1.11328,0 -2.22656,-0.08594 -3.32813,-0.25782c-6.80468,-0.8164 -12.97656,-4.39843 -17.0664,-9.89843c-3.37891,-4.44141 -5.20703,-9.86328 -5.20313,-15.44532l0,-8.53125c-0.07031,-9.39843 -7.67187,-16.99609 -17.0664,-17.0664l-25.60157,0c-16.9414,0.01562 -32.78906,-8.35547 -42.32422,-22.35938c-3.46484,-5.10937 -5.98046,-10.80468 -7.42578,-16.80859c-0.96484,-3.9375 -1.45312,-7.98047 -1.44922,-12.03516l0,-51.19921c0,-28.27735 22.92188,-51.19922 51.19922,-51.19922l170.66797,0c5.97266,-0.00782 11.89844,1.0625 17.49219,3.15625c6.23828,2.20312 11.95703,5.66015 16.80859,10.15625c9.96485,8.79297 15.98829,21.20703 16.72657,34.47265c0.14453,1.13282 0.20312,2.27344 0.17187,3.41407zm0,0"/>
  <path id="svg_6" d="m229.66797,2c-94.21484,0.10938 -170.55859,76.45313 -170.66797,170.66797l0,324.26562c0,9.42579 7.64063,17.06641 17.06641,17.06641l358.39843,0c9.42579,0 17.07032,-7.64062 17.07032,-17.06641l0,-324.26562c-0.10938,-94.21485 -76.45703,-170.5586 -170.66797,-170.66797l-51.19922,0zm187.73047,494.93359l0,-42.66796c0,-4.71094 -3.82031,-8.53125 -8.53125,-8.53125c-4.71485,0 -8.53516,3.82031 -8.53516,8.53125l0,42.66796l-17.0664,0l0,-42.66796c0,-4.71094 -3.82032,-8.53125 -8.53125,-8.53125c-4.71485,0 -8.53516,3.82031 -8.53516,8.53125l0,42.66796l-17.06641,0l0,-42.66796c0,-4.71094 -3.82031,-8.53125 -8.53125,-8.53125c-4.71484,0 -8.53515,3.82031 -8.53515,8.53125l0,42.66796l-17.06641,0l0,-42.66796c0,-4.71094 -3.82031,-8.53125 -8.53516,-8.53125c-4.71093,0 -8.53125,3.82031 -8.53125,8.53125l0,42.66796l-17.0664,0l0,-42.66796c0,-4.71094 -3.82032,-8.53125 -8.53516,-8.53125c-4.71094,0 -8.53125,3.82031 -8.53125,8.53125l0,42.66796l-17.06641,0l0,-42.66796c0,-4.71094 -3.82031,-8.53125 -8.53515,-8.53125c-4.71094,0 -8.53125,3.82031 -8.53125,8.53125l0,42.66796l-17.06641,0l0,-42.66796c0,-4.71094 -3.82031,-8.53125 -8.53515,-8.53125c-4.71094,0 -8.53125,3.82031 -8.53125,8.53125l0,42.66796l-17.07032,0l0,-42.66796c0,-4.71094 -3.82031,-8.53125 -8.53125,-8.53125c-4.71484,0 -8.53515,3.82031 -8.53515,8.53125l0,42.66796l-17.06641,0l0,-42.66796c0,-4.71094 -3.82031,-8.53125 -8.53125,-8.53125c-4.71484,0 -8.53516,3.82031 -8.53516,8.53125l0,42.66796l-17.0664,0l0,-42.66796c0,-4.71094 -3.82031,-8.53125 -8.53125,-8.53125c-4.71485,0 -8.53516,3.82031 -8.53516,8.53125l0,42.66796l-17.0664,0l0,-68.26562l358.39843,0l0,68.26562l-17.0664,0zm17.0664,-324.26562l0,238.93359l-324.26562,0l0,-42.66797c0,-4.71484 -3.82031,-8.53515 -8.53125,-8.53515c-4.71485,0 -8.53516,3.82031 -8.53516,8.53515l0,42.66797l-17.0664,0l0,-238.93359c0.09765,-84.79297 68.80859,-153.50391 153.60156,-153.60156l51.19922,0c84.78906,0.09765 153.5,68.80859 153.59765,153.60156zm0,0"/>
  <path id="svg_7" d="m115.95313,122.45703c3.1914,0.00391 6.11718,-1.77344 7.58593,-4.60937c20.45703,-39.73828 61.42969,-64.69922 106.12891,-64.64844c4.71094,0 8.53125,-3.82031 8.53125,-8.53125c0,-4.71484 -3.82031,-8.53516 -8.53125,-8.53516c-51.07422,-0.0625 -97.89453,28.44922 -121.27734,73.85547c-2.15235,4.17578 -0.52344,9.3086 3.64453,11.47656c1.20703,0.64454 2.55078,0.98438 3.91797,0.99219zm0,0"/>
  <path id="svg_8" d="m169.93359,138.53516c-32.97265,0.03515 -59.69531,26.75781 -59.73437,59.73047l0,51.19921c0.00781,8.28907 1.75,16.48438 5.12109,24.0586c0.07813,0.21094 0.19532,0.39844 0.28907,0.60547c6,13.14062 16.53906,23.67968 29.67968,29.67968c0.20313,0.09375 0.39063,0.21094 0.60547,0.28907c7.57031,3.35937 15.75781,5.09765 24.03906,5.10156l25.60157,0c4.71093,0 8.53125,3.82031 8.53125,8.53516l0,8.53125c0.04687,3.22265 0.55468,6.42187 1.51172,9.5c0.10156,0.51562 0.26171,1.02343 0.46875,1.50781c4.67578,13.78906 17.59375,23.08203 32.15234,23.125l34.13281,0c9.05469,0 17.73438,-3.59375 24.13672,-9.9961s9.99609,-15.08203 9.99609,-24.13671l0,-8.53125c0,-4.71485 3.82422,-8.53516 8.53516,-8.53516l25.60156,0c32.97266,-0.03516 59.69532,-26.75781 59.73047,-59.73438l0,-51.19922c-0.03515,-32.97265 -26.75781,-59.69531 -59.73047,-59.73046l-170.66797,0zm-42.66796,110.92968l0,-22.0664l71.80078,-71.79688l27.0664,0l-98.40625,98.40625c-0.23437,-1.5039 -0.39062,-3.01953 -0.46093,-4.54297zm42.66796,-93.86328l5,0l-47.66796,47.66407l0,-5c0.02734,-23.55079 19.11718,-42.63672 42.66796,-42.66407zm-36.07031,116.41016l116.40235,-116.41016l27.0664,0l-129.94531,129.9336c-5.47266,-3.42578 -10.09766,-8.05078 -13.52344,-13.52344zm31.57422,19.625l136.02734,-136.03516l27.07032,0l-136.53516,136.53125l-22.06641,0c-1.51953,-0.07031 -3.03515,-0.22265 -4.53906,-0.46094l0.04297,-0.03515zm203.38281,-125.1211l-148.01172,148.00782c-0.85546,-6.81641 -4.42968,-13 -9.91406,-17.14063l140.28516,-140.29687c6.54687,1.69531 12.59375,4.92968 17.64062,9.42968zm-144.90625,169.03516l155.25,-155.20312c2.66797,5.59765 4.07032,11.71484 4.10157,17.91796l0,5l-140.06641,140.06641l-5,0c-5.76953,-0.01172 -11.14453,-2.9375 -14.28516,-7.78125zm48.41797,7.78125l-5,0l22.06641,-22.0664l0,5c0,9.42578 -7.64063,17.0664 -17.06641,17.0664zm68.26953,-51.19922l-22.07031,0l64.73438,-64.73437l0,22.0664c-0.02735,23.55469 -19.11329,42.64063 -42.66407,42.66797zm0,0"/>
 </g>
</svg>