<svg height="512pt" viewBox="-60 0 512 512" width="512pt" xmlns="http://www.w3.org/2000/svg"><path d="m384 418.132812v76.800782c0 4.710937-3.820312 8.53125-8.535156 8.53125h-358.398438c-4.710937 0-8.53125-3.820313-8.53125-8.53125v-76.800782zm0 0" fill="#4527a0"/><path d="m358.398438 418.132812v76.800782c.285156 4.378906-2.996094 8.179687-7.371094 8.53125h-309.519532c-4.378906-.351563-7.660156-4.152344-7.375-8.53125v-76.800782zm0 0" fill="#673ab7"/><path d="m384 170.667969v247.464843h-375.464844v-247.464843c0-89.546875 72.585938-162.132813 162.132813-162.132813h51.199219c89.542968 0 162.132812 72.585938 162.132812 162.132813zm0 0" fill="#283593"/><path d="m358.398438 170.667969v247.464843h-324.265626v-247.464843c0-89.515625 62.71875-162.132813 140.023438-162.132813h44.21875c77.304688 0 140.023438 72.617188 140.023438 162.132813zm0 0" fill="#3f51b5"/><path d="m332.800781 196.265625v51.199219c0 28.277344-22.921875 51.203125-51.199219 51.203125h-25.601562c-2.105469 0-4.191406.40625-6.144531 1.195312-4.464844 1.730469-7.992188 5.261719-9.726563 9.726563-.789062 1.953125-1.195312 4.039062-1.195312 6.144531v8.53125c0 14.140625-11.460938 25.601563-25.601563 25.601563h-34.132812c-1.113281 0-2.226563-.085938-3.328125-.257813-6.804688-.816406-12.976563-4.398437-17.066406-9.898437-3.378907-4.441407-5.207032-9.863282-5.203126-15.445313v-8.53125c-.070312-9.398437-7.671874-16.996094-17.066406-17.066406h-25.601562c-16.941406.015625-32.789063-8.355469-42.324219-22.359375-3.464844-5.109375-5.980469-10.804688-7.425781-16.808594-.964844-3.9375-1.453125-7.980469-1.449219-12.035156v-51.199219c0-28.277344 22.921875-51.199219 51.199219-51.199219h170.667968c5.972657-.007812 11.898438 1.0625 17.492188 3.15625 6.238281 2.203125 11.957031 5.660156 16.808594 10.15625 9.964844 8.792969 15.988281 21.207032 16.726562 34.472656.144532 1.132813.203125 2.273438.171875 3.414063zm0 0" fill="#283593"/><path d="m170.667969 0c-94.214844.109375-170.558594 76.453125-170.667969 170.667969v324.265625c0 9.425781 7.640625 17.066406 17.066406 17.066406h358.398438c9.425781 0 17.070312-7.640625 17.070312-17.066406v-324.265625c-.109375-94.214844-76.457031-170.558594-170.667968-170.667969zm187.730469 494.933594v-42.667969c0-4.710937-3.820313-8.53125-8.53125-8.53125-4.714844 0-8.535157 3.820313-8.535157 8.53125v42.667969h-17.066406v-42.667969c0-4.710937-3.820313-8.53125-8.53125-8.53125-4.714844 0-8.535156 3.820313-8.535156 8.53125v42.667969h-17.066407v-42.667969c0-4.710937-3.820312-8.53125-8.53125-8.53125-4.714843 0-8.535156 3.820313-8.535156 8.53125v42.667969h-17.066406v-42.667969c0-4.710937-3.820312-8.53125-8.535156-8.53125-4.710938 0-8.53125 3.820313-8.53125 8.53125v42.667969h-17.066406v-42.667969c0-4.710937-3.820313-8.53125-8.535157-8.53125-4.710937 0-8.53125 3.820313-8.53125 8.53125v42.667969h-17.066406v-42.667969c0-4.710937-3.820313-8.53125-8.535156-8.53125-4.710938 0-8.53125 3.820313-8.53125 8.53125v42.667969h-17.066407v-42.667969c0-4.710937-3.820312-8.53125-8.535156-8.53125-4.710937 0-8.53125 3.820313-8.53125 8.53125v42.667969h-17.070312v-42.667969c0-4.710937-3.820313-8.53125-8.53125-8.53125-4.714844 0-8.535156 3.820313-8.535156 8.53125v42.667969h-17.066407v-42.667969c0-4.710937-3.820312-8.53125-8.53125-8.53125-4.714843 0-8.535156 3.820313-8.535156 8.53125v42.667969h-17.066406v-42.667969c0-4.710937-3.820313-8.53125-8.53125-8.53125-4.714844 0-8.535157 3.820313-8.535157 8.53125v42.667969h-17.066406v-68.265625h358.398438v68.265625zm17.066406-324.265625v238.933593h-324.265625v-42.667968c0-4.714844-3.820313-8.535156-8.53125-8.535156-4.714844 0-8.535157 3.820312-8.535157 8.535156v42.667968h-17.066406v-238.933593c.097656-84.792969 68.808594-153.503907 153.601563-153.601563h51.199219c84.789062.097656 153.5 68.808594 153.597656 153.601563zm0 0"/><path d="m56.953125 120.457031c3.191406.003907 6.117187-1.773437 7.585937-4.609375 20.457032-39.738281 61.429688-64.699218 106.128907-64.648437 4.710937 0 8.53125-3.820313 8.53125-8.53125 0-4.714844-3.820313-8.535157-8.53125-8.535157-51.074219-.0625-97.894531 28.449219-121.277344 73.855469-2.152344 4.175781-.523437 9.308594 3.644531 11.476563 1.207032.644531 2.550782.984375 3.917969.992187zm0 0"/><path d="m110.933594 136.535156c-32.972656.035156-59.695313 26.757813-59.734375 59.730469v51.199219c.007812 8.289062 1.75 16.484375 5.121093 24.058594.078126.210937.195313.398437.289063.605468 6 13.140625 16.539063 23.679688 29.679687 29.679688.203126.09375.390626.210937.605469.289062 7.570313 3.359375 15.757813 5.097656 24.039063 5.101563h25.601562c4.710938 0 8.53125 3.820312 8.53125 8.535156v8.53125c.046875 3.222656.554688 6.421875 1.511719 9.5.101563.515625.261719 1.023437.46875 1.507813 4.675781 13.789062 17.59375 23.082031 32.152344 23.125h34.132812c9.054688 0 17.734375-3.59375 24.136719-9.996094s9.996094-15.082032 9.996094-24.136719v-8.53125c0-4.714844 3.824218-8.535156 8.535156-8.535156h25.601562c32.972657-.035157 59.695313-26.757813 59.730469-59.734375v-51.199219c-.035156-32.972656-26.757812-59.695313-59.730469-59.730469zm-42.667969 110.929688v-22.066406l71.800781-71.796876h27.066406l-98.40625 98.40625c-.234374-1.503906-.390624-3.019531-.460937-4.542968zm42.667969-93.863282h5l-47.667969 47.664063v-5c.027344-23.550781 19.117187-42.636719 42.667969-42.664063zm-36.070313 116.410157 116.402344-116.410157h27.066406l-129.945312 129.933594c-5.472657-3.425781-10.097657-8.050781-13.523438-13.523437zm31.574219 19.625 136.027344-136.035157h27.070312l-136.535156 136.53125h-22.066406c-1.519532-.070312-3.035156-.222656-4.539063-.460937zm203.382812-125.121094-148.011718 148.007813c-.855469-6.816407-4.429688-13-9.914063-17.140626l140.285157-140.296874c6.546874 1.695312 12.59375 4.929687 17.640624 9.429687zm-144.90625 169.035156 155.25-155.203125c2.667969 5.597656 4.070313 11.714844 4.101563 17.917969v5l-140.066406 140.066406h-5c-5.769531-.011719-11.144531-2.9375-14.285157-7.78125zm48.417969 7.78125h-5l22.066407-22.066406v5c0 9.425781-7.640626 17.066406-17.066407 17.066406zm68.269531-51.199219h-22.070312l64.734375-64.734374v22.066406c-.027344 23.554687-19.113281 42.640625-42.664063 42.667968zm0 0"/></svg>