<?xml version="1.0" encoding="iso-8859-1"?>
<!-- Generator: Adobe Illustrator 19.0.0, SVG Export Plug-In . SVG Version: 6.00 Build 0)  -->
<svg version="1.1" id="Capa_1" xmlns="http://www.w3.org/2000/svg" xmlns:xlink="http://www.w3.org/1999/xlink" x="0px" y="0px"
	 viewBox="0 0 512.618 512.618" style="enable-background:new 0 0 512.618 512.618;" xml:space="preserve">
<path style="fill:#546E7A;" d="M491.883,316.356c-1.314-1.016-2.747-1.868-4.267-2.539c-5.564-2.749-11.693-4.159-17.899-4.117
	c-30.304,1.913-59.515,12.039-84.501,29.291c-5.027,3.072-6.611,9.637-3.539,14.664c0.439,0.718,0.961,1.381,1.555,1.976
	l4.267,4.267c13.035,13.269,57.6,56.512,82.261,56.512c30.4,0,42.667-37.653,42.667-53.333
	C513.958,345.024,506.221,327.429,491.883,316.356z"/>
<path style="fill:#CFD8DC;" d="M488.917,314.543l-98.56-66.987c-1.761-1.202-3.841-1.848-5.973-1.856
	c-65.173,0-225.621,39.659-290.901,71.872c-9.499,4.087-18.274,9.685-25.984,16.576c-3.941,3.942-4.183,10.254-0.555,14.485
	C70.059,352.26,144,437.7,223.531,437.7c52.608,0,96.363-29.589,138.667-58.197c11.477-7.744,22.805-15.424,34.133-22.315
	c21.51-15.456,46.949-24.523,73.387-26.155c2.951-0.061,5.874,0.575,8.533,1.856c5.368,2.426,11.687,0.041,14.113-5.327
	C494.446,322.954,493.007,317.517,488.917,314.543z"/>
<path style="fill:#607D8B;" d="M164.139,90.372c-1.381-5.542-6.883-9.013-12.48-7.872c-39.066,6.131-75.617,23.135-105.472,49.067
	c-32.296,33.209-48.949,78.583-45.803,124.8c0.244,29.69,3.946,59.251,11.029,88.085c1.246,4.667,5.473,7.914,10.304,7.915h53.333
	c2.831,0.005,5.548-1.115,7.552-3.115c6.001-5.174,12.784-9.364,20.096-12.416c4.904-2.348,7.256-8.009,5.461-13.141
	c-26.581-76.203-29.867-134.677-9.835-173.76c12.144-23.038,33.33-39.981,58.475-46.763
	C162.278,101.558,165.514,95.915,164.139,90.372z"/>
<path style="fill:#2196F3;" d="M394.581,253.252L360,140.527c-6.675-21.437-22.583-38.769-43.371-47.253
	c-52.979-20.06-110.755-23.775-165.867-10.667c-30.797,8.4-56.693,29.27-71.445,57.579C56.491,184.665,59.392,248.772,88,330.735
	c0.993,2.898,3.185,5.23,6.016,6.4c2.833,1.156,6.027,1.039,8.768-0.32c62.101-30.677,219.989-69.781,281.6-69.781
	c5.891-0.002,10.665-4.78,10.662-10.671C395.046,255.308,394.889,254.26,394.581,253.252z"/>
<path d="M223.488,437.7c-71.104,0-137.664-68.267-153.237-85.333H21.717c-4.831-0.001-9.058-3.248-10.304-7.915
	c-7.111-28.829-10.813-58.393-11.029-88.085c-3.177-46.242,13.47-91.652,45.781-124.885
	c34.304-34.283,104.256-56.448,178.219-56.448c31.648,0.189,62.969,6.409,92.288,18.325c20.813,8.416,36.712,25.781,43.264,47.253
	l33.536,109.013l96,65.109c15.793,10.786,24.55,29.244,22.912,48.299c0,15.701-12.288,53.333-42.667,53.333
	c-23.787,0-65.771-39.915-80.576-54.827c-8.939,5.675-17.963,11.776-27.093,17.963C319.808,408.111,276.117,437.7,223.488,437.7z
	 M30.251,331.033h44.8c3.118,0,6.08,1.364,8.107,3.733c0.704,0.811,70.656,81.6,140.352,81.6c46.08,0,86.997-27.733,126.592-54.507
	c28.905-22.747,61.939-39.684,97.28-49.877l-68.971-46.784c-2.032-1.354-3.538-3.365-4.267-5.696l-34.56-112.597
	c-4.677-15.353-16.048-27.767-30.933-33.771c-26.769-10.89-55.368-16.581-84.267-16.768c-67.541,0-133.099,20.181-163.115,50.219
	c-28.145,29.336-42.52,69.236-39.552,109.781C21.996,281.482,24.855,306.503,30.251,331.033z M408.107,350.233
	c23.019,22.464,51.563,44.8,61.696,44.8c13.781,0,21.333-24.021,21.333-32c0.926-10.624-2.939-21.106-10.539-28.587l-0.725-0.448
	l-0.96-0.64c-2.802-1.583-5.977-2.386-9.195-2.325c-21.861,1.062-43.093,7.669-61.696,19.2H408.107z"/>
<path d="M75.051,352.367c-5.891,0.011-10.675-4.757-10.686-10.648c-0.005-2.84,1.123-5.565,3.134-7.571
	C104.555,297.113,314.56,245.7,384.384,245.7c5.891,0,10.667,4.776,10.667,10.667c0,5.891-4.776,10.667-10.667,10.667
	c-73.877,0-274.133,54.549-301.781,82.219C80.598,351.251,77.882,352.372,75.051,352.367z"/>
<path d="M98.069,337.753c-4.534,0-8.573-2.866-10.069-7.147c-28.544-81.877-31.445-145.963-8.533-190.464
	c14.712-28.218,40.504-49.04,71.189-57.472c5.65-1.673,11.586,1.55,13.259,7.2c1.673,5.65-1.55,11.586-7.2,13.259
	c-25.104,6.796-46.25,23.729-58.368,46.741c-20.053,39.104-16.768,97.557,9.771,173.717c1.944,5.561-0.988,11.645-6.549,13.589
	c-1.131,0.396-2.322,0.598-3.52,0.598L98.069,337.753z"/>
<g>
</g>
<g>
</g>
<g>
</g>
<g>
</g>
<g>
</g>
<g>
</g>
<g>
</g>
<g>
</g>
<g>
</g>
<g>
</g>
<g>
</g>
<g>
</g>
<g>
</g>
<g>
</g>
<g>
</g>
</svg>
