<svg width="512.618" height="512.618" xmlns="http://www.w3.org/2000/svg">

 <g>
  <title>background</title>
  <rect fill="none" id="canvas_background" height="402" width="582" y="-1" x="-1"/>
 </g>
 <g>
  <title>Layer 1</title>
  <path id="svg_1" fill="#514d4d" d="m491.883,316.356c-1.314,-1.016 -2.747,-1.868 -4.267,-2.539c-5.564,-2.749 -11.693,-4.159 -17.899,-4.117c-30.304,1.913 -59.515,12.039 -84.501,29.291c-5.027,3.072 -6.611,9.637 -3.539,14.664c0.439,0.718 0.961,1.381 1.555,1.976l4.267,4.267c13.035,13.269 57.6,56.512 82.261,56.512c30.4,0 42.667,-37.653 42.667,-53.333c1.531,-18.053 -6.206,-35.648 -20.544,-46.721z"/>
  <path id="svg_2" fill="#514d4d" d="m488.917,314.543l-98.56,-66.987c-1.761,-1.202 -3.841,-1.848 -5.973,-1.856c-65.173,0 -225.621,39.659 -290.901,71.872c-9.499,4.087 -18.274,9.685 -25.984,16.576c-3.941,3.942 -4.183,10.254 -0.555,14.485c3.115,3.627 77.056,89.067 156.587,89.067c52.608,0 96.363,-29.589 138.667,-58.197c11.477,-7.744 22.805,-15.424 34.133,-22.315c21.51,-15.456 46.949,-24.523 73.387,-26.155c2.951,-0.061 5.874,0.575 8.533,1.856c5.368,2.426 11.687,0.041 14.113,-5.327c2.082,-4.608 0.643,-10.045 -3.447,-13.019z"/>
  <path id="svg_3" fill="#514d4d" d="m164.139,90.372c-1.381,-5.542 -6.883,-9.013 -12.48,-7.872c-39.066,6.131 -75.617,23.135 -105.472,49.067c-32.296,33.209 -48.949,78.583 -45.803,124.8c0.244,29.69 3.946,59.251 11.029,88.085c1.246,4.667 5.473,7.914 10.304,7.915l53.333,0c2.831,0.005 5.548,-1.115 7.552,-3.115c6.001,-5.174 12.784,-9.364 20.096,-12.416c4.904,-2.348 7.256,-8.009 5.461,-13.141c-26.581,-76.203 -29.867,-134.677 -9.835,-173.76c12.144,-23.038 33.33,-39.981 58.475,-46.763c5.479,-1.614 8.715,-7.257 7.34,-12.8z"/>
  <path id="svg_4" fill="#514d4d" d="m394.581,253.252l-34.581,-112.725c-6.675,-21.437 -22.583,-38.769 -43.371,-47.253c-52.979,-20.06 -110.755,-23.775 -165.867,-10.667c-30.797,8.4 -56.693,29.27 -71.445,57.579c-22.826,44.479 -19.925,108.586 8.683,190.549c0.993,2.898 3.185,5.23 6.016,6.4c2.833,1.156 6.027,1.039 8.768,-0.32c62.101,-30.677 219.989,-69.781 281.6,-69.781c5.891,-0.002 10.665,-4.78 10.662,-10.671c0,-1.055 -0.157,-2.103 -0.465,-3.111z"/>
  <path id="svg_5" d="m223.488,437.7c-71.104,0 -137.664,-68.267 -153.237,-85.333l-48.534,0c-4.831,-0.001 -9.058,-3.248 -10.304,-7.915c-7.111,-28.829 -10.813,-58.393 -11.029,-88.085c-3.177,-46.242 13.47,-91.652 45.781,-124.885c34.304,-34.283 104.256,-56.448 178.219,-56.448c31.648,0.189 62.969,6.409 92.288,18.325c20.813,8.416 36.712,25.781 43.264,47.253l33.536,109.013l96,65.109c15.793,10.786 24.55,29.244 22.912,48.299c0,15.701 -12.288,53.333 -42.667,53.333c-23.787,0 -65.771,-39.915 -80.576,-54.827c-8.939,5.675 -17.963,11.776 -27.093,17.963c-42.24,28.609 -85.931,58.198 -138.56,58.198zm-193.237,-106.667l44.8,0c3.118,0 6.08,1.364 8.107,3.733c0.704,0.811 70.656,81.6 140.352,81.6c46.08,0 86.997,-27.733 126.592,-54.507c28.905,-22.747 61.939,-39.684 97.28,-49.877l-68.971,-46.784c-2.032,-1.354 -3.538,-3.365 -4.267,-5.696l-34.56,-112.597c-4.677,-15.353 -16.048,-27.767 -30.933,-33.771c-26.769,-10.89 -55.368,-16.581 -84.267,-16.768c-67.541,0 -133.099,20.181 -163.115,50.219c-28.145,29.336 -42.52,69.236 -39.552,109.781c0.279,25.116 3.138,50.137 8.534,74.667zm377.856,19.2c23.019,22.464 51.563,44.8 61.696,44.8c13.781,0 21.333,-24.021 21.333,-32c0.926,-10.624 -2.939,-21.106 -10.539,-28.587l-0.725,-0.448l-0.96,-0.64c-2.802,-1.583 -5.977,-2.386 -9.195,-2.325c-21.861,1.062 -43.093,7.669 -61.696,19.2l0.086,0z"/>
  <path id="svg_6" d="m75.051,352.367c-5.891,0.011 -10.675,-4.757 -10.686,-10.648c-0.005,-2.84 1.123,-5.565 3.134,-7.571c37.056,-37.035 247.061,-88.448 316.885,-88.448c5.891,0 10.667,4.776 10.667,10.667c0,5.891 -4.776,10.667 -10.667,10.667c-73.877,0 -274.133,54.549 -301.781,82.219c-2.005,1.998 -4.721,3.119 -7.552,3.114z"/>
  <path id="svg_7" d="m98.069,337.753c-4.534,0 -8.573,-2.866 -10.069,-7.147c-28.544,-81.877 -31.445,-145.963 -8.533,-190.464c14.712,-28.218 40.504,-49.04 71.189,-57.472c5.65,-1.673 11.586,1.55 13.259,7.2c1.673,5.65 -1.55,11.586 -7.2,13.259c-25.104,6.796 -46.25,23.729 -58.368,46.741c-20.053,39.104 -16.768,97.557 9.771,173.717c1.944,5.561 -0.988,11.645 -6.549,13.589c-1.131,0.396 -2.322,0.598 -3.52,0.598l0.02,-0.021z"/>
  <g id="svg_8"/>
  <g id="svg_9"/>
  <g id="svg_10"/>
  <g id="svg_11"/>
  <g id="svg_12"/>
  <g id="svg_13"/>
  <g id="svg_14"/>
  <g id="svg_15"/>
  <g id="svg_16"/>
  <g id="svg_17"/>
  <g id="svg_18"/>
  <g id="svg_19"/>
  <g id="svg_20"/>
  <g id="svg_21"/>
  <g id="svg_22"/>
 </g>
</svg>