<svg height="511pt" viewBox="-55 0 511 511.99823" width="511pt" xmlns="http://www.w3.org/2000/svg"><path d="m385.300781 91.664062c3.492188-4.078124 3.410157-10.113281-.277343-14.011718l-11.871094-12.546875-13.21875 13.21875c-6.210938 6.210937-16.277344 6.210937-22.484375 0l-14.121094-14.117188c-6.210937-6.210937-6.210937-16.277343 0-22.484375l14.234375-14.234375-10.882812-11.503906c-3.800782-4.019531-10.09375-4.375-14.300782-.785156-74.203125 63.308593-148.402344 63.308593-222.605468 0-4.207032-3.585938-10.5-3.230469-14.296876.785156l-10.882812 11.503906 14.230469 14.234375c6.210937 6.207032 6.210937 16.273438 0 22.484375l-14.117188 14.117188c-6.210937 6.210937-16.277343 6.210937-22.484375 0l-13.222656-13.21875-11.867188 12.546875c-3.691406 3.898437-3.769531 9.933594-.277343 14.011718 35.683593 41.667969 33.527343 85.722657-6.363281 131.667969v199.015625c0 28.5 18.816406 53.65625 46.210937 61.511719 100.109375 28.695313 196.488281 26.453125 288.75 0 27.394531-7.855469 46.210937-33.007813 46.210937-61.507813v-199.019531c-39.894531-45.945312-42.050781-90-6.363281-131.667969zm0 0" fill="#2c5771"/><path d="m385.371094 91.578125c3.46875-4.042969 3.3125-10.058594-.351563-13.925781l-11.867187-12.546875-13.21875 13.21875c-6.210938 6.210937-16.277344 6.210937-22.484375 0l-11.347657-11.347657c-11.523437 20.773438-13.984374 42.097657-7.382812 63.917969 17.777344 58.78125 28 119.585938 28 180.996094v65.515625c0 28.574219-18.933594 53.699219-46.40625 61.5625-94.316406 27.007812-190.160156 27.941406-287.566406.21875 5.757812 21.164062 22.128906 38.414062 43.957031 44.671875 96.488281 27.660156 192.722656 27.496094 288.554687.058594 27.472657-7.867188 46.40625-32.992188 46.40625-61.566407v-199.019531c-39.921874-45.976562-42.054687-90.058593-6.292968-131.753906zm0 0" fill="#24475c"/><path d="m79.945312 63.085938-16.359374 16.359374c-5.589844 5.589844-14.65625 5.589844-20.246094 0l-31.152344-31.152343c-5.589844-5.589844-5.589844-14.65625 0-20.246094l16.359375-16.359375c5.59375-5.589844 14.65625-5.589844 20.246094 0l31.152343 31.152344c5.589844 5.589844 5.589844 14.65625 0 20.246094zm0 0" fill="#423e38"/><path d="m41.191406 417.925781h-30.699218v-191.539062h30.699218c40.269532 0 72.914063 32.640625 72.914063 72.910156v45.714844c0 40.269531-32.644531 72.914062-72.914063 72.914062zm0 0" fill="#423e38"/><path d="m41.191406 226.386719h-30.699218v.003906c40.144531.144531 72.648437 32.726563 72.648437 72.90625v45.714844c0 40.183593-32.503906 72.765625-72.648437 72.90625v.007812h30.699218c40.269532 0 72.914063-32.644531 72.914063-72.914062v-45.714844c0-40.269531-32.644531-72.910156-72.914063-72.910156zm0 0" fill="#302e29"/><path d="m322.207031 63.085938 16.359375 16.359374c5.589844 5.589844 14.65625 5.589844 20.246094 0l31.152344-31.152343c5.589844-5.589844 5.589844-14.65625 0-20.246094l-16.359375-16.359375c-5.589844-5.589844-14.65625-5.589844-20.246094 0l-31.152344 31.152344c-5.589843 5.589844-5.589843 14.65625 0 20.246094zm0 0" fill="#423e38"/><path d="m360.960938 417.925781h30.703124v-191.539062h-30.703124c-40.265626 0-72.910157 32.640625-72.910157 72.910156v45.714844c0 40.269531 32.644531 72.914062 72.910157 72.914062zm0 0" fill="#423e38"/><path d="m340.710938 229.257812c3.917968 27.335938 6.007812 54.921876 6.007812 82.632813v65.515625c0 13.1875-4.042969 25.632812-11.082031 35.992188 18.683593 6.921874 31.515625 3.710937 56.027343 4.527343v-191.539062c-25.628906.582031-35.308593-1.648438-50.953124 2.871093zm0 0" fill="#302e29"/><path d="m288.050781 342.984375c-57.976562 6.875-115.960937 6.875-173.949219 0-.160156 1.246094 1.523438 19.222656-9.988281 38.851563 64.644531 12.25 129.289063 12.253906 193.925781 0-11.507812-19.617188-9.828124-37.605469-9.988281-38.851563zm0 0" fill="#423e38"/><path d="m136.070312 345.257812c-7.320312-.648437-14.644531-1.402343-21.96875-2.273437-.160156 1.246094 1.523438 19.222656-9.988281 38.851563 6.625 1.257812 13.25 2.375 19.875 3.375 7.589844-11.460938 12.03125-25.1875 12.082031-39.953126zm0 0" fill="#302e29"/><path d="m264.589844 345.382812c.074218 14.804688 4.558594 28.5625 12.207031 40.03125 7.082031-1.046874 14.164063-2.234374 21.242187-3.578124-11.503906-19.617188-9.828124-37.601563-9.988281-38.847657-7.820312.925781-15.640625 1.714844-23.460937 2.394531zm0 0" fill="#302e29"/><path d="m108.570312 271.414062c7.390626 17.835938 5.140626 32.011719 5.539063 37.902344 57.984375 7.394532 115.964844 7.394532 173.9375 0 .390625-5.808594-1.851563-20.066406 5.535156-37.898437-60.398437 7.460937-122.160156 7.761719-185.011719-.003907zm0 0" fill="#423e38"/><path d="m136.078125 311.761719c-.457031-8.484375 1.746094-20.925781-4.5625-37.878907-7.648437-.710937-15.296875-1.523437-22.945313-2.46875 7.390626 17.835938 5.140626 32.011719 5.539063 37.902344 7.320313.933594 14.644531 1.75 21.96875 2.445313zm0 0" fill="#302e29"/><path d="m264.578125 311.894531c7.824219-.726562 15.644531-1.582031 23.46875-2.578125.390625-5.808594-1.851563-20.066406 5.535156-37.898437-8.167969 1.007812-16.332031 1.867187-24.5 2.609375-6.238281 16.882812-4.046875 29.296875-4.503906 37.867187zm0 0" fill="#302e29"/><path d="m123.148438 124.328125c51.699218 21.386719 104.136718 21.410156 155.855468 0 3.824219-1.582031 5.640625-5.964844 4.058594-9.785156-1.582031-3.824219-5.96875-5.640625-9.785156-4.058594-47.894532 19.824219-96.476563 19.824219-144.398438 0-3.828125-1.582031-8.207031.234375-9.785156 4.058594-1.582031 3.824219.234375 8.203125 4.054688 9.785156zm0 0"/><path d="m123.148438 172.398438c51.699218 21.386718 104.136718 21.40625 155.855468 0 3.824219-1.582032 5.640625-5.964844 4.058594-9.785157-1.582031-3.824219-5.96875-5.640625-9.785156-4.058593-47.894532 19.824218-96.476563 19.824218-144.398438 0-3.828125-1.582032-8.207031.234374-9.785156 4.058593-1.582031 3.824219.234375 8.203125 4.054688 9.785157zm0 0"/><path d="m390.988281 96.535156c6.015625-7.023437 5.789063-17.355468-.523437-24.03125l-6.863282-7.253906 11.660157-11.660156c8.523437-8.523438 8.523437-22.3125 0-30.839844l-16.359375-16.359375c-4.117188-4.117187-9.59375-6.38671875-15.417969-6.38671875-13.21875 0-17.898437 10.13281275-25.773437 16.74218775l-5.589844-5.914063c-6.554688-6.925781-17.363282-7.511719-24.601563-1.332031-71.625 61.109375-141.261719 61.109375-212.882812 0-7.242188-6.175781-18.046875-5.589844-24.601563 1.335938l-5.59375 5.910156-10.351562-10.355469c-8.519532-8.519531-22.316406-8.523437-30.839844 0l-16.359375 16.359375c-8.519531 8.523438-8.523437 22.316406 0 30.839844l11.660156 11.660156-6.859375 7.253906c-6.316406 6.675782-6.542968 17.007813-.527344 24.03125 33.246094 38.820313 31.175782 78.691406-6.328124 121.886719-2.855469 3.285156-1.835938-13.296875-1.835938 203.925781 0 31.742188 21.234375 59.996094 51.640625 68.710938 13.925781 3.992187 28.203125 7.484375 42.4375 10.382812 4.054687.828125 8.011719-1.792968 8.835937-5.847656.824219-4.050781-1.792968-8.007812-5.847656-8.832031-13.851562-2.820313-27.746094-6.21875-41.296875-10.105469-23.03125-6.601562-39.390625-27.414062-40.695312-51.242188h23.117187c27.628906 0 52.046875-14.011718 66.523438-35.300781 60.40625 10.855469 123.113281 11.433594 186.71875 0 14.480468 21.289063 38.894531 35.300781 66.527344 35.300781h23.117187c-1.304687 23.828126-17.660156 44.640626-40.691406 51.246094-70.570313 20.230469-142.136719 25.414063-212.703125 15.402344-4.085938-.582031-7.886719 2.269531-8.46875 6.363281-.578125 4.097657 2.269531 7.886719 6.367187 8.46875 73.992188 10.496094 147.664063 4.597657 218.933594-15.835937 30.402344-8.714844 51.636719-36.96875 51.636719-68.707032 0-217.109374 1.070312-200.582031-1.835938-203.929687-37.503906-43.195313-39.574218-83.066406-6.328125-121.886719zm-27.503906-81.546875c1.746094 0 3.492187.667969 4.824219 1.996094 15.125 15.957031 18.359375 16.359375 18.359375 21.1875 0 4.949219-2.355469 4.257813-29.152344 31.976563l-2.878906 2.878906c-3.277344 3.277344-8.605469 3.277344-11.886719.003906l-14.128906-14.125c-3.273438-3.277344-3.273438-8.609375 0-11.882812 30.496094-29.503907 29.789062-32.035157 34.863281-32.035157zm-346 18.355469c15.90625-15.015625 16.304687-18.355469 21.1875-18.355469 4.875 0 5.527344 3.566407 20.621094 17.792969l14.234375 14.234375c3.273437 3.273437 3.277344 8.597656.015625 11.878906-2.105469 2.105469 5.8125-5.8125-14.132813 14.132813-3.277344 3.28125-8.613281 3.277344-11.894531 0l-30.03125-30.03125c-2.664063-2.667969-2.667969-6.984375 0-9.652344zm5.058594 53.445312c-1.015625-1.183593-1-2.898437.03125-3.988281l6.574219-6.953125c6.453124 5.261719 11.28125 15.273438 24.3125 15.273438 5.585937 0 11.171874-2.128906 15.421874-6.378906.308594-.308594 16.851563-16.851563 16.359376-16.359376 8.519531-8.523437 8.523437-22.316406 0-30.839843-.101563-.101563-1.21875-1.21875-1.121094-1.121094l-9.082032-9.082031 5.875-6.210938c1.070313-1.128906 2.828126-1.230468 3.996094-.234375 77.070313 65.757813 155.238282 65.777344 232.332032 0 1.171874-.996093 2.925781-.894531 3.992187.234375l5.878906 6.210938c-17.234375 17.238281-4.695312 4.695312-10.203125 10.203125-8.523437 8.523437-8.523437 22.3125 0 30.839843.101563.097657 1.21875 1.21875 1.121094 1.121094.566406.566406 14.269531 14.269532 15.238281 15.238282 4.25 4.25 9.835938 6.378906 15.417969 6.378906 13.003906 0 18.027344-10.148438 24.316406-15.273438l6.574219 6.953125c1.03125 1.089844 1.042969 2.804688.03125 3.988281-34.953125 40.8125-36.746094 85.578126-1.210937 132.105469h-17.4375c-31.867188 0-59.460938 18.632813-72.460938 45.574219-23.914062 2.820312-48.125 4.511719-72.039062 5.007812-4.136719.085938-7.417969 3.507813-7.332032 7.644532.082032 4.136718 3.53125 7.414062 7.640625 7.332031 21.929688-.453125 44.097657-1.882813 66.074219-4.253906-2.855469 11.679687-2.191406 21-2.285156 22.488281-52.773438 6.210938-106.179688 6.210938-158.964844 0-.125-1.28125.621094-10.59375-2.289062-22.488281 21.980468 2.371093 44.164062 3.800781 66.097656 4.257812 4.144531.066407 7.558594-3.199219 7.640625-7.335937.085937-4.136719-3.195313-7.558594-7.332031-7.644532-23.921876-.496093-48.140626-2.191406-72.0625-5.007812-13-26.941406-40.59375-45.574219-72.460938-45.574219h-17.4375c35.535156-46.523437 33.75-91.285156-1.207031-132.105469zm99.050781 249.492188v-18.527344c51.796875 5.960938 104.855469 6.230469 158.964844 0v18.527344c-52.769532 5.769531-106.175782 5.769531-158.964844 0zm-80.402344 74.152344h-23.210937v-176.558594h23.210937c35.988282 0 65.421875 29.277344 65.421875 65.421875 0 45.222656 1.945313 56.78125-6.585937 74.292969-10.625 21.792968-33.003906 36.84375-58.835938 36.84375zm74.09375-34.199219c3.097656-7.296875 5.367188-16.09375 6.058594-24.890625 52.960938 5.6875 106.523438 5.683594 159.464844 0 .699218 8.839844 2.976562 17.644531 6.0625 24.890625-56.976563 9.675781-114.597656 9.675781-171.585938 0zm180.253906-33.25c.03125-45.628906-.875-50.78125 2.921876-63.023437 8.332031-26.890626 33.402343-46.085938 62.5-46.085938h23.210937v176.558594h-23.210937c-33.453126 0-65.09375-25.671875-65.421876-67.449219zm0 0"/></svg>