<svg width="511" height="511.99823" xmlns="http://www.w3.org/2000/svg">

 <g>
  <title>background</title>
  <rect fill="none" id="canvas_background" height="402" width="582" y="-1" x="-1"/>
 </g>
 <g>
  <title>Layer 1</title>
  <path id="svg_1" fill="#514d4d" d="m434.30078,95.66406c3.49219,-4.07812 3.41016,-10.11328 -0.27734,-14.01172l-11.8711,-12.54687l-13.21875,13.21875c-6.21093,6.21094 -16.27734,6.21094 -22.48437,0l-14.12109,-14.11719c-6.21094,-6.21094 -6.21094,-16.27734 0,-22.48437l14.23437,-14.23438l-10.88281,-11.5039c-3.80078,-4.01954 -10.09375,-4.375 -14.30078,-0.78516c-74.20313,63.30859 -148.40235,63.30859 -222.60547,0c-4.20703,-3.58594 -10.5,-3.23047 -14.29688,0.78516l-10.88281,11.5039l14.23047,14.23438c6.21094,6.20703 6.21094,16.27343 0,22.48437l-14.11719,14.11719c-6.21094,6.21094 -16.27734,6.21094 -22.48437,0l-13.22266,-13.21875l-11.86719,12.54687c-3.6914,3.89844 -3.76953,9.9336 -0.27734,14.01172c35.68359,41.66797 33.52734,85.72266 -6.36328,131.66797l0,199.01563c0,28.5 18.8164,53.65625 46.21093,61.51172c100.10938,28.69531 196.48829,26.45312 288.75001,0c27.39453,-7.85547 46.21093,-33.00782 46.21093,-61.50782l0,-199.01953c-39.89453,-45.94531 -42.05078,-90 -6.36328,-131.66797zm0,0"/>
  <path id="svg_2" fill="#514d4d" d="m437.37109,95.57813c3.46875,-4.04297 3.3125,-10.0586 -0.35156,-13.92579l-11.86719,-12.54687l-13.21875,13.21875c-6.21093,6.21094 -16.27734,6.21094 -22.48437,0l-11.34766,-11.34766c-11.52343,20.77344 -13.98437,42.09766 -7.38281,63.91797c17.77734,58.78125 28,119.58594 28,180.9961l0,65.51562c0,28.57422 -18.93359,53.69922 -46.40625,61.5625c-94.31641,27.00781 -190.16016,27.94141 -287.56641,0.21875c5.75782,21.16406 22.12891,38.41406 43.95704,44.67188c96.48828,27.66015 192.72265,27.49609 288.55468,0.05859c27.47266,-7.86719 46.40625,-32.99219 46.40625,-61.56641l0,-199.01953c-39.92187,-45.97656 -42.05468,-90.05859 -6.29297,-131.7539zm0,0"/>
  <path id="svg_3" fill="#423e38" d="m131.94531,67.08594l-16.35937,16.35937c-5.58985,5.58985 -14.65625,5.58985 -20.2461,0l-31.15234,-31.15234c-5.58984,-5.58984 -5.58984,-14.65625 0,-20.24609l16.35938,-16.35938c5.59375,-5.58984 14.65625,-5.58984 20.24609,0l31.15234,31.15234c5.58985,5.58985 5.58985,14.65625 0,20.2461zm0,0"/>
  <path id="svg_4" fill="#423e38" d="m93.19141,421.92578l-30.69922,0l0,-191.53906l30.69922,0c40.26953,0 72.91406,32.64062 72.91406,72.91016l0,45.71484c0,40.26953 -32.64453,72.91406 -72.91406,72.91406zm0,0"/>
  <path id="svg_5" fill="#302e29" d="m93.19141,230.38672l-30.69922,0l0,0.00391c40.14453,0.14453 72.64844,32.72656 72.64844,72.90625l0,45.71484c0,40.18359 -32.50391,72.76562 -72.64844,72.90625l0,0.00781l30.69922,0c40.26953,0 72.91406,-32.64453 72.91406,-72.91406l0,-45.71484c0,-40.26954 -32.64453,-72.91016 -72.91406,-72.91016zm0,0"/>
  <path id="svg_6" fill="#423e38" d="m374.20703,67.08594l16.35938,16.35937c5.58984,5.58985 14.65625,5.58985 20.24609,0l31.15234,-31.15234c5.58985,-5.58984 5.58985,-14.65625 0,-20.24609l-16.35937,-16.35938c-5.58985,-5.58984 -14.65625,-5.58984 -20.24609,0l-31.15235,31.15234c-5.58984,5.58985 -5.58984,14.65625 0,20.2461zm0,0"/>
  <path id="svg_7" fill="#423e38" d="m412.96094,421.92578l30.70312,0l0,-191.53906l-30.70312,0c-40.26563,0 -72.91016,32.64062 -72.91016,72.91016l0,45.71484c0,40.26953 32.64453,72.91406 72.91016,72.91406zm0,0"/>
  <path id="svg_8" fill="#302e29" d="m392.71094,233.25781c3.91797,27.33594 6.00781,54.92188 6.00781,82.63282l0,65.51562c0,13.1875 -4.04297,25.63281 -11.08203,35.99219c18.68359,6.92187 31.51562,3.71094 56.02734,4.52734l0,-191.53906c-25.6289,0.58203 -35.30859,-1.64844 -50.95312,2.87109zm0,0"/>
  <path id="svg_9" fill="#423e38" d="m340.05078,346.98438c-57.97656,6.875 -115.96094,6.875 -173.94922,0c-0.16015,1.24609 1.52344,19.22265 -9.98828,38.85156c64.64453,12.25 129.28906,12.2539 193.92578,0c-11.50781,-19.61719 -9.82812,-37.60547 -9.98828,-38.85156zm0,0"/>
  <path id="svg_10" fill="#302e29" d="m188.07031,349.25781c-7.32031,-0.64843 -14.64453,-1.40234 -21.96875,-2.27343c-0.16015,1.24609 1.52344,19.22265 -9.98828,38.85156c6.625,1.25781 13.25,2.375 19.875,3.375c7.58985,-11.46094 12.03125,-25.1875 12.08203,-39.95313zm0,0"/>
  <path id="svg_11" fill="#302e29" d="m316.58984,349.38281c0.07422,14.80469 4.5586,28.5625 12.20704,40.03125c7.08203,-1.04687 14.16406,-2.23437 21.24218,-3.57812c-11.5039,-19.61719 -9.82812,-37.60156 -9.98828,-38.84766c-7.82031,0.92578 -15.64062,1.71485 -23.46094,2.39453zm0,0"/>
  <path id="svg_12" fill="#423e38" d="m160.57031,275.41406c7.39063,17.83594 5.14063,32.01172 5.53907,37.90235c57.98437,7.39453 115.96484,7.39453 173.9375,0c0.39062,-5.8086 -1.85157,-20.06641 5.53515,-37.89844c-60.39844,7.46094 -122.16016,7.76172 -185.01172,-0.00391zm0,0"/>
  <path id="svg_13" fill="#302e29" d="m188.07813,315.76172c-0.45704,-8.48438 1.74609,-20.92578 -4.5625,-37.87891c-7.64844,-0.71093 -15.29688,-1.52343 -22.94532,-2.46875c7.39063,17.83594 5.14063,32.01172 5.53907,37.90235c7.32031,0.93359 14.64453,1.75 21.96875,2.44531zm0,0"/>
  <path id="svg_14" fill="#302e29" d="m316.57813,315.89453c7.82421,-0.72656 15.64453,-1.58203 23.46875,-2.57812c0.39062,-5.8086 -1.85157,-20.06641 5.53515,-37.89844c-8.16797,1.00781 -16.33203,1.86719 -24.5,2.60937c-6.23828,16.88282 -4.04687,29.29688 -4.5039,37.86719zm0,0"/>
  <path id="svg_15" d="m175.14844,128.32813c51.69922,21.38671 104.13672,21.41015 155.85547,0c3.82422,-1.58204 5.64062,-5.96485 4.05859,-9.78516c-1.58203,-3.82422 -5.96875,-5.64063 -9.78516,-4.05859c-47.89453,19.82421 -96.47656,19.82421 -144.39843,0c-3.82813,-1.58204 -8.20703,0.23437 -9.78516,4.05859c-1.58203,3.82422 0.23438,8.20312 4.05469,9.78516zm0,0"/>
  <path id="svg_16" d="m175.14844,176.39844c51.69922,21.38672 104.13672,21.40625 155.85547,0c3.82422,-1.58203 5.64062,-5.96485 4.05859,-9.78516c-1.58203,-3.82422 -5.96875,-5.64062 -9.78516,-4.05859c-47.89453,19.82422 -96.47656,19.82422 -144.39843,0c-3.82813,-1.58203 -8.20703,0.23437 -9.78516,4.05859c-1.58203,3.82422 0.23438,8.20313 4.05469,9.78516zm0,0"/>
  <path id="svg_17" d="m442.98828,100.53516c6.01563,-7.02344 5.78906,-17.35547 -0.52344,-24.03125l-6.86328,-7.25391l11.66016,-11.66016c8.52344,-8.52343 8.52344,-22.3125 0,-30.83984l-16.35938,-16.35937c-4.11718,-4.11719 -9.59375,-6.38672 -15.41796,-6.38672c-13.21875,0 -17.89844,10.13281 -25.77344,16.74218l-5.58985,-5.91406c-6.55468,-6.92578 -17.36328,-7.51172 -24.60156,-1.33203c-71.625,61.10938 -141.26172,61.10938 -212.88281,0c-7.24219,-6.17578 -18.04688,-5.58984 -24.60156,1.33594l-5.59375,5.91015l-10.35157,-10.35546c-8.51953,-8.51954 -22.3164,-8.52344 -30.83984,0l-16.35938,16.35937c-8.51953,8.52344 -8.52343,22.31641 0,30.83984l11.66016,11.66016l-6.85937,7.25391c-6.31641,6.67578 -6.54297,17.00781 -0.52735,24.03125c33.2461,38.82031 31.17578,78.6914 -6.32812,121.88672c-2.85547,3.28515 -1.83594,-13.29688 -1.83594,203.92578c0,31.74218 21.23437,59.99609 51.64062,68.71093c13.92579,3.99219 28.20313,7.48438 42.4375,10.38282c4.05469,0.82812 8.01172,-1.79297 8.83594,-5.84766c0.82422,-4.05078 -1.79297,-8.00781 -5.84765,-8.83203c-13.85157,-2.82031 -27.7461,-6.21875 -41.29688,-10.10547c-23.03125,-6.60156 -39.39062,-27.41406 -40.69531,-51.24219l23.11719,0c27.6289,0 52.04687,-14.01172 66.52343,-35.30078c60.40625,10.85547 123.11328,11.4336 186.71875,0c14.48047,21.28906 38.89454,35.30078 66.52735,35.30078l23.11718,0c-1.30468,23.82813 -17.66015,44.64063 -40.6914,51.2461c-70.57031,20.23047 -142.13672,25.41406 -212.70313,15.40234c-4.08593,-0.58203 -7.88672,2.26953 -8.46875,6.36328c-0.57812,4.09766 2.26953,7.88672 6.36719,8.46875c73.99219,10.4961 147.66406,4.59766 218.9336,-15.83594c30.40234,-8.71484 51.63671,-36.96875 51.63671,-68.70703c0,-217.10937 1.07032,-200.58203 -1.83593,-203.92968c-37.50391,-43.19532 -39.57422,-83.06641 -6.32813,-121.88672zm-27.5039,-81.54688c1.74609,0 3.49218,0.66797 4.82421,1.9961c15.125,15.95703 18.35938,16.35937 18.35938,21.1875c0,4.94921 -2.35547,4.25781 -29.15234,31.97656l-2.87891,2.8789c-3.27734,3.27735 -8.60547,3.27735 -11.88672,0.00391l-14.12891,-14.125c-3.27343,-3.27734 -3.27343,-8.60937 0,-11.88281c30.4961,-29.50391 29.78907,-32.03516 34.86329,-32.03516zm-346,18.35547c15.90625,-15.01562 16.30468,-18.35547 21.1875,-18.35547c4.875,0 5.52734,3.56641 20.62109,17.79297l14.23437,14.23438c3.27344,3.27343 3.27735,8.59765 0.01563,11.8789c-2.10547,2.10547 5.8125,-5.8125 -14.13281,14.13281c-3.27735,3.28125 -8.61328,3.27735 -11.89453,0l-30.03125,-30.03125c-2.66407,-2.66796 -2.66797,-6.98437 0,-9.65234zm5.05859,53.44531c-1.01563,-1.18359 -1,-2.89843 0.03125,-3.98828l6.57422,-6.95312c6.45312,5.26172 11.28125,15.27343 24.3125,15.27343c5.58594,0 11.17187,-2.1289 15.42187,-6.3789c0.3086,-0.3086 16.85157,-16.85156 16.35938,-16.35938c8.51953,-8.52343 8.52344,-22.3164 0,-30.83984c-0.10156,-0.10156 -1.21875,-1.21875 -1.1211,-1.12109l-9.08203,-9.08204l5.875,-6.21093c1.07032,-1.12891 2.82813,-1.23047 3.9961,-0.23438c77.07031,65.75781 155.23828,65.77735 232.33203,0c1.17187,-0.99609 2.92578,-0.89453 3.99219,0.23438l5.8789,6.21093c-17.23437,17.23829 -4.69531,4.69532 -10.20312,10.20313c-8.52344,8.52344 -8.52344,22.3125 0,30.83984c0.10156,0.09766 1.21875,1.21875 1.12109,1.1211c0.56641,0.5664 14.26953,14.26953 15.23828,15.23828c4.25,4.25 9.83594,6.3789 15.41797,6.3789c13.00391,0 18.02734,-10.14843 24.31641,-15.27343l6.57422,6.95312c1.03125,1.08985 1.04296,2.80469 0.03125,3.98828c-34.95313,40.8125 -36.7461,85.57813 -1.21094,132.10547l-17.4375,0c-31.86719,0 -59.46094,18.63281 -72.46094,45.57422c-23.91406,2.82031 -48.125,4.51172 -72.03906,5.00781c-4.13672,0.08594 -7.41797,3.50782 -7.33203,7.64453c0.08203,4.13672 3.53125,7.41407 7.64062,7.33204c21.92969,-0.45313 44.09766,-1.88282 66.07422,-4.25391c-2.85547,11.67969 -2.19141,21 -2.28516,22.48828c-52.77343,6.21094 -106.17968,6.21094 -158.96484,0c-0.125,-1.28125 0.62109,-10.59375 -2.28906,-22.48828c21.98047,2.37109 44.16406,3.80078 66.09765,4.25781c4.14454,0.06641 7.5586,-3.19922 7.64063,-7.33594c0.08594,-4.13672 -3.19531,-7.55859 -7.33203,-7.64453c-23.92188,-0.49609 -48.14063,-2.1914 -72.0625,-5.00781c-13,-26.94141 -40.59375,-45.57422 -72.46094,-45.57422l-17.4375,0c35.53516,-46.52344 33.75,-91.28516 -1.20703,-132.10547zm99.05078,249.49219l0,-18.52734c51.79688,5.96093 104.85547,6.23047 158.96484,0l0,18.52734c-52.76953,5.76953 -106.17578,5.76953 -158.96484,0zm-80.40234,74.15234l-23.21094,0l0,-176.55859l23.21094,0c35.98828,0 65.42187,29.27734 65.42187,65.42188c0,45.22265 1.94531,56.78125 -6.58594,74.29296c-10.625,21.79297 -33.0039,36.84375 -58.83593,36.84375zm74.09375,-34.19921c3.09765,-7.29688 5.36718,-16.09375 6.05859,-24.89063c52.96094,5.6875 106.52344,5.68359 159.46484,0c0.69922,8.83984 2.97657,17.64453 6.0625,24.89063c-56.97656,9.67578 -114.59765,9.67578 -171.58593,0zm180.2539,-33.25c0.03125,-45.62891 -0.875,-50.78125 2.92188,-63.02344c8.33203,-26.89063 33.40234,-46.08594 62.5,-46.08594l23.21094,0l0,176.55859l-23.21094,0c-33.45313,0 -65.09375,-25.67187 -65.42188,-67.44921zm0,0"/>
 </g>
</svg>