<svg width="512" height="512" xmlns="http://www.w3.org/2000/svg">

 <g>
  <title>background</title>
  <rect fill="none" id="canvas_background" height="402" width="582" y="-1" x="-1"/>
 </g>
 <g>
  <title>Layer 1</title>
  <path id="svg_1" fill="#514d4d" d="m205.845,147.3l109.302,67.786c16.801,10.42 35.616,17.166 55.209,19.796l46.228,6.205c45.66,6.129 79.742,45.092 79.742,91.161l0,0l-480.653,0l0,-179.758c0,-2.867 2.324,-5.191 5.191,-5.191l0,0c16.227,0 31.264,8.514 39.613,22.429l1.225,2.041c10.339,17.232 28.961,27.775 49.057,27.775l0,0c20.095,0 38.718,-10.544 49.057,-27.775l16.492,-21.903c14.484,-14.484 29.537,-2.566 29.537,-2.566z"/>
  <path id="svg_2" fill="#514d4d" d="m15.673,306.125l0,26.122l480.653,0l0,0c0,-9.049 -1.332,-17.817 -3.792,-26.122l-476.861,0z"/>
  <path id="svg_3" fill="#514d4d" d="m85.682,331.725c0,0.178 0,0.345 -0.01,0.522l-69.999,0l0,-71.043c38.714,0.272 70.009,31.744 70.009,70.521z"/>
  <path id="svg_4" fill="#514d4d" d="m37.09,149.268c-5.115,-1.921 -10.594,-2.967 -16.225,-2.967c-2.867,0 -5.191,2.324 -5.191,5.191l0,179.756l20.898,0l0,-179.758c-0.001,-0.798 0.195,-1.546 0.518,-2.222z"/>
  <path id="svg_5" fill="#514d4d" d="m494.327,331.247l-194.352,0l0,-10.971c0,-11.107 4.504,-21.17 11.786,-28.442c7.272,-7.283 17.335,-11.786 28.442,-11.786c22.215,0 40.229,-18.014 40.229,-40.229l0,-4.315l34.147,4.587c45.663,6.122 79.748,45.086 79.748,91.156z"/>
  <path id="svg_6" fill="#514d4d" d="m416.58,242.09l-34.147,-4.587l0,2.808l13.249,1.779c45.662,6.123 79.747,45.087 79.747,91.157l20.898,0c0,-46.07 -34.085,-85.034 -79.747,-91.157z"/>
  <g id="svg_7">
   <polygon id="svg_8" fill="#514d4d" points="503.1629943847656,370.34100341796875 503.1629943847656,333.7699890136719 6.836999893188477,333.7699890136719 6.836999893188477,370.34100341796875 129.61199951171875,370.34100341796875 129.61199951171875,359.8919982910156 296.7959899902344,359.8919982910156 317.6940002441406,370.34100341796875 "/>
   <polygon id="svg_9" fill="#514d4d" points="503.1629943847656,370.34100341796875 503.1629943847656,333.24700927734375 6.836999893188477,333.24700927734375 6.836999893188477,370.34100341796875 129.61199951171875,370.34100341796875 129.61199951171875,359.8919982910156 296.7959899902344,359.8919982910156 317.6940002441406,370.34100341796875 "/>
   <polygon id="svg_10" fill="#514d4d" points="503.1629943847656,370.34100341796875 503.1629943847656,333.7699890136719 6.836999893188477,333.7699890136719 6.836999893188477,370.34100341796875 129.61199951171875,370.34100341796875 129.61199951171875,359.8919982910156 296.7959899902344,359.8919982910156 317.6940002441406,370.34100341796875 "/>
  </g>
  <circle id="svg_11" r="7.837" cy="181.081" cx="189.722"/>
  <circle id="svg_12" r="7.837" cy="196.67" cx="219.972"/>
  <circle id="svg_13" r="7.837" cy="212.25" cx="250.232"/>
  <circle id="svg_14" r="7.837" cy="227.829" cx="280.482"/>
  <path id="svg_15" d="m503.835,324.41c-1.68,-21.346 -10.168,-41.657 -24.36,-57.881c-15.919,-18.199 -37.885,-29.993 -61.849,-33.21l-46.228,-6.205c-18.62,-2.499 -36.157,-8.788 -52.122,-18.689l-108.962,-67.575c-7.335,-5.546 -24.466,-11.609 -39.548,3.474l-0.389,0.389l-16.823,22.342l-0.46,0.682c-8.87,14.785 -25.094,23.97 -42.337,23.97s-33.466,-9.185 -42.337,-23.971l-1.225,-2.041c-9.709,-16.181 -27.463,-26.233 -46.334,-26.233c-7.184,0 -13.028,5.844 -13.028,13.028l0,171.92l-7.833,0l0,52.767l138.449,0l0,-10.449l157.496,0l20.898,10.449l195.157,0l0,-52.767l-8.165,0zm-15.713,0l-178.31,0l0,-3.135c0,-8.656 3.37,-16.787 9.495,-22.904c6.11,-6.118 14.241,-9.488 22.897,-9.488c24.947,0 45.509,-19.106 47.84,-43.452l25.499,3.422c38.972,5.232 68.96,37.046 72.579,75.557zm-434.365,-150.65l1.225,2.041c11.688,19.479 33.061,31.58 55.778,31.58c22.575,0 43.822,-11.949 55.557,-31.216l15.898,-21.113c8.773,-8.391 17.21,-2.783 18.766,-1.608l0.352,0.279l109.684,68.023c17.857,11.075 37.47,18.108 58.297,20.903l5.174,0.695c-1.294,16.684 -15.273,29.866 -32.284,29.866c-12.847,0 -24.917,5.003 -33.98,14.078c-9.083,9.07 -14.085,21.14 -14.085,33.987l0,3.135l-200.975,0c-0.333,-3.557 -0.915,-7.043 -1.712,-10.449l154.098,0l0,-15.673l-159.57,0c-11.453,-24.097 -34.856,-41.524 -62.47,-44.475l0,-98.583c12.393,0.869 23.81,7.802 30.247,18.53zm-30.247,95.854c28.205,3.788 50.565,26.479 53.891,54.796l-53.891,0l0,-54.796zm472.817,91.89l-175.783,0l-20.898,-10.449l-176.87,0l0,10.449l-107.103,0l0,-21.42l480.653,0l0,21.42l0.001,0z"/>
  <rect id="svg_16" height="15.673" width="15.673" y="298.287" x="261.224"/>
  <g id="svg_17"/>
  <g id="svg_18"/>
  <g id="svg_19"/>
  <g id="svg_20"/>
  <g id="svg_21"/>
  <g id="svg_22"/>
  <g id="svg_23"/>
  <g id="svg_24"/>
  <g id="svg_25"/>
  <g id="svg_26"/>
  <g id="svg_27"/>
  <g id="svg_28"/>
  <g id="svg_29"/>
  <g id="svg_30"/>
  <g id="svg_31"/>
 </g>
</svg>