<?xml version="1.0" encoding="iso-8859-1"?>
<!-- Generator: Adobe Illustrator 19.0.0, SVG Export Plug-In . SVG Version: 6.00 Build 0)  -->
<svg version="1.1" id="Layer_1" xmlns="http://www.w3.org/2000/svg" xmlns:xlink="http://www.w3.org/1999/xlink" x="0px" y="0px"
	 viewBox="0 0 512 512" style="enable-background:new 0 0 512 512;" xml:space="preserve">
<path style="fill:#F9D85C;" d="M205.845,147.3l109.302,67.786c16.801,10.42,35.616,17.166,55.209,19.796l46.228,6.205
	c45.66,6.129,79.742,45.092,79.742,91.161l0,0H15.673V152.49c0-2.867,2.324-5.191,5.191-5.191l0,0
	c16.227,0,31.264,8.514,39.613,22.429l1.225,2.041c10.339,17.232,28.961,27.775,49.057,27.775l0,0
	c20.095,0,38.718-10.544,49.057-27.775l16.492-21.903C190.792,135.382,205.845,147.3,205.845,147.3z"/>
<path style="fill:#DDB92E;" d="M15.673,306.125v26.122h480.653l0,0c0-9.049-1.332-17.817-3.792-26.122H15.673z"/>
<path style="fill:#FFB555;" d="M85.682,331.725c0,0.178,0,0.345-0.01,0.522H15.673v-71.043
	C54.387,261.476,85.682,292.948,85.682,331.725z"/>
<path style="fill:#FFFFFF;" d="M37.09,150.268c-5.115-1.921-10.594-2.967-16.225-2.967c-2.867,0-5.191,2.324-5.191,5.191v179.756
	h20.898V152.49C36.571,151.692,36.767,150.944,37.09,150.268z"/>
<path style="fill:#FFB555;" d="M496.327,332.247H301.975v-10.971c0-11.107,4.504-21.17,11.786-28.442
	c7.272-7.283,17.335-11.786,28.442-11.786c22.215,0,40.229-18.014,40.229-40.229v-4.315l34.147,4.587
	C462.242,247.213,496.327,286.177,496.327,332.247z"/>
<path style="fill:#CC8525;" d="M416.58,241.09l-34.147-4.587v2.808l13.249,1.779c45.662,6.123,79.747,45.087,79.747,91.157h20.898
	C496.327,286.177,462.242,247.213,416.58,241.09z"/>
<g>
	<polygon style="fill:#FFFFFF;" points="504.163,369.341 504.163,332.77 7.837,332.77 7.837,369.341 130.612,369.341 
		130.612,358.892 297.796,358.892 318.694,369.341 	"/>
	<polygon style="fill:#FFFFFF;" points="504.163,369.341 504.163,332.247 7.837,332.247 7.837,369.341 130.612,369.341 
		130.612,358.892 297.796,358.892 318.694,369.341 	"/>
	<polygon style="fill:#FFFFFF;" points="504.163,369.341 504.163,332.77 7.837,332.77 7.837,369.341 130.612,369.341 
		130.612,358.892 297.796,358.892 318.694,369.341 	"/>
</g>
<circle cx="189.722" cy="181.081" r="7.837"/>
<circle cx="219.972" cy="196.67" r="7.837"/>
<circle cx="250.232" cy="212.25" r="7.837"/>
<circle cx="280.482" cy="227.829" r="7.837"/>
<path d="M503.835,324.41c-1.68-21.346-10.168-41.657-24.36-57.881c-15.919-18.199-37.885-29.993-61.849-33.21l-46.228-6.205
	c-18.62-2.499-36.157-8.788-52.122-18.689l-108.962-67.575c-7.335-5.546-24.466-11.609-39.548,3.474l-0.389,0.389l-16.823,22.342
	l-0.46,0.682c-8.87,14.785-25.094,23.97-42.337,23.97s-33.466-9.185-42.337-23.971l-1.225-2.041
	c-9.709-16.181-27.463-26.233-46.334-26.233c-7.184,0-13.028,5.844-13.028,13.028V324.41H0v52.767h138.449v-10.449h157.496
	l20.898,10.449H512V324.41H503.835z M488.122,324.41h-178.31v-3.135c0-8.656,3.37-16.787,9.495-22.904
	c6.11-6.118,14.241-9.488,22.897-9.488c24.947,0,45.509-19.106,47.84-43.452l25.499,3.422
	C454.515,254.085,484.503,285.899,488.122,324.41z M53.757,173.76l1.225,2.041c11.688,19.479,33.061,31.58,55.778,31.58
	c22.575,0,43.822-11.949,55.557-31.216l15.898-21.113c8.773-8.391,17.21-2.783,18.766-1.608l0.352,0.279l109.684,68.023
	c17.857,11.075,37.47,18.108,58.297,20.903l5.174,0.695c-1.294,16.684-15.273,29.866-32.284,29.866
	c-12.847,0-24.917,5.003-33.98,14.078c-9.083,9.07-14.085,21.14-14.085,33.987v3.135H93.164c-0.333-3.557-0.915-7.043-1.712-10.449
	h154.098v-15.673H85.98c-11.453-24.097-34.856-41.524-62.47-44.475V155.23C35.903,156.099,47.32,163.032,53.757,173.76z
	 M23.51,269.614c28.205,3.788,50.565,26.479,53.891,54.796H23.51V269.614z M496.327,361.504H320.544l-20.898-10.449H122.776v10.449
	H15.673v-21.42h480.653V361.504z"/>
<rect x="261.224" y="298.287" width="15.673" height="15.673"/>
<g>
</g>
<g>
</g>
<g>
</g>
<g>
</g>
<g>
</g>
<g>
</g>
<g>
</g>
<g>
</g>
<g>
</g>
<g>
</g>
<g>
</g>
<g>
</g>
<g>
</g>
<g>
</g>
<g>
</g>
</svg>
