<svg id="Capa_1" enable-background="new 0 0 483.254 483.254" height="512" viewBox="0 0 483.254 483.254" width="512" xmlns="http://www.w3.org/2000/svg"><g><g id="icon_42_"><path d="m281.596 217.978c0-10.384-17.48-23.927-39.038-23.927s-39.038 13.555-39.038 23.927l-45.78-59.753c56.38 6.076 113.249 6.076 169.628 0z" fill="#414451"/><path d="m193.125 304.993c-11.144 15.111-45.827 26.255-107.094 18.328-54.578-7.072-61.845-49.539-62.752-98.672l-.165.248-23.114-9.324v-30.469l53.011-15.853.413-.083c36.409-15.111 92.732-11.48 92.732-11.48 18.75.355 37.397 2.876 55.568 7.514 15.281 3.62 26.606 16.5 28.241 32.119 3.535 48.55-27.346 94.707-36.84 107.672z" fill="#414451"/><path d="m182.505 297.791c-4.125 5.64-21.039 14.999-58.692 14.999-2.617 0-5.233 0-8.056-.2-9.264-.301-19.13-1.108-29.502-2.416-.879-.084-1.753-.218-2.617-.401-4.882-.694-9.675-1.909-14.297-3.624-2.263-.856-4.451-1.899-6.542-3.118-24.263-13.59-27.487-45.108-27.487-98.566 0-23.461 44.901-32.72 86.785-33.928 2.717 0 5.333-.1 7.956-.1h1.108c8.251 0 13.79.301 14.698.301h.1c10.721.245 21.414 1.186 32.013 2.817 7.801 1.098 15.532 2.645 23.155 4.632 8.833 1.983 15.499 9.252 16.714 18.222 3.425 46.315-28.894 92.625-35.336 101.382z" fill="#69b0ee"/><path d="m21.263 190.609h-6.359c-1.878-.002-3.402 1.519-3.404 3.397s1.519 3.402 3.397 3.404h.007 6.359c1.878-.002 3.399-1.526 3.397-3.404-.002-1.875-1.522-3.395-3.397-3.397z" fill="#575b6d"/><path d="m21.263 206.014h-6.359c-1.878-.002-3.402 1.519-3.404 3.397s1.519 3.402 3.397 3.404h.007 6.359c1.878-.002 3.399-1.526 3.397-3.404-.002-1.875-1.522-3.395-3.397-3.397z" fill="#575b6d"/><path d="m290.129 304.993c11.144 15.111 45.827 26.255 107.094 18.328 54.578-7.072 61.845-49.539 62.752-98.672l.165.248 23.114-9.323v-30.469l-53.011-15.853-.413-.083c-36.409-15.111-92.732-11.48-92.732-11.48-18.75.355-37.397 2.876-55.568 7.514-15.281 3.62-26.606 16.5-28.241 32.119-3.535 48.549 27.346 94.706 36.84 107.671z" fill="#414451"/><path d="m447.995 204.464c0 67.355-5.033 99.768-50.942 105.715-12.484 1.658-25.059 2.532-37.653 2.617-2.416 0-4.715 0-7.072-.1-10.632-.196-21.205-1.616-31.512-4.231-4.688-1.294-9.214-3.117-13.49-5.434-2.257-1.108-4.275-2.648-5.941-4.532-.301-.2-.401-.501-.589-.701-6.542-8.758-38.761-55.073-35.36-101.366 1.178-8.988 7.861-16.274 16.714-18.222 18.013-4.577 36.491-7.076 55.073-7.449.301 0 6.041-.301 14.898-.301 2.216 0 4.326 0 6.542.1 2.617 0 5.233.1 7.856.2 5.133.2 10.372.589 15.405 1.108 10.498.874 20.905 2.625 31.111 5.233 20.362 5.216 34.96 13.974 34.96 27.363z" fill="#69b0ee"/><path d="m461.991 190.609h6.359c1.878.002 3.399 1.526 3.397 3.404-.002 1.875-1.522 3.395-3.397 3.397h-6.359c-1.878-.002-3.399-1.526-3.397-3.404.003-1.875 1.522-3.395 3.397-3.397z" fill="#575b6d"/><path d="m461.991 206.014h6.359c1.878.002 3.399 1.526 3.397 3.404-.002 1.875-1.522 3.395-3.397 3.397h-6.359c-1.878-.002-3.399-1.526-3.397-3.404.003-1.875 1.522-3.395 3.397-3.397z" fill="#575b6d"/><g fill="#eeefee"><g opacity=".5"><path d="m366.566 170.737-59.222 132.294c-2.257-1.108-4.275-2.648-5.941-4.532l57.283-127.962c2.623-.001 5.24.099 7.88.2z"/><path d="m413.059 177.078-60.702 135.612c-10.632-.196-21.205-1.616-31.512-4.231l61.102-136.614c10.499.874 20.905 2.624 31.112 5.233z"/></g><g opacity=".5"><path d="m130.048 170.436-60.701 135.712c-2.263-.856-4.451-1.899-6.542-3.118l59.293-132.494c2.717 0 5.334-.1 7.95-.1z"/><path d="m177.979 173.554-62.222 139.042c-9.264-.301-19.13-1.108-29.502-2.416-.879-.084-1.753-.218-2.617-.401l62.216-139.042h.1c10.725.244 21.423 1.185 32.025 2.817z"/></g></g></g></g></svg>