<svg width="483.254" height="483.254" xmlns="http://www.w3.org/2000/svg">

 <g>
  <title>background</title>
  <rect fill="none" id="canvas_background" height="402" width="582" y="-1" x="-1"/>
 </g>
 <g>
  <title>Layer 1</title>
  <g id="svg_1">
   <g id="icon_42_">
    <path id="svg_2" fill="#000000" d="m281.596,217.978c0,-10.384 -17.48,-23.927 -39.038,-23.927s-39.038,13.555 -39.038,23.927l-45.78,-59.753c56.38,6.076 113.249,6.076 169.628,0l-45.772,59.753z"/>
    <path id="svg_3" fill="#000000" d="m193.125,306.993c-11.144,15.111 -45.827,26.255 -107.094,18.328c-54.578,-7.072 -61.845,-49.539 -62.752,-98.672l-0.165,0.248l-23.114,-9.324l0,-30.469l53.011,-15.853l0.413,-0.083c36.409,-15.111 92.732,-11.48 92.732,-11.48c18.75,0.355 37.397,2.876 55.568,7.514c15.281,3.62 26.606,16.5 28.241,32.119c3.535,48.55 -27.346,94.707 -36.84,107.672z"/>
    <path id="svg_4" fill="#514d4d" d="m182.505,297.791c-4.125,5.64 -21.039,14.999 -58.692,14.999c-2.617,0 -5.233,0 -8.056,-0.2c-9.264,-0.301 -19.13,-1.108 -29.502,-2.416c-0.879,-0.084 -1.753,-0.218 -2.617,-0.401c-4.882,-0.694 -9.675,-1.909 -14.297,-3.624c-2.263,-0.856 -4.451,-1.899 -6.542,-3.118c-24.263,-13.59 -27.487,-45.108 -27.487,-98.566c0,-23.461 44.901,-32.72 86.785,-33.928c2.717,0 5.333,-0.1 7.956,-0.1l1.108,0c8.251,0 13.79,0.301 14.698,0.301l0.1,0c10.721,0.245 21.414,1.186 32.013,2.817c7.801,1.098 15.532,2.645 23.155,4.632c8.833,1.983 15.499,9.252 16.714,18.222c3.425,46.315 -28.894,92.625 -35.336,101.382z"/>
    <path stroke="null" id="svg_5" fill="#514d4d" d="m20.521131,191.609001l-5.875793,0c-1.735295,-0.002294 -3.143489,1.742349 -3.145337,3.896485s1.403575,3.90222 3.138869,3.904514l0.006468,0l5.875793,0c1.735295,-0.002294 3.140717,-1.750379 3.138869,-3.904514c-0.001848,-2.150694 -1.406347,-3.894191 -3.138869,-3.896485z"/>
    <path id="svg_6" fill="#575b6d" d="m21.263,206.014l-6.359,0c-1.878,-0.002 -3.402,1.519 -3.404,3.397s1.519,3.402 3.397,3.404l0.007,0l6.359,0c1.878,-0.002 3.399,-1.526 3.397,-3.404c-0.002,-1.875 -1.522,-3.395 -3.397,-3.397z"/>
    <path id="svg_7" fill="#000000" d="m289.129,304.993c11.144,15.111 45.827,26.255 107.094,18.328c54.578,-7.072 61.845,-49.539 62.752,-98.672l0.165,0.248l23.114,-9.323l0,-30.469l-53.011,-15.853l-0.413,-0.083c-36.409,-15.111 -92.732,-11.48 -92.732,-11.48c-18.75,0.355 -37.397,2.876 -55.568,7.514c-15.281,3.62 -26.606,16.5 -28.241,32.119c-3.535,48.549 27.346,94.706 36.84,107.671z"/>
    <path id="svg_8" fill="#514d4d" d="m448.995,203.464c0,67.355 -5.033,99.768 -50.942,105.715c-12.484,1.658 -25.059,2.532 -37.653,2.617c-2.416,0 -4.715,0 -7.072,-0.1c-10.632,-0.196 -21.205,-1.616 -31.512,-4.231c-4.688,-1.294 -9.214,-3.117 -13.49,-5.434c-2.257,-1.108 -4.275,-2.648 -5.941,-4.532c-0.301,-0.2 -0.401,-0.501 -0.589,-0.701c-6.542,-8.758 -38.761,-55.073 -35.36,-101.366c1.178,-8.988 7.861,-16.274 16.714,-18.222c18.013,-4.577 36.491,-7.076 55.073,-7.449c0.301,0 6.041,-0.301 14.898,-0.301c2.216,0 4.326,0 6.542,0.1c2.617,0 5.233,0.1 7.856,0.2c5.133,0.2 10.372,0.589 15.405,1.108c10.498,0.874 20.905,2.625 31.111,5.233c20.362,5.216 34.96,13.974 34.96,27.363z"/>
    <path id="svg_9" fill="#575b6d" d="m461.991,190.609l6.359,0c1.878,0.002 3.399,1.526 3.397,3.404c-0.002,1.875 -1.522,3.395 -3.397,3.397l-6.359,0c-1.878,-0.002 -3.399,-1.526 -3.397,-3.404c0.003,-1.875 1.522,-3.395 3.397,-3.397z"/>
    <path id="svg_10" fill="#575b6d" d="m461.991,206.014l6.359,0c1.878,0.002 3.399,1.526 3.397,3.404c-0.002,1.875 -1.522,3.395 -3.397,3.397l-6.359,0c-1.878,-0.002 -3.399,-1.526 -3.397,-3.404c0.003,-1.875 1.522,-3.395 3.397,-3.397z"/>
    <g id="svg_11" fill="#eeefee">
     <g id="svg_12" opacity="0.5">
      <path id="svg_13" d="m366.566,171.737l-59.222,132.294c-2.257,-1.108 -4.275,-2.648 -5.941,-4.532l57.283,-127.962c2.623,-0.001 5.24,0.099 7.88,0.2z"/>
      <path id="svg_14" d="m413.059,178.078l-60.702,135.612c-10.632,-0.196 -21.205,-1.616 -31.512,-4.231l61.102,-136.614c10.499,0.874 20.905,2.624 31.112,5.233z"/>
     </g>
     <g id="svg_15" opacity="0.5">
      <path id="svg_16" d="m130.048,171.436l-60.701,135.712c-2.263,-0.856 -4.451,-1.899 -6.542,-3.118l59.293,-132.494c2.717,0 5.334,-0.1 7.95,-0.1z"/>
      <path id="svg_17" d="m177.979,174.554l-62.222,139.042c-9.264,-0.301 -19.13,-1.108 -29.502,-2.416c-0.879,-0.084 -1.753,-0.218 -2.617,-0.401l62.216,-139.042l0.1,0c10.725,0.244 21.423,1.185 32.025,2.817z"/>
     </g>
    </g>
   </g>
  </g>
 </g>
</svg>