<svg width="479.99999999999994" height="479.99999999999994" xmlns="http://www.w3.org/2000/svg">

 <g>
  <title>background</title>
  <rect fill="none" id="canvas_background" height="402" width="582" y="-1" x="-1"/>
 </g>
 <g>
  <title>Layer 1</title>
  <path id="svg_1" fill="#514d4d" d="m352,88l0,-48l-48,0c0,26.51 21.49,48 48,48z"/>
  <path id="svg_2" fill="#514d4d" d="m303,40l-32,0l0,48c0,8.837 -7.163,16 -16,16l-16,0l0,-64l-64,0c0,26.51 -21.49,48 -48,48l0,384l88,0l24,-312l24,312l88,0l0,-384c-26.51,0 -48,-21.49 -48,-48z"/>
  <path id="svg_3" fill="#514d4d" d="m175,40l-48,0l0,48c26.51,0 48,-21.49 48,-48z"/>
  <g id="svg_4">
   <path id="svg_5" fill="#514d4d" d="m239.310345,39.310345l0,-32l-112,0l0,32l48,0l64,0z"/>
   <path id="svg_6" fill="#514d4d" d="m302.310345,39.310345l48,0l0,-32l-80,0l0,32l32,0z"/>
  </g>
  <g id="svg_7">
   <path id="svg_8" fill="#514d4d" d="m256,104.689655c8.837,0 16,-7.163 16,-16l0,-48l-32,0l0,64l16,0z"/>
   <path id="svg_9" fill="#514d4d" d="m240,8.689655l32,0l0,32l-32,0l0,-32z"/>
  </g>
  <path id="svg_10" fill="#000000" d="m352,0.68966l-224,0c-4.418,0 -8,3.582 -8,8l0,464c0,4.418 3.582,8 8,8l88,0c4.188,0.012 7.678,-3.208 8,-7.384l16,-208.312l16,208.312c0.323,4.176 3.812,7.396 8,7.384l88,0c4.418,0 8,-3.582 8,-8l0,-464c0,-4.418 -3.582,-8 -8,-8l0,0zm-8,32l-64,0l0,-16l64,0l0,16zm0,16l0,31.2c-15.698,-3.236 -27.964,-15.502 -31.2,-31.2l31.2,0zm-80,-32l0,16l-16,0l0,-16l16,0zm-16,32l16,0l0,40c0,4.418 -3.582,8 -8,8l-8,0l0,-48zm-112,-32l96,0l0,16l-96,0l0,-16zm31.2,32c-3.236,15.698 -15.502,27.964 -31.2,31.2l0,-31.2l31.2,0zm104.208,416l-23.408,-304.616c-0.342,-4.405 -4.19,-7.699 -8.595,-7.357c-3.93,0.305 -7.052,3.427 -7.357,7.357l-23.456,304.616l-72.592,0l0,-368.64c24.528,-3.566 43.794,-22.832 47.36,-47.36l48.64,0l0,56c0,4.418 3.582,8 8,8l16,0c13.255,0 24,-10.745 24,-24l0,-40l16.64,0c3.566,24.528 22.832,43.794 47.36,47.36l0,368.64l-72.592,0z"/>
  <g id="svg_11"/>
  <g id="svg_12"/>
  <g id="svg_13"/>
  <g id="svg_14"/>
  <g id="svg_15"/>
  <g id="svg_16"/>
  <g id="svg_17"/>
  <g id="svg_18"/>
  <g id="svg_19"/>
  <g id="svg_20"/>
  <g id="svg_21"/>
  <g id="svg_22"/>
  <g id="svg_23"/>
  <g id="svg_24"/>
  <g id="svg_25"/>
 </g>
</svg>