<?xml version="1.0" encoding="iso-8859-1"?>
<!-- Generator: Adobe Illustrator 19.0.0, SVG Export Plug-In . SVG Version: 6.00 Build 0)  -->
<svg version="1.1" id="Capa_1" xmlns="http://www.w3.org/2000/svg" xmlns:xlink="http://www.w3.org/1999/xlink" x="0px" y="0px"
	 viewBox="0 0 480 480" style="enable-background:new 0 0 480 480;" xml:space="preserve">
<path style="fill:#78B9EB;" d="M352,88V40h-48C304,66.51,325.49,88,352,88z"/>
<path style="fill:#5AAAE7;" d="M304,40h-32v48c0,8.837-7.163,16-16,16h-16V40h-64c0,26.51-21.49,48-48,48v384h88l24-312l24,312h88
	V88C325.49,88,304,66.51,304,40z"/>
<path style="fill:#78B9EB;" d="M176,40h-48v48C154.51,88,176,66.51,176,40z"/>
<g>
	<path style="fill:#5AAAE7;" d="M240,40V8H128v32h48H240z"/>
	<path style="fill:#5AAAE7;" d="M304,40h48V8h-80v32H304z"/>
</g>
<g>
	<path style="fill:#78B9EB;" d="M256,104c8.837,0,16-7.163,16-16V40h-32v64H256z"/>
	<path style="fill:#78B9EB;" d="M240,8h32v32h-32V8z"/>
</g>
<path style="fill:#3E3D42;" d="M352,0H128c-4.418,0-8,3.582-8,8v464c0,4.418,3.582,8,8,8h88c4.188,0.012,7.678-3.208,8-7.384
	l16-208.312l16,208.312c0.323,4.176,3.812,7.396,8,7.384h88c4.418,0,8-3.582,8-8V8C360,3.582,356.418,0,352,0L352,0z M344,32h-64V16
	h64V32z M344,48v31.2c-15.698-3.236-27.964-15.502-31.2-31.2L344,48z M264,16v16h-16V16H264z M248,48h16v40c0,4.418-3.582,8-8,8h-8
	V48z M136,16h96v16h-96V16z M167.2,48c-3.236,15.698-15.502,27.964-31.2,31.2V48L167.2,48z M271.408,464L248,159.384
	c-0.342-4.405-4.19-7.699-8.595-7.357c-3.93,0.305-7.052,3.427-7.357,7.357L208.592,464H136V95.36
	c24.528-3.566,43.794-22.832,47.36-47.36H232v56c0,4.418,3.582,8,8,8h16c13.255,0,24-10.745,24-24V48h16.64
	c3.566,24.528,22.832,43.794,47.36,47.36V464H271.408z"/>
<g>
</g>
<g>
</g>
<g>
</g>
<g>
</g>
<g>
</g>
<g>
</g>
<g>
</g>
<g>
</g>
<g>
</g>
<g>
</g>
<g>
</g>
<g>
</g>
<g>
</g>
<g>
</g>
<g>
</g>
</svg>
