<svg width="189" height="524" viewBox="0 0 189 524" fill="none" xmlns="http://www.w3.org/2000/svg">
<mask id="path-1-inside-1" fill="white">
<path d="M48.4339 493.326C45.0708 489.879 44.9993 488.542 48.5054 485.658C52.0116 482.703 55.804 480.029 59.8826 476.934C57.8075 474.612 55.8755 472.22 53.5858 470.039C50.3658 466.944 50.2943 466.1 54.1582 464.059C56.0186 463.145 56.3048 462.16 55.8755 460.12C51.7969 441.336 48.0761 422.481 46.2872 403.346C45.2139 391.315 44.713 379.285 43.7113 367.255C42.4233 351.144 40.9207 335.104 39.5611 318.993C39.418 317.094 38.7025 315.757 37.1283 314.561C32.3341 311.114 27.6115 307.596 22.9605 303.938C22.0303 303.234 21.2432 302.038 20.8854 300.913C19.025 294.652 18.4526 288.249 18.2379 281.707C17.8801 270.31 16.6637 258.983 15.8051 247.586C15.7335 246.953 15.662 246.249 15.3042 245.757C11.798 240.973 11.2971 235.345 11.0109 229.857C10.5816 220.782 10.2238 211.636 10.51 202.561C10.6532 196.229 12.2989 189.897 12.5136 183.566C12.7282 175.686 12.2274 167.807 11.8696 159.927C11.798 158.942 11.154 157.817 10.4385 157.113C7.21854 154.158 3.92704 151.274 0.492432 148.249C2.20974 146.138 4.21326 143.676 6.07367 141.214C10.5816 135.163 13.5153 128.339 15.8766 121.304C19.4543 110.54 26.1805 102.45 36.2696 96.6806C45.5717 91.2635 54.3013 84.8615 63.3172 78.9519C64.5336 78.178 65.9647 77.2634 67.3242 77.1227C69.614 76.8413 70.4011 75.8564 70.3295 73.6755C70.2579 71.7056 70.4011 69.8061 70.6873 67.8363C71.1882 63.6151 71.0451 59.5347 68.8984 55.6653C67.8967 53.7658 67.2527 51.7256 66.7518 49.6854C66.1794 47.5748 65.75 45.5346 62.1008 46.3789C62.6016 43.002 62.387 39.8361 63.6034 37.3034C65.8216 32.6602 63.8181 27.9466 64.6767 23.3737C64.9629 21.8963 64.8198 20.4189 64.9629 18.9415C65.8216 10.9214 71.9753 6.98167 78.1289 3.253C85.4275 -1.17918 94.1571 -0.475659 100.597 5.08216C104.532 8.45906 107.967 12.3988 111.545 16.1978C112.046 16.7606 112.403 17.7455 112.403 18.5194C112.332 23.233 112.26 27.9466 111.974 32.5898C111.831 34.7004 111.115 36.811 113.262 38.4291C113.691 38.7808 114.121 39.5547 114.049 40.1175C113.691 44.1979 114.049 48.1377 111.115 51.9367C109.255 54.3287 108.969 58.1277 108.468 61.3639C108.11 63.6855 108.611 66.2182 108.396 68.6101C108.039 73.183 111.187 74.5901 114.121 75.786C121.706 78.8112 129.72 80.9218 136.732 85.4946C142.743 89.364 149.039 92.7409 155.05 96.6103C157.411 98.158 159.343 100.409 161.49 102.379C163.994 104.701 166.284 107.233 168.86 109.485C172.438 112.51 174.727 116.239 176.087 120.6C177.232 124.118 178.162 127.706 179.164 131.294C180.953 137.977 182.527 144.661 188.394 149.585C187.035 150.57 186.033 151.415 184.96 152.048C182.097 153.736 181.024 156.269 181.453 159.364C181.811 161.756 182.169 164.219 183.242 166.329C186.248 172.028 186.749 178.148 187.536 184.339C189.324 198.269 187.321 212.128 186.033 225.988C184.96 238.37 182.885 250.681 181.525 262.993C181.239 265.596 182.097 268.551 183.171 271.084C186.748 279.737 185.174 287.194 180.022 295.003C176.445 300.35 172.938 304.993 167.214 308.089C162.277 310.762 157.697 314.139 152.903 317.094C151.472 317.938 151.186 318.853 151.544 320.471C153.547 330.953 155.336 341.436 157.197 351.918C157.34 352.833 157.34 353.747 157.34 354.662C157.34 369.717 157.411 384.773 157.34 399.758C157.34 404.119 156.553 408.411 156.481 412.773C156.409 416.22 156.266 419.738 157.197 422.974C158.985 429.235 158.413 435.496 157.841 441.758C157.34 447.034 156.481 452.311 155.765 457.868C156.338 458.08 157.34 458.431 158.628 458.853C158.413 463.989 159.844 469.336 155.622 473.909C156.91 474.683 157.769 475.386 158.771 475.879C164.567 478.904 167.787 483.828 169.146 489.949C169.79 492.693 170.005 495.577 171.221 498.04C174.155 504.16 171.007 509.014 168.073 513.798C166.355 516.613 163.064 517.668 159.916 517.527C154.764 517.246 149.612 516.612 144.603 515.628C143.029 515.346 141.598 513.658 140.453 512.321C139.379 511.195 138.807 509.577 137.877 508.311C135.301 504.864 133.87 500.994 133.727 496.703C133.655 494.592 132.653 492.974 130.936 491.567C128.933 489.879 127.287 487.838 125.641 485.798C125.212 485.235 125.212 484.18 125.426 483.406C125.713 482.351 126.357 481.366 127.001 480.1C125.856 479.115 124.711 477.989 123.494 477.075C119.63 474.401 117.985 470.532 116.983 466.1C116.196 462.512 114.622 459.135 113.548 455.547C110.901 446.542 111.402 437.396 111.688 428.18C112.189 413.898 112.046 399.617 111.903 385.335C111.831 377.456 110.901 369.577 110.686 361.697C110.543 355.225 108.325 349.174 105.749 343.546C101.384 334.26 100.525 324.481 99.8099 314.632C99.6668 312.451 99.3806 310.199 98.7366 308.018C98.3788 312.521 98.021 317.094 97.5917 321.596C96.2322 337.004 94.8011 352.481 93.6562 367.958C93.2985 372.461 93.7993 377.034 93.7993 381.607C94.014 398.773 94.0856 415.939 94.5864 433.105C94.8727 442.813 95.946 452.522 96.8762 462.23C97.0193 463.989 97.9495 465.748 98.5935 467.507C99.953 471.235 99.1659 474.12 95.6598 476.23C93.8709 477.286 93.4416 478.552 93.37 480.522C93.2985 483.266 93.2985 486.361 92.082 488.683C90.8656 490.934 88.1465 492.341 86.0715 494.17C85.9284 494.311 85.7137 494.381 85.5706 494.381C79.4169 495.507 77.6996 499.728 77.5565 505.145C77.4849 506.834 77.1987 508.452 76.841 510.07C76.0539 513.728 74.0503 516.331 70.6873 518.231C63.5318 522.241 56.2333 524.562 48.0045 522.592C46.645 522.241 45.2855 521.889 43.9975 521.326C37.1998 518.582 36.1265 515.909 38.2731 509.014C40.4198 502.894 43.4251 497.547 48.4339 493.326ZM152.545 202.561C154.334 226.129 155.694 249.626 152.832 273.194C155.622 268.621 158.628 264.189 159.057 258.561C159.486 252.722 159.701 246.882 160.488 241.114C162.348 227.395 158.556 214.802 152.545 202.561ZM36.4843 224.792C36.1981 226.129 36.055 226.762 35.9834 227.325C35.5541 234.923 35.0532 242.521 34.767 250.119C34.6239 254.058 34.8385 258.068 35.2679 262.008C35.411 263.486 36.6989 264.752 37.486 266.159C38.4878 262.36 39.0602 259.053 39.3465 255.676C39.7042 252.088 39.7758 248.501 39.9905 244.913C40.062 242.732 40.1336 240.48 40.2051 238.299C40.2051 237.596 40.4913 236.752 40.2767 236.119C39.1318 232.531 37.9154 229.083 36.4843 224.792Z"/>
</mask>
<path d="M48.4339 493.326C45.0708 489.879 44.9993 488.542 48.5054 485.658C52.0116 482.703 55.804 480.029 59.8826 476.934C57.8075 474.612 55.8755 472.22 53.5858 470.039C50.3658 466.944 50.2943 466.1 54.1582 464.059C56.0186 463.145 56.3048 462.16 55.8755 460.12C51.7969 441.336 48.0761 422.481 46.2872 403.346C45.2139 391.315 44.713 379.285 43.7113 367.255C42.4233 351.144 40.9207 335.104 39.5611 318.993C39.418 317.094 38.7025 315.757 37.1283 314.561C32.3341 311.114 27.6115 307.596 22.9605 303.938C22.0303 303.234 21.2432 302.038 20.8854 300.913C19.025 294.652 18.4526 288.249 18.2379 281.707C17.8801 270.31 16.6637 258.983 15.8051 247.586C15.7335 246.953 15.662 246.249 15.3042 245.757C11.798 240.973 11.2971 235.345 11.0109 229.857C10.5816 220.782 10.2238 211.636 10.51 202.561C10.6532 196.229 12.2989 189.897 12.5136 183.566C12.7282 175.686 12.2274 167.807 11.8696 159.927C11.798 158.942 11.154 157.817 10.4385 157.113C7.21854 154.158 3.92704 151.274 0.492432 148.249C2.20974 146.138 4.21326 143.676 6.07367 141.214C10.5816 135.163 13.5153 128.339 15.8766 121.304C19.4543 110.54 26.1805 102.45 36.2696 96.6806C45.5717 91.2635 54.3013 84.8615 63.3172 78.9519C64.5336 78.178 65.9647 77.2634 67.3242 77.1227C69.614 76.8413 70.4011 75.8564 70.3295 73.6755C70.2579 71.7056 70.4011 69.8061 70.6873 67.8363C71.1882 63.6151 71.0451 59.5347 68.8984 55.6653C67.8967 53.7658 67.2527 51.7256 66.7518 49.6854C66.1794 47.5748 65.75 45.5346 62.1008 46.3789C62.6016 43.002 62.387 39.8361 63.6034 37.3034C65.8216 32.6602 63.8181 27.9466 64.6767 23.3737C64.9629 21.8963 64.8198 20.4189 64.9629 18.9415C65.8216 10.9214 71.9753 6.98167 78.1289 3.253C85.4275 -1.17918 94.1571 -0.475659 100.597 5.08216C104.532 8.45906 107.967 12.3988 111.545 16.1978C112.046 16.7606 112.403 17.7455 112.403 18.5194C112.332 23.233 112.26 27.9466 111.974 32.5898C111.831 34.7004 111.115 36.811 113.262 38.4291C113.691 38.7808 114.121 39.5547 114.049 40.1175C113.691 44.1979 114.049 48.1377 111.115 51.9367C109.255 54.3287 108.969 58.1277 108.468 61.3639C108.11 63.6855 108.611 66.2182 108.396 68.6101C108.039 73.183 111.187 74.5901 114.121 75.786C121.706 78.8112 129.72 80.9218 136.732 85.4946C142.743 89.364 149.039 92.7409 155.05 96.6103C157.411 98.158 159.343 100.409 161.49 102.379C163.994 104.701 166.284 107.233 168.86 109.485C172.438 112.51 174.727 116.239 176.087 120.6C177.232 124.118 178.162 127.706 179.164 131.294C180.953 137.977 182.527 144.661 188.394 149.585C187.035 150.57 186.033 151.415 184.96 152.048C182.097 153.736 181.024 156.269 181.453 159.364C181.811 161.756 182.169 164.219 183.242 166.329C186.248 172.028 186.749 178.148 187.536 184.339C189.324 198.269 187.321 212.128 186.033 225.988C184.96 238.37 182.885 250.681 181.525 262.993C181.239 265.596 182.097 268.551 183.171 271.084C186.748 279.737 185.174 287.194 180.022 295.003C176.445 300.35 172.938 304.993 167.214 308.089C162.277 310.762 157.697 314.139 152.903 317.094C151.472 317.938 151.186 318.853 151.544 320.471C153.547 330.953 155.336 341.436 157.197 351.918C157.34 352.833 157.34 353.747 157.34 354.662C157.34 369.717 157.411 384.773 157.34 399.758C157.34 404.119 156.553 408.411 156.481 412.773C156.409 416.22 156.266 419.738 157.197 422.974C158.985 429.235 158.413 435.496 157.841 441.758C157.34 447.034 156.481 452.311 155.765 457.868C156.338 458.08 157.34 458.431 158.628 458.853C158.413 463.989 159.844 469.336 155.622 473.909C156.91 474.683 157.769 475.386 158.771 475.879C164.567 478.904 167.787 483.828 169.146 489.949C169.79 492.693 170.005 495.577 171.221 498.04C174.155 504.16 171.007 509.014 168.073 513.798C166.355 516.613 163.064 517.668 159.916 517.527C154.764 517.246 149.612 516.612 144.603 515.628C143.029 515.346 141.598 513.658 140.453 512.321C139.379 511.195 138.807 509.577 137.877 508.311C135.301 504.864 133.87 500.994 133.727 496.703C133.655 494.592 132.653 492.974 130.936 491.567C128.933 489.879 127.287 487.838 125.641 485.798C125.212 485.235 125.212 484.18 125.426 483.406C125.713 482.351 126.357 481.366 127.001 480.1C125.856 479.115 124.711 477.989 123.494 477.075C119.63 474.401 117.985 470.532 116.983 466.1C116.196 462.512 114.622 459.135 113.548 455.547C110.901 446.542 111.402 437.396 111.688 428.18C112.189 413.898 112.046 399.617 111.903 385.335C111.831 377.456 110.901 369.577 110.686 361.697C110.543 355.225 108.325 349.174 105.749 343.546C101.384 334.26 100.525 324.481 99.8099 314.632C99.6668 312.451 99.3806 310.199 98.7366 308.018C98.3788 312.521 98.021 317.094 97.5917 321.596C96.2322 337.004 94.8011 352.481 93.6562 367.958C93.2985 372.461 93.7993 377.034 93.7993 381.607C94.014 398.773 94.0856 415.939 94.5864 433.105C94.8727 442.813 95.946 452.522 96.8762 462.23C97.0193 463.989 97.9495 465.748 98.5935 467.507C99.953 471.235 99.1659 474.12 95.6598 476.23C93.8709 477.286 93.4416 478.552 93.37 480.522C93.2985 483.266 93.2985 486.361 92.082 488.683C90.8656 490.934 88.1465 492.341 86.0715 494.17C85.9284 494.311 85.7137 494.381 85.5706 494.381C79.4169 495.507 77.6996 499.728 77.5565 505.145C77.4849 506.834 77.1987 508.452 76.841 510.07C76.0539 513.728 74.0503 516.331 70.6873 518.231C63.5318 522.241 56.2333 524.562 48.0045 522.592C46.645 522.241 45.2855 521.889 43.9975 521.326C37.1998 518.582 36.1265 515.909 38.2731 509.014C40.4198 502.894 43.4251 497.547 48.4339 493.326ZM152.545 202.561C154.334 226.129 155.694 249.626 152.832 273.194C155.622 268.621 158.628 264.189 159.057 258.561C159.486 252.722 159.701 246.882 160.488 241.114C162.348 227.395 158.556 214.802 152.545 202.561ZM36.4843 224.792C36.1981 226.129 36.055 226.762 35.9834 227.325C35.5541 234.923 35.0532 242.521 34.767 250.119C34.6239 254.058 34.8385 258.068 35.2679 262.008C35.411 263.486 36.6989 264.752 37.486 266.159C38.4878 262.36 39.0602 259.053 39.3465 255.676C39.7042 252.088 39.7758 248.501 39.9905 244.913C40.062 242.732 40.1336 240.48 40.2051 238.299C40.2051 237.596 40.4913 236.752 40.2767 236.119C39.1318 232.531 37.9154 229.083 36.4843 224.792Z" fill="#57545A" fill-opacity="0.2" stroke="white" stroke-opacity="0.6" stroke-width="2" mask="url(#path-1-inside-1)"/>
</svg>
