<svg width="512" height="512" xmlns="http://www.w3.org/2000/svg">

 <g>
  <title>background</title>
  <rect fill="none" id="canvas_background" height="402" width="582" y="-1" x="-1"/>
 </g>
 <g>
  <title>Layer 1</title>
  <g id="XMLID_1148_">
   <path fill="#514d4d" d="m331,356.25l0,41.75c0,11.046 -8.954,20 -20,20l-108,0c-11.046,0 -20,-8.954 -20,-20l0,-41.75l0,-200.5l0,-41.75c0,-11.046 8.954,-20 20,-20l108,0c11.046,0 20,8.954 20,20l0,41.75l0,200.5z" id="XMLID_2798_"/>
   <path fill="#514d4d" d="m201,10l112,0l0,84l-112,0l0,-84z" id="XMLID_2797_"/>
   <path fill="#514d4d" d="m201,418l112,0l0,84l-112,0l0,-84z" id="XMLID_2796_"/>
   <circle r="122" fill="#514d4d" cy="256" cx="257" id="XMLID_2795_"/>
   <circle r="78" fill="#514d4d" cy="256" cx="258" id="XMLID_2794_"/>
   <g id="XMLID_321_">
    <path d="m374.358,290.92c-5.141,-2.002 -10.942,0.544 -12.946,5.691c-16.88,43.368 -57.864,71.389 -104.412,71.389c-61.757,0 -112,-50.243 -112,-112s50.243,-112 112,-112c46.548,0 87.532,28.022 104.413,71.39c2.004,5.146 7.801,7.696 12.946,5.691c5.147,-2.003 7.695,-7.799 5.692,-12.946c-8.226,-21.132 -21.631,-39.593 -39.052,-53.952l0,-40.183c0,-12.277 -7.416,-22.849 -18,-27.488l0,-76.512c0,-5.523 -4.478,-10 -10,-10l-111.999,0c-5.523,0 -10,4.477 -10,10l0,76.512c-10.584,4.639 -18,15.211 -18,27.488l0,40.251c-29.299,24.231 -48,60.847 -48,101.749s18.701,77.518 48,101.749l0,40.251c0,12.277 7.416,22.849 18,27.488l0,76.512c0,5.523 4.477,10 10,10l112,0c5.522,0 10,-4.477 10,-10l0,-76.512c10.584,-4.639 18,-15.211 18,-27.488l0,-40.183c17.42,-14.358 30.825,-32.818 39.051,-53.95c2.003,-5.147 -0.545,-10.943 -5.693,-12.947zm-71.358,-270.92l0,64l-92,0l0,-64l92,0zm-110,94c0,-5.514 4.486,-10 10,-10l108,0c5.514,0 10,4.486 10,10l0,26.547c-19.507,-10.847 -41.38,-16.547 -64,-16.547c-23.208,0 -45.031,6.028 -64,16.589l0,-26.589zm64,274c22.62,0 44.492,-5.7 64,-16.547l0,26.547c0,5.514 -4.486,10 -10,10l-108,0c-5.514,0 -10,-4.486 -10,-10l0,-26.589c18.969,10.561 40.792,16.589 64,16.589zm-46,104l0,-64l92,0l0,64l-92,0z" id="XMLID_346_"/>
    <path d="m257,168c-48.523,0 -88,39.477 -88,88s39.477,88 88,88s88,-39.477 88,-88s-39.477,-88 -88,-88zm0,156c-37.495,0 -68,-30.505 -68,-68s30.505,-68 68,-68s68,30.505 68,68s-30.505,68 -68,68z" id="XMLID_1315_"/>
    <path d="m276.096,222.762l-19.096,19.096l-8.263,-8.264c-3.905,-3.905 -10.237,-3.905 -14.143,0c-3.905,3.905 -3.905,10.237 0,14.143l15.334,15.334c1.954,1.953 4.512,2.929 7.072,2.929c2.559,0 5.118,-0.977 7.071,-2.929l26.167,-26.167c3.905,-3.905 3.905,-10.237 0,-14.142s-10.235,-3.904 -14.142,0z" id="XMLID_1316_"/>
    <path d="m65,82c-5.523,0 -10,4.477 -10,10l0,12.43c0,5.523 4.477,10 10,10s10,-4.477 10,-10l0,-12.43c0,-5.523 -4.477,-10 -10,-10z" id="XMLID_1317_"/>
    <path d="m65,141.57c-5.523,0 -10,4.477 -10,10l0,12.43c0,5.523 4.477,10 10,10s10,-4.477 10,-10l0,-12.43c0,-5.523 -4.477,-10 -10,-10z" id="XMLID_1318_"/>
    <path d="m41.43,118l-12.43,0c-5.523,0 -10,4.477 -10,10s4.477,10 10,10l12.43,0c5.523,0 10,-4.477 10,-10s-4.477,-10 -10,-10z" id="XMLID_1319_"/>
    <path d="m101,118l-12.43,0c-5.523,0 -10,4.477 -10,10s4.477,10 10,10l12.43,0c5.523,0 10,-4.477 10,-10s-4.477,-10 -10,-10z" id="XMLID_1320_"/>
    <path d="m449,338c-5.522,0 -10,4.477 -10,10l0,12.43c0,5.523 4.478,10 10,10s10,-4.477 10,-10l0,-12.43c0,-5.523 -4.478,-10 -10,-10z" id="XMLID_1321_"/>
    <path d="m449,397.57c-5.522,0 -10,4.477 -10,10l0,12.43c0,5.523 4.478,10 10,10s10,-4.477 10,-10l0,-12.43c0,-5.523 -4.478,-10 -10,-10z" id="XMLID_1326_"/>
    <path d="m425.43,374l-12.43,0c-5.522,0 -10,4.477 -10,10s4.478,10 10,10l12.43,0c5.522,0 10,-4.477 10,-10s-4.478,-10 -10,-10z" id="XMLID_1331_"/>
    <path d="m485,374l-12.43,0c-5.522,0 -10,4.477 -10,10s4.478,10 10,10l12.43,0c5.522,0 10,-4.477 10,-10s-4.478,-10 -10,-10z" id="XMLID_1334_"/>
    <path d="m379,246c-2.63,0 -5.21,1.07 -7.07,2.93s-2.93,4.44 -2.93,7.07s1.069,5.21 2.93,7.07s4.44,2.93 7.07,2.93s5.21,-1.07 7.069,-2.93c1.86,-1.86 2.931,-4.44 2.931,-7.07s-1.07,-5.21 -2.931,-7.07c-1.859,-1.86 -4.439,-2.93 -7.069,-2.93z" id="XMLID_1335_"/>
   </g>
  </g>
 </g>
</svg>