<svg id="Capa_1" enable-background="new 0 0 512 512" height="512" viewBox="0 0 512 512" width="512" xmlns="http://www.w3.org/2000/svg"><g id="XMLID_1148_"><path id="XMLID_2798_" d="m330 356.25v41.75c0 11.046-8.954 20-20 20h-108c-11.046 0-20-8.954-20-20v-41.75-200.5-41.75c0-11.046 8.954-20 20-20h108c11.046 0 20 8.954 20 20v41.75z" fill="#ffcd69"/><path id="XMLID_2797_" d="m200 10h112v84h-112z" fill="#8aa8bd"/><path id="XMLID_2796_" d="m200 418h112v84h-112z" fill="#8aa8bd"/><circle id="XMLID_2795_" cx="256" cy="256" fill="#ffcd69" r="122"/><circle id="XMLID_2794_" cx="256" cy="256" fill="#fff" r="78"/><g id="XMLID_321_"><path id="XMLID_346_" d="m373.358 290.92c-5.141-2.002-10.942.544-12.946 5.691-16.88 43.368-57.864 71.389-104.412 71.389-61.757 0-112-50.243-112-112s50.243-112 112-112c46.548 0 87.532 28.022 104.413 71.39 2.004 5.146 7.801 7.696 12.946 5.691 5.147-2.003 7.695-7.799 5.692-12.946-8.226-21.132-21.631-39.593-39.052-53.952v-40.183c0-12.277-7.416-22.849-18-27.488v-76.512c0-5.523-4.478-10-10-10h-111.999c-5.523 0-10 4.477-10 10v76.512c-10.584 4.639-18 15.211-18 27.488v40.251c-29.299 24.231-48 60.847-48 101.749s18.701 77.518 48 101.749v40.251c0 12.277 7.416 22.849 18 27.488v76.512c0 5.523 4.477 10 10 10h112c5.522 0 10-4.477 10-10v-76.512c10.584-4.639 18-15.211 18-27.488v-40.183c17.42-14.358 30.825-32.818 39.051-53.95 2.003-5.147-.545-10.943-5.693-12.947zm-71.358-270.92v64h-92v-64zm-110 94c0-5.514 4.486-10 10-10h108c5.514 0 10 4.486 10 10v26.547c-19.507-10.847-41.38-16.547-64-16.547-23.208 0-45.031 6.028-64 16.589zm64 274c22.62 0 44.492-5.7 64-16.547v26.547c0 5.514-4.486 10-10 10h-108c-5.514 0-10-4.486-10-10v-26.589c18.969 10.561 40.792 16.589 64 16.589zm-46 104v-64h92v64z"/><path id="XMLID_1315_" d="m256 168c-48.523 0-88 39.477-88 88s39.477 88 88 88 88-39.477 88-88-39.477-88-88-88zm0 156c-37.495 0-68-30.505-68-68s30.505-68 68-68 68 30.505 68 68-30.505 68-68 68z"/><path id="XMLID_1316_" d="m275.096 222.762-19.096 19.096-8.263-8.264c-3.905-3.905-10.237-3.905-14.143 0-3.905 3.905-3.905 10.237 0 14.143l15.334 15.334c1.954 1.953 4.512 2.929 7.072 2.929 2.559 0 5.118-.977 7.071-2.929l26.167-26.167c3.905-3.905 3.905-10.237 0-14.142s-10.235-3.904-14.142 0z"/><path id="XMLID_1317_" d="m64 82c-5.523 0-10 4.477-10 10v12.43c0 5.523 4.477 10 10 10s10-4.477 10-10v-12.43c0-5.523-4.477-10-10-10z"/><path id="XMLID_1318_" d="m64 141.57c-5.523 0-10 4.477-10 10v12.43c0 5.523 4.477 10 10 10s10-4.477 10-10v-12.43c0-5.523-4.477-10-10-10z"/><path id="XMLID_1319_" d="m40.43 118h-12.43c-5.523 0-10 4.477-10 10s4.477 10 10 10h12.43c5.523 0 10-4.477 10-10s-4.477-10-10-10z"/><path id="XMLID_1320_" d="m100 118h-12.43c-5.523 0-10 4.477-10 10s4.477 10 10 10h12.43c5.523 0 10-4.477 10-10s-4.477-10-10-10z"/><path id="XMLID_1321_" d="m448 338c-5.522 0-10 4.477-10 10v12.43c0 5.523 4.478 10 10 10s10-4.477 10-10v-12.43c0-5.523-4.478-10-10-10z"/><path id="XMLID_1326_" d="m448 397.57c-5.522 0-10 4.477-10 10v12.43c0 5.523 4.478 10 10 10s10-4.477 10-10v-12.43c0-5.523-4.478-10-10-10z"/><path id="XMLID_1331_" d="m424.43 374h-12.43c-5.522 0-10 4.477-10 10s4.478 10 10 10h12.43c5.522 0 10-4.477 10-10s-4.478-10-10-10z"/><path id="XMLID_1334_" d="m484 374h-12.43c-5.522 0-10 4.477-10 10s4.478 10 10 10h12.43c5.522 0 10-4.477 10-10s-4.478-10-10-10z"/><path id="XMLID_1335_" d="m378 246c-2.63 0-5.21 1.07-7.07 2.93s-2.93 4.44-2.93 7.07 1.069 5.21 2.93 7.07 4.44 2.93 7.07 2.93 5.21-1.07 7.069-2.93c1.86-1.86 2.931-4.44 2.931-7.07s-1.07-5.21-2.931-7.07c-1.859-1.86-4.439-2.93-7.069-2.93z"/></g></g></svg>