<svg xmlns="http://www.w3.org/2000/svg" viewBox="0 0 24 44" height="45" width="24"><path d="M23.662 27.397a9.294 9.074 0 0 0-.81-1.92 6.655 6.497 0 0 0-1.363-1.595 16.279 15.893 0 0 0-1.594-1.255 15.548 15.179 0 0 0-1.941-1.068q-1.234-.59-1.954-.879-.72-.289-2.085-.791-1.208-.452-1.801-.69-.592-.238-1.555-.678a9.069 8.855 0 0 1-1.44-.778 11.315 11.047 0 0 1-1.016-.829 2.895 2.827 0 0 1-.759-1.042 3.458 3.376 0 0 1 1.328-3.989 6.688 6.529 0 0 1 3.983-1.08 8.572 8.369 0 0 1 2.199.289 11.501 11.229 0 0 1 1.916.653 13.305 12.99 0 0 1 1.505.804q.708.44 1.003.665l.373.299a.817.798 0 0 0 .694.175.702.685 0 0 0 .592-.399l2.083-3.666a.745.727 0 0 0-.129-.954l-.386-.352c-.155-.135-.488-.377-1.003-.729a12.414 12.12 0 0 0-1.634-.941 16.517 16.126 0 0 0-2.239-.841 14.268 13.93 0 0 0-2.842-.577v-4.424a.792.773 0 0 0-.823-.804h-3.472a.791.772 0 0 0-.579.238.791.772 0 0 0-.244.565v4.52a11.768 11.489 0 0 0-6.559 3.364 8.795 8.586 0 0 0-2.521 6.077 8.931 8.72 0 0 0 .219 1.958 10.269 10.026 0 0 0 .54 1.67 6.294 6.145 0 0 0 .913 1.457 15.975 15.597 0 0 0 1.123 1.23 9.084 8.869 0 0 0 1.376 1.067q.849.552 1.453.891.605.339 1.608.778 1.003.44 1.582.666.579.226 1.582.627 1.389.527 2.058.817.669.289 1.698.804a7.047 6.88 0 0 1 1.504.941 4.834 4.719 0 0 1 .862 1.055 2.605 2.544 0 0 1 .386 1.331 3.6 3.515 0 0 1-1.582 3.063 6.23 6.083 0 0 1-3.669 1.081 8.988 8.775 0 0 1-1.903-.199 13.438 13.119 0 0 1-6.25-3.139l-.051-.05a.638.623 0 0 0-.613-.225.799.78 0 0 0-.591.299l-2.649 3.39a.781.763 0 0 0 .051 1.029q.129.151.45.452a14.885 14.532 0 0 0 1.196.942 15.783 15.41 0 0 0 4.514 2.322 16.239 15.854 0 0 0 3.279.778v4.394a.834.815 0 0 0 .823.804h3.472a.792.773 0 0 0 .823-.804v-4.393a11.044 10.782 0 0 0 6.649-3.428 9.785 9.554 0 0 0 2.559-6.617 8.456 8.255 0 0 0-.343-2.36z" fill="#fff"/></svg>