<?xml version="1.0"?>
<svg xmlns="http://www.w3.org/2000/svg" xmlns:xlink="http://www.w3.org/1999/xlink" version="1.1" id="Capa_1" x="0px" y="0px" viewBox="0 0 67 67" style="enable-background:new 0 0 67 67;" xml:space="preserve" width="512px" height="512px" class=""><g><g>
	<g>
		<path d="M4.25,35h39.899L33.86,45.478c-0.781,0.78-0.781,2.142-0.001,2.923c0.391,0.391,0.902,0.634,1.415,0.634    c0.512,0,1.023-0.171,1.414-0.562l12.815-12.801c0.375-0.375,0.586-0.878,0.586-1.408s-0.211-1.036-0.586-1.411l-0.608-0.607    c-0.138-0.2-0.312-0.374-0.513-0.511L36.689,20.042c-0.781-0.781-2.048-0.781-2.828,0c-0.781,0.781-0.781,1.856,0,2.638L42.373,31    H4.25c-1.104,0-2,0.896-2,2S3.146,35,4.25,35z" data-original="#000000" class="active-path" data-old_color="#d6d6d6" fill="#d6d6d6"/>
		<path d="M64.75,59.281V9.541C64.75,4.747,60.842,0,56.003,0H30.002c-4.744,0-9.252,4.576-9.252,9.541v11.84c0,1.104,0.896,2,2,2    s2-0.896,2-2V9.541C24.75,6.792,27.471,4,30.002,4h26.001c2.647,0,4.747,2.937,4.747,5.541v49.74c0,2.663-2.203,3.719-4.747,3.719    H30.002c-2.365,0-5.252-0.887-5.252-3.719v-11.9c0-1.104-0.896-2-2-2s-2,0.896-2,2v11.9c0,4.693,4.181,7.719,9.252,7.719h26.001    C61.188,67,64.75,63.823,64.75,59.281z" data-original="#000000" class="active-path" data-old_color="#d6d6d6" fill="#d6d6d6"/>
	</g>
</g></g> </svg>
