<svg width="26" height="34" viewBox="0 0 26 34" fill="none" xmlns="http://www.w3.org/2000/svg">
<g clip-path="url(#clip0)">
<path d="M21.0102 11.1212L20.8929 14.6658L19.7968 14.5214L17.2979 10.6394L13.7771 10.1756L13.8126 8.79308L17.2412 9.24478L17.2869 7.4669L8.96022 6.36992L8.91458 8.1478L12.3432 8.5995L12.3077 9.98198L8.54652 9.48647L6.79062 11.6642L3.35789 11.2119L3.23432 16.0263L1.84274 15.8429L1.93178 12.3739L0.462373 12.1803L0.235225 21.0299L1.70463 21.2235L1.79711 17.6208L3.18868 17.8041L3.05903 22.8555L6.5139 23.3107L8.19483 25.7655L16.8768 26.9031L19.5798 23.7357L20.6561 23.8775L20.586 27.6299L25.1028 28.2249L25.5253 11.7611L21.0102 11.1212ZM23.679 26.2534L22.0887 26.0439L22.1588 22.2916L18.9712 21.8716L16.2678 25.0395L8.87335 24.0706L7.1927 21.6163L4.57407 21.2713L4.78166 13.1834L7.42248 13.5313L9.17838 11.3536L16.5905 12.3301L19.0894 16.212L22.3035 16.6355L22.4204 13.1055L24.0107 13.3308L23.679 26.2534Z" fill="white"/>
</g>
<defs>
<clipPath id="clip0">
<rect width="25.18" height="30.215" fill="white" transform="matrix(0.991571 0.130633 -0.0256627 0.99981 0.775146 0)"/>
</clipPath>
</defs>
</svg>
