<svg xmlns="http://www.w3.org/2000/svg" height="612" width="495" viewBox="0 0 495 612"><path d="M487.14 162.469h-6.771l-17.195-48.623c-1.637-4.626-5.329-8.227-9.987-9.733l-22.157-7.177c-8.272-2.68-17.127 1.871-19.793 10.159-2.669 8.29 1.867 17.179 10.128 19.853l14.766 4.784 10.869 30.736h-4.671c-3.092 0-5.898 1.818-7.168 4.649l-12.746 28.391c-.516 1.151-.751 2.412-.68 3.672l4.794 86.736c.232 4.178 3.676 7.448 7.849 7.448h4.9v188.03c0 20.982-11.878 39.221-29.238 48.342v-117.285c0-11.546-4.152-22.133-11.027-30.357v-323.327c.001-32.404-26.28-58.767-58.586-58.767h-270.812c-32.306 0-58.587 26.363-58.587 58.767v323.322c-6.877 8.223-11.03 18.812-11.03 30.36v152.238c0 26.089 21.161 47.313 47.171 47.313h315.701c23.507 0 43.048-17.336 46.593-39.931 39.778-10.857 69.123-47.383 69.123-90.675v-188.028h8.551c4.341 0 7.861-3.53 7.861-7.885v-115.125c.001-4.355-3.518-7.887-7.86-7.887zm-282.118 267.53c-36.824 0-66.676-29.943-66.676-66.879 0-36.935 66.676-107.605 66.676-107.605s66.674 70.671 66.674 107.605c0 36.936-29.853 66.879-66.674 66.879zm131.105-261.253h-262.206v-105.664h262.206z" fill="#fff"/></svg>